<svg width="1030" height="256" viewBox="0 0 1030 256" fill="none" xmlns="http://www.w3.org/2000/svg">
<path d="M201.529 596.231C91.8688 132.473 642.649 -330.412 1159.09 12.9004M187.026 580.431C101.354 116.724 658.58 -320.799 1169.41 34.2794M172.52 564.635C110.834 100.979 674.504 -311.183 1179.74 55.6629M158.017 548.837C120.318 85.2303 690.432 -301.57 1190.06 77.0434M143.51 533.037C129.799 69.482 706.357 -291.957 1200.39 98.4224M129.006 517.238C139.282 53.7322 722.284 -282.342 1210.71 119.803M114.5 501.44C148.762 37.9849 738.21 -272.728 1221.04 141.185M99.9962 485.641C158.247 22.2379 754.139 -263.114 1231.36 162.567M85.491 469.843C167.727 6.49026 770.064 -253.501 1241.69 183.946M70.9843 454.045C177.208 -9.25879 785.99 -243.887 1252.01 205.327M56.4811 438.245C186.693 -25.0077 801.919 -234.272 1262.34 226.708M41.9764 422.447C196.174 -40.7547 817.845 -224.658 1272.67 248.089M27.4706 406.65C205.656 -56.5021 833.771 -215.045 1282.99 269.47M12.9645 390.851C215.137 -72.2509 849.698 -205.431 1293.31 290.851M-1.53918 375.053C224.619 -87.998 865.625 -195.817 1303.64 312.233M-16.0451 359.255C234.101 -103.746 881.551 -186.202 1313.96 333.613M-30.5494 343.454C243.583 -119.494 897.478 -176.588 1324.29 354.993M-45.0545 327.656C253.065 -135.244 913.405 -166.975 1334.62 376.373M-59.5609 311.859C262.546 -150.991 929.329 -157.361 1344.94 397.755M-74.0654 296.06C272.029 -166.738 945.257 -147.747 1355.27 419.137M-88.569 280.26C281.513 -182.487 961.185 -138.133 1365.59 440.516M-103.074 264.464C290.992 -198.234 977.111 -128.518 1375.91 461.898" stroke="url(#paint0_linear_779_9013)" stroke-miterlimit="10"/>
<defs>
<linearGradient id="paint0_linear_779_9013" x1="74.9316" y1="233.318" x2="1086.43" y2="2.31751" gradientUnits="userSpaceOnUse">
<stop stop-color="#C5DB91"/>
<stop offset="1" stop-color="#A6CF4A"/>
</linearGradient>
</defs>
</svg>
