<svg width="70" height="71" viewBox="0 0 70 71" fill="none" xmlns="http://www.w3.org/2000/svg">
<g opacity="0.8">
<path d="M34.5958 70.2485C53.7025 70.2485 69.1916 68.3842 69.1916 66.0843C69.1916 63.7845 53.7025 61.9202 34.5958 61.9202C15.4891 61.9202 0 63.7845 0 66.0843C0 68.3842 15.4891 70.2485 34.5958 70.2485Z" fill="url(#paint0_radial_777_5716)"/>
<path d="M59.0724 66.963C59.3606 66.7387 59.2806 65.8893 58.8843 65.0772C52.4607 52.2944 33.271 26.7552 22.4308 17.1876C21.7371 16.6075 20.5196 16.6437 19.741 17.2504C18.9625 17.857 18.6289 19.0286 19.0214 19.8428C25.6429 32.696 46.4691 56.9603 57.2899 66.3191C57.9803 66.9019 58.7843 67.1874 59.0724 66.963Z" fill="url(#paint1_radial_777_5716)"/>
<path d="M33.9421 37.1794C31.8292 37.5773 30.5619 37.3464 30.5619 37.3464C24.4216 36.8869 25.2558 32.1388 27.5607 31.1169C24.667 31.1175 22.7866 37.0264 29.6703 37.5416C29.6703 37.5416 31.2988 37.8395 33.9421 37.1794Z" fill="url(#paint2_linear_777_5716)"/>
<path d="M7.77512 53.5574C16.1062 67.4065 35.4396 71.6263 54.512 57.3015C73.5843 42.9767 73.2167 20.203 63.2431 11.7503C53.2696 3.29818 43.2111 6.62703 42.8299 15.0808C42.4488 23.5351 35.6164 26.1346 35.6164 26.1346C28.464 28.6795 27.5671 24.4331 20.7834 24.4942C11.8452 24.5759 -0.555385 39.7084 7.77512 53.5574ZM27.8569 31.1368C29.9465 31.4277 30.7629 31.7672 35.1515 31.738C38.1776 31.718 38.6663 35.6481 35.2564 36.7954C31.8464 37.9426 29.6708 37.542 29.6708 37.542C22.5546 37.0094 24.8038 30.7118 27.8569 31.1368Z" fill="url(#paint3_linear_777_5716)"/>
<path d="M19.961 24.8614C26.7446 24.7997 27.6416 29.0466 34.794 26.5017C34.794 26.5017 35.0492 26.4039 35.4612 26.1876C28.4547 28.613 27.5172 24.4337 20.7844 24.4948C19.3197 24.5083 17.7626 24.9322 16.2185 25.6816C17.4891 25.1641 18.7564 24.8722 19.961 24.8614Z" fill="url(#paint4_linear_777_5716)"/>
<path d="M62.4202 12.1175C72.3938 20.5702 72.7614 43.3433 53.6891 57.6687C50.7528 59.874 47.8105 61.6366 44.9028 62.9953C48.0781 61.5917 51.2983 59.7162 54.5125 57.3021C73.5849 42.9773 73.2172 20.2036 63.2437 11.7509C57.2488 6.67032 51.2264 5.85069 47.2904 7.83762C51.215 6.34485 56.8303 7.38021 62.4202 12.1175Z" fill="url(#paint5_linear_777_5716)"/>
<path d="M49.3275 17.7145C48.2354 15.2588 49.3399 12.383 51.7956 11.2909C54.2508 10.1987 57.1271 11.3033 58.2192 13.759C59.3113 16.2141 58.2068 19.0904 55.7511 20.1826C53.296 21.2747 50.4196 20.1696 49.3275 17.7145Z" fill="url(#paint6_radial_777_5716)"/>
<path d="M54.8487 31.787C53.7566 29.3318 54.8612 26.4555 57.3169 25.3634C59.772 24.2713 62.6483 25.3758 63.7404 27.8315C64.8326 30.2867 63.728 33.163 61.2723 34.2551C58.8166 35.3472 55.9409 34.2427 54.8487 31.787Z" fill="url(#paint7_radial_777_5716)"/>
<path d="M48.9935 46.2267C47.9014 43.7715 49.006 40.8952 51.4616 39.8031C53.9173 38.711 56.7931 39.8155 57.8852 42.2712C58.9774 44.7269 57.8728 47.6027 55.4171 48.6948C52.962 49.7875 50.0862 48.6824 48.9935 46.2267Z" fill="url(#paint8_radial_777_5716)"/>
<path d="M37.6022 54.9437C36.51 52.4886 37.6146 49.6123 40.0703 48.5201C42.5254 47.428 45.4017 48.5326 46.4939 50.9882C47.586 53.4439 46.4814 56.3197 44.0258 57.4118C41.5706 58.504 38.6948 57.3989 37.6022 54.9437Z" fill="url(#paint9_linear_777_5716)"/>
<path d="M22.9088 55.1686C21.8167 52.7134 22.9212 49.8371 25.3769 48.745C27.8321 47.6528 30.7084 48.7574 31.8005 51.2131C32.8927 53.6682 31.7881 56.5446 29.3324 57.6367C26.8773 58.7288 24.0009 57.6237 22.9088 55.1686Z" fill="url(#paint10_radial_777_5716)"/>
<path d="M12.2362 43.1503C11.1441 40.6951 12.2486 37.8188 14.7043 36.7267C17.16 35.6345 20.0358 36.7391 21.1279 39.1948C22.22 41.6505 21.1155 44.5263 18.6598 45.6184C16.2047 46.7105 13.3289 45.6054 12.2362 43.1503Z" fill="url(#paint11_radial_777_5716)"/>
<path d="M20.7578 16.8946C20.7578 16.8946 20.3237 11.369 18.367 8.9409C16.4104 6.51333 10.8189 6.49117 8.44917 0C5.62206 6.98534 7.94095 11.7637 10.2161 14.0501C13.7958 17.6472 17.2479 17.0578 18.074 17.7001C19.0683 17.6731 20.7578 16.8946 20.7578 16.8946Z" fill="url(#paint12_linear_777_5716)"/>
<path d="M20.7578 16.8946C20.7578 16.8946 20.3236 11.369 18.367 8.9409C16.4103 6.51333 10.8188 6.49117 8.44908 0C5.62197 6.98534 12.7181 8.93981 14.9932 11.2263C18.573 14.8233 17.2478 17.0578 18.0734 17.7001C19.0682 17.6731 20.7578 16.8946 20.7578 16.8946Z" fill="url(#paint13_linear_777_5716)"/>
<path d="M28.5762 34.331L36.5526 32.5814C31.4185 26.2605 26.3725 20.6663 22.4305 17.1872C21.7369 16.607 20.5193 16.6432 19.7408 17.2499C18.9622 17.8565 18.6286 19.0281 19.0211 19.8423C21.0778 23.8346 24.5051 28.927 28.5762 34.331Z" fill="url(#paint14_radial_777_5716)"/>
<path d="M18.8894 19.4666L22.0891 16.9747L20.4633 14.8872L17.2637 17.3791L18.8894 19.4666Z" fill="url(#paint15_linear_777_5716)"/>
</g>
<defs>
<radialGradient id="paint0_radial_777_5716" cx="0" cy="0" r="1" gradientUnits="userSpaceOnUse" gradientTransform="translate(34.5957 66.0732) scale(34.4141 4.01321)">
<stop stop-color="#FF60A8"/>
<stop offset="0.9948" stop-color="#FFA1CB" stop-opacity="0"/>
</radialGradient>
<radialGradient id="paint1_radial_777_5716" cx="0" cy="0" r="1" gradientUnits="userSpaceOnUse" gradientTransform="translate(20.7934 18.7408) rotate(-12.3685) scale(37.5985 37.5985)">
<stop stop-color="#DB9F0E"/>
<stop offset="1" stop-color="#8C500E"/>
</radialGradient>
<linearGradient id="paint2_linear_777_5716" x1="25.1589" y1="35.353" x2="33.1571" y2="33.5991" gradientUnits="userSpaceOnUse">
<stop stop-color="#FFC294"/>
<stop offset="0.7917" stop-color="#FFD2B4"/>
<stop offset="1" stop-color="#FFD6BD"/>
</linearGradient>
<linearGradient id="paint3_linear_777_5716" x1="69.4152" y1="20.1665" x2="10.1646" y2="57.3722" gradientUnits="userSpaceOnUse">
<stop stop-color="#FFC294"/>
<stop offset="0.7917" stop-color="#FFD2B4"/>
<stop offset="1" stop-color="#FFD6BD"/>
</linearGradient>
<linearGradient id="paint4_linear_777_5716" x1="33.7793" y1="22.408" x2="17.9046" y2="29.4713" gradientUnits="userSpaceOnUse">
<stop stop-color="#FFC294"/>
<stop offset="0.7128" stop-color="#FFC294"/>
</linearGradient>
<linearGradient id="paint5_linear_777_5716" x1="70.7118" y1="24.4583" x2="34.855" y2="40.4125" gradientUnits="userSpaceOnUse">
<stop offset="0.3128" stop-color="#FFAB6B"/>
<stop offset="0.7128" stop-color="#FFAB6B"/>
</linearGradient>
<radialGradient id="paint6_radial_777_5716" cx="0" cy="0" r="1" gradientUnits="userSpaceOnUse" gradientTransform="translate(53.7734 15.7364) rotate(156.014) scale(4.86593 4.86593)">
<stop stop-color="#DD4DFB"/>
<stop offset="1" stop-color="#900ABD"/>
</radialGradient>
<radialGradient id="paint7_radial_777_5716" cx="0" cy="0" r="1" gradientUnits="userSpaceOnUse" gradientTransform="translate(59.2945 29.8092) rotate(156.014) scale(4.86593 4.86594)">
<stop stop-color="#FFE300"/>
<stop offset="0.2352" stop-color="#FFD900"/>
<stop offset="0.6294" stop-color="#FFBF00"/>
<stop offset="1" stop-color="#FFA100"/>
</radialGradient>
<radialGradient id="paint8_radial_777_5716" cx="0" cy="0" r="1" gradientUnits="userSpaceOnUse" gradientTransform="translate(53.4397 44.2491) rotate(156.014) scale(4.86594)">
<stop stop-color="#95E30A"/>
<stop offset="1" stop-color="#69BD0A"/>
</radialGradient>
<linearGradient id="paint9_linear_777_5716" x1="46.494" y1="50.9878" x2="37.6024" y2="54.9441" gradientUnits="userSpaceOnUse">
<stop stop-color="#CD3C00"/>
<stop offset="0.9538" stop-color="#F98300"/>
</linearGradient>
<radialGradient id="paint10_radial_777_5716" cx="0" cy="0" r="1" gradientUnits="userSpaceOnUse" gradientTransform="translate(27.3546 53.1907) rotate(156.014) scale(4.86594)">
<stop stop-color="white"/>
<stop offset="0.3207" stop-color="#F9F9F9"/>
<stop offset="0.7403" stop-color="#E9E9E9"/>
<stop offset="1" stop-color="#DBDBDB"/>
</radialGradient>
<radialGradient id="paint11_radial_777_5716" cx="0" cy="0" r="1" gradientUnits="userSpaceOnUse" gradientTransform="translate(16.6823 41.1724) rotate(156.014) scale(4.86594)">
<stop stop-color="#6B6765"/>
<stop offset="0.3377" stop-color="#524F4D"/>
<stop offset="0.7491" stop-color="#393736"/>
<stop offset="1" stop-color="#302E2D"/>
</radialGradient>
<linearGradient id="paint12_linear_777_5716" x1="19.2511" y1="17.6125" x2="6.20477" y2="1.61568" gradientUnits="userSpaceOnUse">
<stop stop-color="#9F0E2C"/>
<stop offset="1" stop-color="#FF2C2C"/>
</linearGradient>
<linearGradient id="paint13_linear_777_5716" x1="20.7282" y1="16.4077" x2="7.6818" y2="0.410962" gradientUnits="userSpaceOnUse">
<stop stop-color="#CE0E2C"/>
<stop offset="1" stop-color="#FF2C2C"/>
</linearGradient>
<radialGradient id="paint14_radial_777_5716" cx="0" cy="0" r="1" gradientUnits="userSpaceOnUse" gradientTransform="translate(20.7931 18.7409) rotate(-12.3685) scale(37.599 37.5989)">
<stop stop-color="#DB9F0E"/>
<stop offset="1" stop-color="#8C500E"/>
</radialGradient>
<linearGradient id="paint15_linear_777_5716" x1="17.9987" y1="18.4078" x2="21.3165" y2="15.9735" gradientUnits="userSpaceOnUse">
<stop stop-color="#9398A3"/>
<stop offset="0.5128" stop-color="#D4D6DB"/>
<stop offset="1" stop-color="#9398A3"/>
</linearGradient>
</defs>
</svg>
