<svg width="129" height="182" viewBox="0 0 129 182" fill="none" xmlns="http://www.w3.org/2000/svg">
<path d="M1.67019 8.85657C3.40927 8.85657 4.82133 7.44695 4.82133 5.70787C4.82133 3.96879 3.41174 2.5592 1.67019 2.5592C-0.0713726 2.5592 -1.47851 3.96879 -1.47851 5.70787C-1.48099 7.44447 -0.0713726 8.85657 1.67019 8.85657Z" fill="#A6CF4A"/>
<path d="M11.4596 8.6115C13.0649 8.6115 14.3655 7.31091 14.3655 5.70561C14.3655 4.1003 13.0649 2.79968 11.4596 2.79968C9.8543 2.79968 8.55371 4.1003 8.55371 5.70561C8.55371 7.31091 9.85678 8.6115 11.4596 8.6115Z" fill="#A6CF4A"/>
<path d="M23.548 7.02853C24.283 5.75614 23.8473 4.12883 22.575 3.39382C21.3026 2.65881 19.6752 3.09442 18.9402 4.3668C18.2052 5.63919 18.6409 7.26651 19.9133 8.00152C21.1856 8.73653 22.8129 8.30091 23.548 7.02853Z" fill="#A6CF4A"/>
<path d="M31.0458 8.12331C32.3811 8.12331 33.4637 7.04074 33.4637 5.70547C33.4637 4.37019 32.3811 3.2876 31.0458 3.2876C29.7105 3.2876 28.6279 4.37019 28.6279 5.70547C28.6304 7.04074 29.7105 8.12331 31.0458 8.12331Z" fill="#A6CF4A"/>
<path d="M40.8386 7.87804C42.0377 7.87804 43.0112 6.90448 43.0112 5.70545C43.0112 4.50643 42.0377 3.53284 40.8386 3.53284C39.6396 3.53284 38.666 4.50643 38.666 5.70545C38.666 6.90448 39.6396 7.87804 40.8386 7.87804Z" fill="#A6CF4A"/>
<path d="M50.6314 7.63277C51.6967 7.63277 52.5588 6.77069 52.5588 5.70544C52.5588 4.64019 51.6967 3.77808 50.6314 3.77808C49.5662 3.77808 48.7041 4.64019 48.7041 5.70544C48.7041 6.77069 49.5662 7.63277 50.6314 7.63277Z" fill="#A6CF4A"/>
<path d="M60.4248 7.39039C61.3538 7.39039 62.1094 6.63731 62.1094 5.70583C62.1094 4.77684 61.3563 4.02124 60.4248 4.02124C59.4958 4.02124 58.7402 4.77436 58.7402 5.70583C58.7402 6.63483 59.4933 7.39039 60.4248 7.39039Z" fill="#A6CF4A"/>
<path d="M70.2177 7.14476C71.0129 7.14476 71.657 6.50067 71.657 5.70545C71.657 4.91023 71.0129 4.26611 70.2177 4.26611C69.4224 4.26611 68.7783 4.91023 68.7783 5.70545C68.7783 6.50067 69.4224 7.14476 70.2177 7.14476Z" fill="#A6CF4A"/>
<path d="M80.0076 6.89937C80.6665 6.89937 81.2016 6.36428 81.2016 5.70532C81.2016 5.04635 80.6665 4.51123 80.0076 4.51123C79.3486 4.51123 78.8135 5.04635 78.8135 5.70532C78.8135 6.36428 79.3486 6.89937 80.0076 6.89937Z" fill="#A6CF4A"/>
<path d="M89.7999 6.65675C90.3251 6.65675 90.7512 6.23066 90.7512 5.70546C90.7512 5.18027 90.3251 4.75415 89.7999 4.75415C89.2748 4.75415 88.8486 5.18027 88.8486 5.70546C88.8511 6.23066 89.2748 6.65675 89.7999 6.65675Z" fill="#A6CF4A"/>
<path d="M99.5928 6.41173C99.9817 6.41173 100.299 6.09463 100.299 5.70569C100.299 5.31676 99.9817 4.99963 99.5928 4.99963C99.2038 4.99963 98.8867 5.31676 98.8867 5.70569C98.8867 6.09463 99.2038 6.41173 99.5928 6.41173Z" fill="#A6CF4A"/>
<path d="M109.387 6.16646C109.642 6.16646 109.847 5.96085 109.847 5.70568C109.847 5.45052 109.642 5.24487 109.387 5.24487C109.131 5.24487 108.926 5.45052 108.926 5.70568C108.926 5.96085 109.131 6.16646 109.387 6.16646Z" fill="#A6CF4A"/>
<path d="M119.179 5.92329C119.298 5.92329 119.397 5.8267 119.397 5.70531C119.397 5.5864 119.3 5.4873 119.179 5.4873C119.06 5.4873 118.961 5.58392 118.961 5.70531C118.961 5.8267 119.058 5.92329 119.179 5.92329Z" fill="#A6CF4A"/>
<path d="M128.972 5.73418C128.987 5.73418 129 5.7215 129 5.70628C129 5.69106 128.987 5.67834 128.972 5.67834C128.957 5.67834 128.944 5.69106 128.944 5.70628C128.944 5.7215 128.957 5.73418 128.972 5.73418Z" fill="#A6CF4A"/>
<path d="M1.67009 18.6742C3.42403 18.6742 4.846 17.2522 4.846 15.4983C4.846 13.7444 3.42403 12.3224 1.67009 12.3224C-0.0838592 12.3224 -1.50586 13.7444 -1.50586 15.4983C-1.50586 17.2522 -0.0863366 18.6742 1.67009 18.6742Z" fill="#A6CF4A"/>
<path d="M11.4605 18.4315C13.0807 18.4315 14.3937 17.1185 14.3937 15.4983C14.3937 13.8782 13.0807 12.5652 11.4605 12.5652C9.84032 12.5652 8.52734 13.8782 8.52734 15.4983C8.52982 17.1185 9.84279 18.4315 11.4605 18.4315Z" fill="#A6CF4A"/>
<path d="M21.2533 18.1861C22.7372 18.1861 23.9412 16.9821 23.9412 15.4982C23.9412 14.0143 22.7372 12.8103 21.2533 12.8103C19.7694 12.8103 18.5654 14.0143 18.5654 15.4982C18.5654 16.9821 19.7694 18.1861 21.2533 18.1861Z" fill="#A6CF4A"/>
<path d="M31.0462 17.9409C32.3952 17.9409 33.4888 16.8473 33.4888 15.4983C33.4888 14.1493 32.3952 13.0557 31.0462 13.0557C29.6971 13.0557 28.6035 14.1493 28.6035 15.4983C28.6035 16.8473 29.6971 17.9409 31.0462 17.9409Z" fill="#A6CF4A"/>
<path d="M40.8385 17.6984C42.0524 17.6984 43.0384 16.7125 43.0384 15.4986C43.0384 14.2847 42.0549 13.2987 40.8385 13.2987C39.6246 13.2987 38.6387 14.2822 38.6387 15.4986C38.6387 16.7125 39.6246 17.6984 40.8385 17.6984Z" fill="#A6CF4A"/>
<path d="M50.6313 17.4527C51.7115 17.4527 52.586 16.5782 52.586 15.4981C52.586 14.418 51.7115 13.5435 50.6313 13.5435C49.5512 13.5435 48.6768 14.418 48.6768 15.4981C48.6768 16.5782 49.5512 17.4527 50.6313 17.4527Z" fill="#A6CF4A"/>
<path d="M60.4237 17.21C61.3676 17.21 62.1356 16.4445 62.1356 15.4982C62.1356 14.5518 61.3701 13.7888 60.4237 13.7888C59.4799 13.7888 58.7119 14.5543 58.7119 15.4982C58.7119 16.442 59.4774 17.21 60.4237 17.21Z" fill="#A6CF4A"/>
<path d="M70.2177 16.9375C71.0129 16.9375 71.657 16.2934 71.657 15.4981C71.657 14.7029 71.0129 14.0588 70.2177 14.0588C69.4224 14.0588 68.7783 14.7029 68.7783 15.4981C68.7783 16.2934 69.4224 16.9375 70.2177 16.9375Z" fill="#A6CF4A"/>
<path d="M80.0076 16.6923C80.6665 16.6923 81.2016 16.1572 81.2016 15.4983C81.2016 14.8393 80.6665 14.3042 80.0076 14.3042C79.3486 14.3042 78.8135 14.8393 78.8135 15.4983C78.8135 16.1572 79.3486 16.6923 80.0076 16.6923Z" fill="#A6CF4A"/>
<path d="M89.7999 16.4498C90.3251 16.4498 90.7512 16.0237 90.7512 15.4985C90.7512 14.9733 90.3251 14.5472 89.7999 14.5472C89.2748 14.5472 88.8486 14.9733 88.8486 15.4985C88.8486 16.0237 89.2748 16.4498 89.7999 16.4498Z" fill="#A6CF4A"/>
<path d="M99.5928 16.2045C99.9817 16.2045 100.299 15.8875 100.299 15.4985C100.299 15.1096 99.9817 14.7925 99.5928 14.7925C99.2038 14.7925 98.8867 15.1096 98.8867 15.4985C98.8867 15.8875 99.2038 16.2045 99.5928 16.2045Z" fill="#A6CF4A"/>
<path d="M109.387 15.959C109.642 15.959 109.847 15.7534 109.847 15.4983C109.847 15.2431 109.642 15.0375 109.387 15.0375C109.131 15.0375 108.926 15.2431 108.926 15.4983C108.926 15.7534 109.131 15.959 109.387 15.959Z" fill="#A6CF4A"/>
<path d="M119.179 15.7163C119.298 15.7163 119.397 15.6197 119.397 15.4983C119.397 15.3794 119.3 15.2803 119.179 15.2803C119.06 15.2803 118.961 15.3769 118.961 15.4983C118.961 15.6172 119.058 15.7163 119.179 15.7163Z" fill="#A6CF4A"/>
<path d="M128.972 15.5266C128.987 15.5266 129 15.5139 129 15.4987C129 15.4835 128.987 15.4708 128.972 15.4708C128.957 15.4708 128.944 15.4835 128.944 15.4987C128.944 15.5139 128.957 15.5266 128.972 15.5266Z" fill="#A6CF4A"/>
<path d="M1.67018 28.4399C3.40926 28.4399 4.82133 27.0303 4.82133 25.2912C4.82133 23.5522 3.41174 22.1426 1.67018 22.1426C-0.0713758 22.1426 -1.47852 23.5522 -1.47852 25.2912C-1.47852 27.0303 -0.0713758 28.4399 1.67018 28.4399Z" fill="#A6CF4A"/>
<path d="M11.4596 28.197C13.0649 28.197 14.3655 26.8965 14.3655 25.2911C14.3655 23.6858 13.0649 22.3853 11.4596 22.3853C9.8543 22.3853 8.55371 23.6858 8.55371 25.2911C8.55371 26.8965 9.85678 28.197 11.4596 28.197Z" fill="#A6CF4A"/>
<path d="M23.6981 26.33C24.2641 24.974 23.6237 23.4159 22.2677 22.8499C20.9117 22.2838 19.3536 22.9242 18.7876 24.2802C18.2215 25.6362 18.8619 27.1943 20.2179 27.7604C21.5739 28.3264 23.132 27.686 23.6981 26.33Z" fill="#A6CF4A"/>
<path d="M31.0458 27.7063C32.3811 27.7063 33.4637 26.6238 33.4637 25.2885C33.4637 23.9532 32.3811 22.8706 31.0458 22.8706C29.7105 22.8706 28.6279 23.9532 28.6279 25.2885C28.6279 26.6238 29.7105 27.7063 31.0458 27.7063Z" fill="#A6CF4A"/>
<path d="M40.8386 27.4638C42.0377 27.4638 43.0112 26.4902 43.0112 25.2911C43.0112 24.0921 42.0377 23.1185 40.8386 23.1185C39.6396 23.1185 38.666 24.0921 38.666 25.2911C38.666 26.4902 39.6396 27.4638 40.8386 27.4638Z" fill="#A6CF4A"/>
<path d="M50.6314 27.2185C51.6967 27.2185 52.5588 26.3564 52.5588 25.2911C52.5588 24.2259 51.6967 23.3638 50.6314 23.3638C49.5662 23.3638 48.7041 24.2259 48.7041 25.2911C48.7041 26.3564 49.5662 27.2185 50.6314 27.2185Z" fill="#A6CF4A"/>
<path d="M60.4248 26.9734C61.3538 26.9734 62.1094 26.2203 62.1094 25.2888C62.1094 24.3573 61.3563 23.6042 60.4248 23.6042C59.4958 23.6042 58.7402 24.3573 58.7402 25.2888C58.7402 26.2203 59.4933 26.9734 60.4248 26.9734Z" fill="#A6CF4A"/>
<path d="M70.2177 26.7305C71.0129 26.7305 71.657 26.0863 71.657 25.2911C71.657 24.4959 71.0129 23.8518 70.2177 23.8518C69.4224 23.8518 68.7783 24.4959 68.7783 25.2911C68.7783 26.0863 69.4224 26.7305 70.2177 26.7305Z" fill="#A6CF4A"/>
<path d="M80.0076 26.4853C80.6665 26.4853 81.2016 25.9502 81.2016 25.2912C81.2016 24.6323 80.6665 24.0972 80.0076 24.0972C79.3486 24.0972 78.8135 24.6323 78.8135 25.2912C78.8135 25.9502 79.3486 26.4853 80.0076 26.4853Z" fill="#A6CF4A"/>
<path d="M89.7999 26.2398C90.3251 26.2398 90.7512 25.8138 90.7512 25.2886C90.7512 24.7634 90.3251 24.3373 89.7999 24.3373C89.2748 24.3373 88.8486 24.7634 88.8486 25.2886C88.8511 25.8162 89.2748 26.2398 89.7999 26.2398Z" fill="#A6CF4A"/>
<path d="M99.5928 25.9971C99.9817 25.9971 100.299 25.6801 100.299 25.2911C100.299 24.9022 99.9817 24.5851 99.5928 24.5851C99.2038 24.5851 98.8867 24.9022 98.8867 25.2911C98.8867 25.6801 99.2038 25.9971 99.5928 25.9971Z" fill="#A6CF4A"/>
<path d="M109.387 25.752C109.642 25.752 109.847 25.5464 109.847 25.2912C109.847 25.0361 109.642 24.8304 109.387 24.8304C109.131 24.8304 108.926 25.0361 108.926 25.2912C108.926 25.5464 109.131 25.752 109.387 25.752Z" fill="#A6CF4A"/>
<path d="M119.179 25.5067C119.298 25.5067 119.397 25.4101 119.397 25.2887C119.397 25.1698 119.3 25.0707 119.179 25.0707C119.06 25.0707 118.961 25.1673 118.961 25.2887C118.961 25.4101 119.058 25.5067 119.179 25.5067Z" fill="#A6CF4A"/>
<path d="M128.972 25.3197C128.987 25.3197 129 25.307 129 25.2918C129 25.2766 128.987 25.2639 128.972 25.2639C128.957 25.2639 128.944 25.2766 128.944 25.2918C128.944 25.307 128.957 25.3197 128.972 25.3197Z" fill="#A6CF4A"/>
<path d="M1.66999 38.151C3.36448 38.151 4.73937 36.7761 4.73937 35.0816C4.73937 33.3871 3.36448 32.0122 1.66999 32.0122C-0.0244963 32.0122 -1.39941 33.3871 -1.39941 35.0816C-1.39941 36.7786 -0.0244963 38.151 1.66999 38.151Z" fill="#A6CF4A"/>
<path d="M11.4598 37.9352C13.0353 37.9352 14.3112 36.6594 14.3112 35.0838C14.3112 33.5082 13.0353 32.2324 11.4598 32.2324C9.88419 32.2324 8.6084 33.5082 8.6084 35.0838C8.61088 36.6569 9.88667 37.9352 11.4598 37.9352Z" fill="#A6CF4A"/>
<path d="M21.2526 37.6901C22.692 37.6901 23.8588 36.5233 23.8588 35.0839C23.8588 33.6446 22.692 32.4778 21.2526 32.4778C19.8133 32.4778 18.6465 33.6446 18.6465 35.0839C18.6465 36.5233 19.8133 37.6901 21.2526 37.6901Z" fill="#A6CF4A"/>
<path d="M31.046 37.4449C32.3515 37.4449 33.4094 36.3871 33.4094 35.0815C33.4094 33.776 32.3515 32.7181 31.046 32.7181C29.7404 32.7181 28.6826 33.776 28.6826 35.0815C28.6851 36.3871 29.7429 37.4449 31.046 37.4449Z" fill="#A6CF4A"/>
<path d="M40.8387 37.2293C42.0229 37.2293 42.9841 36.2681 42.9841 35.084C42.9841 33.8998 42.0229 32.9386 40.8387 32.9386C39.6546 32.9386 38.6934 33.8998 38.6934 35.084C38.6934 36.2681 39.6546 37.2293 40.8387 37.2293Z" fill="#A6CF4A"/>
<path d="M50.6315 36.9842C51.6819 36.9842 52.5316 36.132 52.5316 35.0841C52.5316 34.0337 51.6819 33.184 50.6315 33.184C49.5811 33.184 48.7314 34.0362 48.7314 35.0841C48.7314 36.132 49.5811 36.9842 50.6315 36.9842Z" fill="#A6CF4A"/>
<path d="M60.4249 36.7387C61.339 36.7387 62.0822 35.998 62.0822 35.0814C62.0822 34.1673 61.3415 33.4241 60.4249 33.4241C59.5108 33.4241 58.7676 34.1648 58.7676 35.0814C58.7676 35.998 59.5083 36.7387 60.4249 36.7387Z" fill="#A6CF4A"/>
<path d="M70.2167 36.496C70.9971 36.496 71.6288 35.8643 71.6288 35.084C71.6288 34.3036 70.9971 33.6719 70.2167 33.6719C69.4364 33.6719 68.8047 34.3036 68.8047 35.084C68.8047 35.8618 69.4364 36.496 70.2167 36.496Z" fill="#A6CF4A"/>
<path d="M80.0076 36.251C80.6517 36.251 81.1744 35.7283 81.1744 35.0842C81.1744 34.4401 80.6517 33.9174 80.0076 33.9174C79.3635 33.9174 78.8408 34.4401 78.8408 35.0842C78.8408 35.7283 79.3635 36.251 80.0076 36.251Z" fill="#A6CF4A"/>
<path d="M89.8 36.0055C90.3103 36.0055 90.724 35.5918 90.724 35.0815C90.724 34.5712 90.3103 34.1575 89.8 34.1575C89.2897 34.1575 88.876 34.5712 88.876 35.0815C88.8785 35.5943 89.2897 36.0055 89.8 36.0055Z" fill="#A6CF4A"/>
<path d="M99.5928 35.7627C99.9669 35.7627 100.272 35.458 100.272 35.0839C100.272 34.7099 99.9669 34.4052 99.5928 34.4052C99.2188 34.4052 98.9141 34.7099 98.9141 35.0839C98.9141 35.458 99.2188 35.7627 99.5928 35.7627Z" fill="#A6CF4A"/>
<path d="M109.386 35.5176C109.626 35.5176 109.819 35.3243 109.819 35.084C109.819 34.8437 109.624 34.6505 109.386 34.6505C109.148 34.6505 108.952 34.8462 108.952 35.084C108.952 35.3243 109.145 35.5176 109.386 35.5176Z" fill="#A6CF4A"/>
<path d="M119.179 35.2724C119.283 35.2724 119.37 35.1882 119.37 35.0816C119.37 34.9776 119.286 34.8909 119.179 34.8909C119.072 34.8909 118.988 34.9751 118.988 35.0816C118.988 35.1882 119.072 35.2724 119.179 35.2724Z" fill="#A6CF4A"/>
<path d="M1.6695 47.8077C3.28967 47.8077 4.60264 46.4947 4.60264 44.8746C4.60264 43.2544 3.28967 41.9414 1.6695 41.9414C0.0493309 41.9414 -1.26367 43.2544 -1.26367 44.8746C-1.26367 46.4947 0.0493309 47.8077 1.6695 47.8077Z" fill="#A6CF4A"/>
<path d="M11.4602 47.6193C12.9738 47.6193 14.2026 46.3906 14.2026 44.8769C14.2026 43.3633 12.9738 42.1345 11.4602 42.1345C9.94651 42.1345 8.71777 43.3633 8.71777 44.8769C8.71777 46.3906 9.94651 47.6193 11.4602 47.6193Z" fill="#A6CF4A"/>
<path d="M21.2529 47.4014C22.6476 47.4014 23.7773 46.2718 23.7773 44.8771C23.7773 43.4823 22.6476 42.3527 21.2529 42.3527C19.8582 42.3527 18.7285 43.4823 18.7285 44.8771C18.7285 46.2718 19.8582 47.4014 21.2529 47.4014Z" fill="#A6CF4A"/>
<path d="M31.0453 47.156C32.3038 47.156 33.3269 46.1354 33.3269 44.8744C33.3269 43.6159 32.3062 42.5928 31.0453 42.5928C29.7843 42.5928 28.7637 43.6135 28.7637 44.8744C28.7637 46.1354 29.7868 47.156 31.0453 47.156Z" fill="#A6CF4A"/>
<path d="M40.839 46.9405C41.9786 46.9405 42.9026 46.0164 42.9026 44.8769C42.9026 43.7373 41.9786 42.8132 40.839 42.8132C39.6995 42.8132 38.7754 43.7373 38.7754 44.8769C38.7754 46.0164 39.6995 46.9405 40.839 46.9405Z" fill="#A6CF4A"/>
<path d="M50.6309 46.6953C51.6366 46.6953 52.4492 45.8803 52.4492 44.877C52.4492 43.8712 51.6342 43.0586 50.6309 43.0586C49.6251 43.0586 48.8125 43.8737 48.8125 44.877C48.81 45.8803 49.6251 46.6953 50.6309 46.6953Z" fill="#A6CF4A"/>
<path d="M60.4251 46.4773C61.3095 46.4773 62.0279 45.7589 62.0279 44.8745C62.0279 43.9901 61.3095 43.2716 60.4251 43.2716C59.5407 43.2716 58.8223 43.9901 58.8223 44.8745C58.8223 45.7613 59.5382 46.4773 60.4251 46.4773Z" fill="#A6CF4A"/>
<path d="M70.217 46.2345C70.9676 46.2345 71.5745 45.6275 71.5745 44.8769C71.5745 44.1263 70.9676 43.5193 70.217 43.5193C69.4663 43.5193 68.8594 44.1263 68.8594 44.8769C68.8569 45.625 69.4663 46.2345 70.217 46.2345Z" fill="#A6CF4A"/>
<path d="M80.0078 45.9893C80.6222 45.9893 81.1201 45.4914 81.1201 44.877C81.1201 44.2626 80.6222 43.7646 80.0078 43.7646C79.3934 43.7646 78.8955 44.2626 78.8955 44.877C78.8955 45.4914 79.3934 45.9893 80.0078 45.9893Z" fill="#A6CF4A"/>
<path d="M89.8002 45.744C90.2808 45.744 90.6697 45.355 90.6697 44.8744C90.6697 44.3938 90.2808 44.0049 89.8002 44.0049C89.3196 44.0049 88.9307 44.3938 88.9307 44.8744C88.9307 45.355 89.3196 45.744 89.8002 45.744Z" fill="#A6CF4A"/>
<path d="M99.593 45.5012C99.9374 45.5012 100.217 45.2213 100.217 44.877C100.217 44.5326 99.9374 44.2527 99.593 44.2527C99.2487 44.2527 98.9688 44.5326 98.9688 44.877C98.9688 45.2213 99.2487 45.5012 99.593 45.5012Z" fill="#A6CF4A"/>
<path d="M109.387 45.283C109.612 45.283 109.793 45.0997 109.793 44.8767C109.793 44.6513 109.61 44.4705 109.387 44.4705C109.161 44.4705 108.98 44.6538 108.98 44.8767C108.98 45.0997 109.161 45.283 109.387 45.283Z" fill="#A6CF4A"/>
<path d="M119.179 45.0379C119.268 45.0379 119.343 44.9661 119.343 44.8744C119.343 44.7853 119.271 44.7109 119.179 44.7109C119.09 44.7109 119.016 44.7828 119.016 44.8744C119.016 44.9661 119.087 45.0379 119.179 45.0379Z" fill="#A6CF4A"/>
<path d="M1.67005 57.4368C3.19856 57.4368 4.43968 56.1956 4.43968 54.6671C4.43968 53.1386 3.19856 51.8975 1.67005 51.8975C0.141543 51.8975 -1.09961 53.1386 -1.09961 54.6671C-1.09961 56.1981 0.139065 57.4368 1.67005 57.4368Z" fill="#A6CF4A"/>
<path d="M13.8674 55.6514C14.409 54.3341 13.7802 52.827 12.4629 52.2854C11.1456 51.7437 9.63861 52.3726 9.09696 53.6899C8.5553 55.0072 9.18409 56.5142 10.5014 57.0558C11.8187 57.5975 13.3257 56.9687 13.8674 55.6514Z" fill="#A6CF4A"/>
<path d="M21.2529 57.0581C22.5733 57.0581 23.6435 55.9879 23.6435 54.6674C23.6435 53.347 22.5733 52.2769 21.2529 52.2769C19.9325 52.2769 18.8623 53.347 18.8623 54.6674C18.8648 55.9879 19.935 57.0581 21.2529 57.0581Z" fill="#A6CF4A"/>
<path d="M31.0457 56.8398C32.2447 56.8398 33.2183 55.8662 33.2183 54.6672C33.2183 53.4682 32.2447 52.4946 31.0457 52.4946C29.8466 52.4946 28.873 53.4682 28.873 54.6672C28.873 55.8662 29.8466 56.8398 31.0457 56.8398Z" fill="#A6CF4A"/>
<path d="M40.8384 56.6243C41.9185 56.6243 42.793 55.7498 42.793 54.6697C42.793 53.5896 41.9185 52.7151 40.8384 52.7151C39.7583 52.7151 38.8838 53.5896 38.8838 54.6697C38.8838 55.7473 39.7583 56.6243 40.8384 56.6243Z" fill="#A6CF4A"/>
<path d="M50.6316 56.4062C51.5904 56.4062 52.3707 55.6284 52.3707 54.6672C52.3707 53.7084 51.5928 52.9281 50.6316 52.9281C49.6729 52.9281 48.8926 53.706 48.8926 54.6672C48.8926 55.6284 49.6704 56.4062 50.6316 56.4062Z" fill="#A6CF4A"/>
<path d="M60.4244 56.1884C61.2642 56.1884 61.9455 55.5071 61.9455 54.6673C61.9455 53.8275 61.2642 53.1462 60.4244 53.1462C59.5846 53.1462 58.9033 53.8275 58.9033 54.6673C58.9033 55.5071 59.5846 56.1884 60.4244 56.1884Z" fill="#A6CF4A"/>
<path d="M70.2172 55.9454C70.9233 55.9454 71.4931 55.3732 71.4931 54.6696C71.4931 53.966 70.9208 53.3938 70.2172 53.3938C69.5112 53.3938 68.9414 53.966 68.9414 54.6696C68.9389 55.3732 69.5112 55.9454 70.2172 55.9454Z" fill="#A6CF4A"/>
<path d="M80.0076 55.7276C80.5922 55.7276 81.0679 55.2544 81.0679 54.6698C81.0679 54.0851 80.5947 53.6119 80.0076 53.6119C79.4229 53.6119 78.9473 54.0851 78.9473 54.6698C78.9497 55.2519 79.4229 55.7276 80.0076 55.7276Z" fill="#A6CF4A"/>
<path d="M89.8004 55.4824C90.2513 55.4824 90.6154 55.1182 90.6154 54.6673C90.6154 54.2164 90.2513 53.8523 89.8004 53.8523C89.3495 53.8523 88.9854 54.2164 88.9854 54.6673C88.9854 55.1182 89.352 55.4824 89.8004 55.4824Z" fill="#A6CF4A"/>
<path d="M99.5932 55.2372C99.9079 55.2372 100.163 54.9821 100.163 54.6674C100.163 54.3527 99.9079 54.0977 99.5932 54.0977C99.2786 54.0977 99.0234 54.3527 99.0234 54.6674C99.0234 54.9821 99.2786 55.2372 99.5932 55.2372Z" fill="#A6CF4A"/>
<path d="M109.386 55.019C109.58 55.019 109.738 54.8615 109.738 54.6672C109.738 54.4729 109.58 54.3154 109.386 54.3154C109.192 54.3154 109.034 54.4729 109.034 54.6672C109.034 54.8615 109.192 55.019 109.386 55.019Z" fill="#A6CF4A"/>
<path d="M119.178 54.7764C119.238 54.7764 119.287 54.7268 119.287 54.6673C119.287 54.6079 119.238 54.5583 119.178 54.5583C119.119 54.5583 119.069 54.6079 119.069 54.6673C119.069 54.7293 119.119 54.7764 119.178 54.7764Z" fill="#A6CF4A"/>
<path d="M1.66972 67.039C3.09401 67.039 4.24859 65.8844 4.24859 64.4601C4.24859 63.0358 3.09401 61.8812 1.66972 61.8812C0.245438 61.8812 -0.90918 63.0358 -0.90918 64.4601C-0.90918 65.8844 0.245438 67.039 1.66972 67.039Z" fill="#A6CF4A"/>
<path d="M11.4598 66.878C12.7951 66.878 13.8752 65.7954 13.8752 64.4601C13.8752 63.1248 12.7926 62.0422 11.4598 62.0422C10.1246 62.0422 9.04199 63.1248 9.04199 64.4601C9.04199 65.7954 10.127 66.878 11.4598 66.878Z" fill="#A6CF4A"/>
<path d="M21.2534 66.7144C22.497 66.7144 23.5077 65.7061 23.5077 64.46C23.5077 63.2164 22.4995 62.2057 21.2534 62.2057C20.0098 62.2057 18.999 63.214 18.999 64.46C19.0015 65.7061 20.0098 66.7144 21.2534 66.7144Z" fill="#A6CF4A"/>
<path d="M31.0461 66.4964C32.1708 66.4964 33.0825 65.5848 33.0825 64.4601C33.0825 63.3354 32.1708 62.4237 31.0461 62.4237C29.9214 62.4237 29.0098 63.3354 29.0098 64.4601C29.0098 65.5848 29.9214 66.4964 31.0461 66.4964Z" fill="#A6CF4A"/>
<path d="M40.8388 66.3081C41.8594 66.3081 42.6844 65.4807 42.6844 64.4625C42.6844 63.4419 41.857 62.6169 40.8388 62.6169C39.8181 62.6169 38.9932 63.4444 38.9932 64.4625C38.9932 65.4807 39.8181 66.3081 40.8388 66.3081Z" fill="#A6CF4A"/>
<path d="M50.632 66.0902C51.5313 66.0902 52.2621 65.3619 52.2621 64.4601C52.2621 63.5609 51.5338 62.8301 50.632 62.8301C49.7328 62.8301 49.002 63.5584 49.002 64.4601C49.002 65.3594 49.7328 66.0902 50.632 66.0902Z" fill="#A6CF4A"/>
<path d="M60.4248 65.8722C61.2051 65.8722 61.8368 65.2405 61.8368 64.4602C61.8368 63.6798 61.2051 63.0481 60.4248 63.0481C59.6444 63.0481 59.0127 63.6798 59.0127 64.4602C59.0127 65.2405 59.6444 65.8722 60.4248 65.8722Z" fill="#A6CF4A"/>
<path d="M70.2165 65.6543C70.8755 65.6543 71.4106 65.1191 71.4106 64.4602C71.4106 63.8012 70.8755 63.2661 70.2165 63.2661C69.5575 63.2661 69.0225 63.8012 69.0225 64.4602C69.0225 65.1191 69.5551 65.6543 70.2165 65.6543Z" fill="#A6CF4A"/>
<path d="M80.0079 65.4116C80.5331 65.4116 80.9592 64.9855 80.9592 64.4603C80.9592 63.9351 80.5331 63.509 80.0079 63.509C79.4827 63.509 79.0566 63.9351 79.0566 64.4603C79.0591 64.9855 79.4852 65.4116 80.0079 65.4116Z" fill="#A6CF4A"/>
<path d="M89.8007 65.1934C90.2045 65.1934 90.5339 64.8639 90.5339 64.4601C90.5339 64.0563 90.2069 63.7268 89.8007 63.7268C89.3944 63.7268 89.0674 64.0538 89.0674 64.4601C89.0674 64.8664 89.3969 65.1934 89.8007 65.1934Z" fill="#A6CF4A"/>
<path d="M99.5934 64.9753C99.8783 64.9753 100.109 64.7449 100.109 64.46C100.109 64.1751 99.8783 63.9447 99.5934 63.9447C99.3085 63.9447 99.0781 64.1751 99.0781 64.46C99.0781 64.7449 99.3085 64.9753 99.5934 64.9753Z" fill="#A6CF4A"/>
<path d="M109.386 64.7327C109.537 64.7327 109.658 64.6114 109.658 64.4602C109.658 64.3116 109.537 64.1877 109.386 64.1877C109.235 64.1877 109.113 64.3091 109.113 64.4602C109.113 64.6114 109.235 64.7327 109.386 64.7327Z" fill="#A6CF4A"/>
<path d="M119.179 64.5148C119.209 64.5148 119.233 64.4899 119.233 64.4601C119.233 64.4302 119.209 64.4054 119.179 64.4054C119.149 64.4054 119.124 64.4302 119.124 64.4601C119.124 64.4899 119.149 64.5148 119.179 64.5148Z" fill="#A6CF4A"/>
<path d="M1.66992 76.6434C2.99033 76.6434 4.06051 75.5732 4.06051 74.2528C4.06051 72.9324 2.99033 71.8622 1.66992 71.8622C0.349506 71.8622 -0.720703 72.9324 -0.720703 74.2528C-0.720703 75.5732 0.349506 76.6434 1.66992 76.6434Z" fill="#A6CF4A"/>
<path d="M11.4604 76.5074C12.704 76.5074 13.7148 75.4991 13.7148 74.253C13.7148 73.0094 12.7065 71.9987 11.4604 71.9987C10.2168 71.9987 9.20605 73.0069 9.20605 74.253C9.20853 75.4991 10.2168 76.5074 11.4604 76.5074Z" fill="#A6CF4A"/>
<path d="M21.2531 76.3164C22.3926 76.3164 23.3167 75.3924 23.3167 74.2528C23.3167 73.1132 22.3926 72.1892 21.2531 72.1892C20.1135 72.1892 19.1895 73.1132 19.1895 74.2528C19.1895 75.3924 20.1135 76.3164 21.2531 76.3164Z" fill="#A6CF4A"/>
<path d="M31.0456 76.153C32.096 76.153 32.9457 75.3008 32.9457 74.2529C32.9457 73.2025 32.0935 72.3528 31.0456 72.3528C29.9952 72.3528 29.1455 73.2025 29.1455 74.2529C29.1455 75.3033 29.9952 76.153 31.0456 76.153Z" fill="#A6CF4A"/>
<path d="M40.8388 75.9648C41.7827 75.9648 42.5506 75.1993 42.5506 74.253C42.5506 73.3091 41.7851 72.5411 40.8388 72.5411C39.8949 72.5411 39.127 73.3066 39.127 74.253C39.127 75.1968 39.8949 75.9648 40.8388 75.9648Z" fill="#A6CF4A"/>
<path d="M50.6315 75.7471C51.4564 75.7471 52.1253 75.0782 52.1253 74.2532C52.1253 73.4283 51.4564 72.7594 50.6315 72.7594C49.8065 72.7594 49.1377 73.4283 49.1377 74.2532C49.1377 75.0782 49.8065 75.7471 50.6315 75.7471Z" fill="#A6CF4A"/>
<path d="M60.4242 75.5561C61.1451 75.5561 61.7272 74.9714 61.7272 74.253C61.7272 73.5321 61.1426 72.95 60.4242 72.95C59.7033 72.95 59.1211 73.5346 59.1211 74.253C59.1211 74.9739 59.7033 75.5561 60.4242 75.5561Z" fill="#A6CF4A"/>
<path d="M70.2169 75.3406C70.8164 75.3406 71.302 74.855 71.302 74.253C71.302 73.6535 70.8164 73.168 70.2169 73.168C69.6174 73.168 69.1318 73.6535 69.1318 74.253C69.1294 74.8525 69.6149 75.3406 70.2169 75.3406Z" fill="#A6CF4A"/>
<path d="M80.0072 75.1225C80.4878 75.1225 80.8768 74.7336 80.8768 74.253C80.8768 73.7724 80.4878 73.3834 80.0072 73.3834C79.5266 73.3834 79.1377 73.7724 79.1377 74.253C79.1402 74.7336 79.5291 75.1225 80.0072 75.1225Z" fill="#A6CF4A"/>
<path d="M89.801 74.9046C90.1602 74.9046 90.4525 74.6123 90.4525 74.2531C90.4525 73.8939 90.1602 73.6016 89.801 73.6016C89.4418 73.6016 89.1494 73.8939 89.1494 74.2531C89.1494 74.6123 89.4418 74.9046 89.801 74.9046Z" fill="#A6CF4A"/>
<path d="M99.5938 74.6595C99.8193 74.6595 100 74.4762 100 74.2532C100 74.0278 99.8168 73.8469 99.5938 73.8469C99.3684 73.8469 99.1875 74.0302 99.1875 74.2532C99.1875 74.4786 99.3684 74.6595 99.5938 74.6595Z" fill="#A6CF4A"/>
<path d="M109.386 74.4438C109.49 74.4438 109.577 74.3595 109.577 74.253C109.577 74.149 109.493 74.0623 109.386 74.0623C109.28 74.0623 109.195 74.1465 109.195 74.253C109.195 74.3571 109.282 74.4438 109.386 74.4438Z" fill="#A6CF4A"/>
<path d="M119.179 74.2815C119.194 74.2815 119.207 74.2688 119.207 74.2536C119.207 74.2384 119.194 74.2257 119.179 74.2257C119.164 74.2257 119.151 74.2384 119.151 74.2536C119.151 74.2688 119.164 74.2815 119.179 74.2815Z" fill="#A6CF4A"/>
<path d="M1.66969 86.2184C2.86871 86.2184 3.84227 85.2448 3.84227 84.0458C3.84227 82.8468 2.86871 81.8732 1.66969 81.8732C0.470663 81.8732 -0.50293 82.8468 -0.50293 84.0458C-0.50293 85.2448 0.468186 86.2184 1.66969 86.2184Z" fill="#A6CF4A"/>
<path d="M11.4602 86.082C12.5849 86.082 13.4966 85.1704 13.4966 84.0457C13.4966 82.921 12.5849 82.0093 11.4602 82.0093C10.3355 82.0093 9.42383 82.921 9.42383 84.0457C9.42383 85.1704 10.3355 86.082 11.4602 86.082Z" fill="#A6CF4A"/>
<path d="M21.2526 85.9457C22.303 85.9457 23.1527 85.0935 23.1527 84.0456C23.1527 82.9952 22.3005 82.1455 21.2526 82.1455C20.2047 82.1455 19.3525 82.9952 19.3525 84.0456C19.3525 85.096 20.2047 85.9457 21.2526 85.9457Z" fill="#A6CF4A"/>
<path d="M31.0457 85.7824C32.0045 85.7824 32.7848 85.0045 32.7848 84.0433C32.7848 83.0846 32.0069 82.3042 31.0457 82.3042C30.087 82.3042 29.3066 83.0821 29.3066 84.0433C29.3091 85.0045 30.087 85.7824 31.0457 85.7824Z" fill="#A6CF4A"/>
<path d="M40.8384 85.5942C41.693 85.5942 42.3867 84.9006 42.3867 84.0459C42.3867 83.1912 41.693 82.4976 40.8384 82.4976C39.9837 82.4976 39.29 83.1912 39.29 84.0459C39.29 84.9006 39.9837 85.5942 40.8384 85.5942Z" fill="#A6CF4A"/>
<path d="M50.631 85.4031C51.3816 85.4031 51.9886 84.7962 51.9886 84.0456C51.9886 83.2949 51.3816 82.688 50.631 82.688C49.8804 82.688 49.2734 83.2949 49.2734 84.0456C49.2734 84.7962 49.8804 85.4031 50.631 85.4031Z" fill="#A6CF4A"/>
<path d="M60.4246 85.2127C61.0687 85.2127 61.5915 84.69 61.5915 84.0459C61.5915 83.4018 61.0687 82.879 60.4246 82.879C59.7805 82.879 59.2578 83.4018 59.2578 84.0459C59.2553 84.69 59.778 85.2127 60.4246 85.2127Z" fill="#A6CF4A"/>
<path d="M70.2169 84.9971C70.7421 84.9971 71.1682 84.571 71.1682 84.0458C71.1682 83.5206 70.7421 83.0945 70.2169 83.0945C69.6917 83.0945 69.2656 83.5206 69.2656 84.0458C69.2656 84.571 69.6917 84.9971 70.2169 84.9971Z" fill="#A6CF4A"/>
<path d="M80.0077 84.779C80.4115 84.779 80.741 84.4495 80.741 84.0457C80.741 83.6419 80.414 83.3124 80.0077 83.3124C79.6014 83.3124 79.2744 83.6394 79.2744 84.0457C79.2744 84.452 79.6039 84.779 80.0077 84.779Z" fill="#A6CF4A"/>
<path d="M89.8005 84.5612C90.0854 84.5612 90.3157 84.3308 90.3157 84.0459C90.3157 83.7611 90.0854 83.5306 89.8005 83.5306C89.5156 83.5306 89.2852 83.7611 89.2852 84.0459C89.2852 84.3308 89.5156 84.5612 89.8005 84.5612Z" fill="#A6CF4A"/>
<path d="M99.5937 84.3432C99.7597 84.3432 99.8934 84.2094 99.8934 84.0434C99.8934 83.8774 99.7597 83.7437 99.5937 83.7437C99.4277 83.7437 99.2939 83.8774 99.2939 84.0434C99.2964 84.2094 99.4277 84.3432 99.5937 84.3432Z" fill="#A6CF4A"/>
<path d="M109.386 84.1282C109.43 84.1282 109.468 84.0909 109.468 84.0462C109.468 84.0014 109.43 83.9641 109.386 83.9641C109.341 83.9641 109.304 84.0014 109.304 84.0462C109.304 84.0909 109.341 84.1282 109.386 84.1282Z" fill="#A6CF4A"/>
<path d="M1.66946 95.7933C2.74957 95.7933 3.62404 94.9188 3.62404 93.8387C3.62404 92.7586 2.74957 91.8842 1.66946 91.8842C0.589347 91.8842 -0.285151 92.7586 -0.285151 93.8387C-0.287628 94.9188 0.589347 95.7933 1.66946 95.7933Z" fill="#A6CF4A"/>
<path d="M11.4599 95.6844C12.4805 95.6844 13.3055 94.8569 13.3055 93.8388C13.3055 92.8181 12.478 91.9932 11.4599 91.9932C10.4392 91.9932 9.61426 92.8206 9.61426 93.8388C9.61426 94.8569 10.4417 95.6844 11.4599 95.6844Z" fill="#A6CF4A"/>
<path d="M21.2529 95.5483C22.1967 95.5483 22.9647 94.7828 22.9647 93.8365C22.9647 92.8926 22.1992 92.1246 21.2529 92.1246C20.3065 92.1246 19.541 92.8901 19.541 93.8365C19.5435 94.7828 20.309 95.5483 21.2529 95.5483Z" fill="#A6CF4A"/>
<path d="M31.0454 95.3872C31.9001 95.3872 32.5937 94.6935 32.5937 93.8389C32.5937 92.9842 31.9001 92.2905 31.0454 92.2905C30.1907 92.2905 29.4971 92.9842 29.4971 93.8389C29.4971 94.6935 30.1907 95.3872 31.0454 95.3872Z" fill="#A6CF4A"/>
<path d="M40.8389 95.2236C41.6044 95.2236 42.2238 94.6043 42.2238 93.8388C42.2238 93.0733 41.6044 92.454 40.8389 92.454C40.0735 92.454 39.4541 93.0733 39.4541 93.8388C39.4541 94.6043 40.0735 95.2236 40.8389 95.2236Z" fill="#A6CF4A"/>
<path d="M50.6316 95.0327C51.2905 95.0327 51.8256 94.4976 51.8256 93.8386C51.8256 93.1796 51.2905 92.6445 50.6316 92.6445C49.9726 92.6445 49.4375 93.1796 49.4375 93.8386C49.4375 94.4976 49.9726 95.0327 50.6316 95.0327Z" fill="#A6CF4A"/>
<path d="M60.4247 94.8445C60.9802 94.8445 61.4305 94.3941 61.4305 93.8387C61.4305 93.2832 60.9802 92.8329 60.4247 92.8329C59.8692 92.8329 59.4189 93.2832 59.4189 93.8387C59.4189 94.3941 59.8692 94.8445 60.4247 94.8445Z" fill="#A6CF4A"/>
<path d="M70.2174 94.6537C70.6683 94.6537 71.0324 94.2896 71.0324 93.8387C71.0324 93.3878 70.6683 93.0237 70.2174 93.0237C69.7665 93.0237 69.4023 93.3878 69.4023 93.8387C69.4023 94.2871 69.7665 94.6537 70.2174 94.6537Z" fill="#A6CF4A"/>
<path d="M80.0071 94.4631C80.3515 94.4631 80.6314 94.1832 80.6314 93.8389C80.6314 93.4945 80.3515 93.2146 80.0071 93.2146C79.6628 93.2146 79.3828 93.4945 79.3828 93.8389C79.3828 94.1832 79.6628 94.4631 80.0071 94.4631Z" fill="#A6CF4A"/>
<path d="M89.8008 94.2448C90.0263 94.2448 90.2071 94.0615 90.2071 93.8385C90.2071 93.6131 90.0238 93.4323 89.8008 93.4323C89.5754 93.4323 89.3945 93.6155 89.3945 93.8385C89.3945 94.0639 89.5754 94.2448 89.8008 94.2448Z" fill="#A6CF4A"/>
<path d="M99.5931 94.027C99.6971 94.027 99.7839 93.9428 99.7839 93.8363C99.7839 93.7322 99.6996 93.6455 99.5931 93.6455C99.4866 93.6455 99.4023 93.7297 99.4023 93.8363C99.4023 93.9428 99.4891 94.027 99.5931 94.027Z" fill="#A6CF4A"/>
<path d="M109.387 93.8675C109.403 93.8675 109.415 93.8548 109.415 93.8395C109.415 93.8243 109.403 93.8116 109.387 93.8116C109.372 93.8116 109.359 93.8243 109.359 93.8395C109.359 93.8548 109.372 93.8675 109.387 93.8675Z" fill="#A6CF4A"/>
<path d="M1.66923 105.368C2.62795 105.368 3.40828 104.59 3.40828 103.629C3.40828 102.67 2.63043 101.89 1.66923 101.89C0.710505 101.89 -0.0673769 102.668 -0.0673769 103.629C-0.0698542 104.59 0.708028 105.368 1.66923 105.368Z" fill="#A6CF4A"/>
<path d="M11.4601 105.259C12.3594 105.259 13.0902 104.531 13.0902 103.629C13.0902 102.73 12.3619 101.999 11.4601 101.999C10.5609 101.999 9.83008 102.727 9.83008 103.629C9.83256 104.531 10.5609 105.259 11.4601 105.259Z" fill="#A6CF4A"/>
<path d="M21.2526 105.123C22.0776 105.123 22.7465 104.454 22.7465 103.629C22.7465 102.804 22.0776 102.135 21.2526 102.135C20.4277 102.135 19.7588 102.804 19.7588 103.629C19.7588 104.456 20.4277 105.123 21.2526 105.123Z" fill="#A6CF4A"/>
<path d="M31.046 104.989C31.7967 104.989 32.4036 104.382 32.4036 103.632C32.4036 102.881 31.7967 102.274 31.046 102.274C30.2954 102.274 29.6885 102.881 29.6885 103.632C29.6885 104.38 30.2954 104.989 31.046 104.989Z" fill="#A6CF4A"/>
<path d="M40.8386 104.826C41.4976 104.826 42.0327 104.291 42.0327 103.632C42.0327 102.973 41.4976 102.438 40.8386 102.438C40.1796 102.438 39.6445 102.973 39.6445 103.632C39.6445 104.291 40.1796 104.826 40.8386 104.826Z" fill="#A6CF4A"/>
<path d="M50.6307 104.662C51.2005 104.662 51.6637 104.199 51.6637 103.629C51.6637 103.059 51.2029 102.599 50.6307 102.599C50.0609 102.599 49.5977 103.059 49.5977 103.629C49.5977 104.201 50.0609 104.662 50.6307 104.662Z" fill="#A6CF4A"/>
<path d="M60.4243 104.471C60.8901 104.471 61.2666 104.095 61.2666 103.629C61.2666 103.163 60.8901 102.787 60.4243 102.787C59.9586 102.787 59.582 103.163 59.582 103.629C59.582 104.095 59.9586 104.471 60.4243 104.471Z" fill="#A6CF4A"/>
<path d="M70.2169 104.31C70.591 104.31 70.8957 104.006 70.8957 103.632C70.8957 103.257 70.591 102.953 70.2169 102.953C69.8428 102.953 69.5381 103.257 69.5381 103.632C69.5356 104.006 69.8403 104.31 70.2169 104.31Z" fill="#A6CF4A"/>
<path d="M80.0077 104.092C80.2628 104.092 80.4684 103.887 80.4684 103.632C80.4684 103.376 80.2628 103.171 80.0077 103.171C79.7525 103.171 79.5469 103.376 79.5469 103.632C79.5469 103.887 79.7525 104.092 80.0077 104.092Z" fill="#A6CF4A"/>
<path d="M89.7999 103.901C89.951 103.901 90.0723 103.78 90.0723 103.629C90.0723 103.48 89.951 103.356 89.7999 103.356C89.6488 103.356 89.5273 103.478 89.5273 103.629C89.5298 103.78 89.6512 103.901 89.7999 103.901Z" fill="#A6CF4A"/>
<path d="M99.5938 103.714C99.6385 103.714 99.6758 103.677 99.6758 103.632C99.6758 103.587 99.6385 103.55 99.5938 103.55C99.549 103.55 99.5117 103.587 99.5117 103.632C99.5117 103.677 99.549 103.714 99.5938 103.714Z" fill="#A6CF4A"/>
<path d="M1.66952 114.943C2.50933 114.943 3.19057 114.262 3.19057 113.422C3.19057 112.582 2.50933 111.901 1.66952 111.901C0.829705 111.901 0.148438 112.582 0.148438 113.422C0.148438 114.262 0.829705 114.943 1.66952 114.943Z" fill="#A6CF4A"/>
<path d="M11.4599 114.834C12.2403 114.834 12.872 114.202 12.872 113.422C12.872 112.642 12.2403 112.01 11.4599 112.01C10.6796 112.01 10.0479 112.642 10.0479 113.422C10.0479 114.202 10.682 114.834 11.4599 114.834Z" fill="#A6CF4A"/>
<path d="M21.2523 114.728C21.9732 114.728 22.5554 114.143 22.5554 113.425C22.5554 112.704 21.9707 112.121 21.2523 112.121C20.5314 112.121 19.9492 112.706 19.9492 113.425C19.9492 114.143 20.5339 114.728 21.2523 114.728Z" fill="#A6CF4A"/>
<path d="M31.0457 114.591C31.6898 114.591 32.2125 114.068 32.2125 113.424C32.2125 112.78 31.6898 112.257 31.0457 112.257C30.4016 112.257 29.8789 112.78 29.8789 113.424C29.8789 114.068 30.4016 114.591 31.0457 114.591Z" fill="#A6CF4A"/>
<path d="M40.8388 114.428C41.3937 114.428 41.8446 113.977 41.8446 113.422C41.8446 112.867 41.3937 112.416 40.8388 112.416C40.2839 112.416 39.833 112.867 39.833 113.422C39.833 113.977 40.2839 114.428 40.8388 114.428Z" fill="#A6CF4A"/>
<path d="M50.6313 114.264C51.0971 114.264 51.4736 113.888 51.4736 113.422C51.4736 112.956 51.0971 112.58 50.6313 112.58C50.1656 112.58 49.7891 112.956 49.7891 113.422C49.7891 113.888 50.1656 114.264 50.6313 114.264Z" fill="#A6CF4A"/>
<path d="M60.4239 114.101C60.798 114.101 61.1027 113.796 61.1027 113.422C61.1027 113.048 60.798 112.743 60.4239 112.743C60.0498 112.743 59.7451 113.048 59.7451 113.422C59.7451 113.799 60.0473 114.101 60.4239 114.101Z" fill="#A6CF4A"/>
<path d="M70.2174 113.94C70.5023 113.94 70.7327 113.709 70.7327 113.425C70.7327 113.14 70.5023 112.909 70.2174 112.909C69.9325 112.909 69.7022 113.14 69.7022 113.425C69.6997 113.707 69.9325 113.94 70.2174 113.94Z" fill="#A6CF4A"/>
<path d="M80.0077 113.749C80.1885 113.749 80.3322 113.603 80.3322 113.422C80.3322 113.241 80.1861 113.097 80.0077 113.097C79.8268 113.097 79.6807 113.244 79.6807 113.422C79.6831 113.603 79.8293 113.749 80.0077 113.749Z" fill="#A6CF4A"/>
<path d="M89.8003 113.558C89.8746 113.558 89.9366 113.496 89.9366 113.422C89.9366 113.348 89.8746 113.286 89.8003 113.286C89.726 113.286 89.6641 113.345 89.6641 113.422C89.6641 113.499 89.726 113.558 89.8003 113.558Z" fill="#A6CF4A"/>
<path d="M1.67037 124.491C2.3764 124.491 2.94616 123.918 2.94616 123.215C2.94616 122.511 2.37393 121.939 1.67037 121.939C0.96433 121.939 0.394539 122.511 0.394539 123.215C0.392062 123.921 0.96433 124.491 1.67037 124.491Z" fill="#A6CF4A"/>
<path d="M11.4597 124.411C12.1186 124.411 12.6538 123.876 12.6538 123.217C12.6538 122.558 12.1186 122.023 11.4597 122.023C10.8007 122.023 10.2656 122.558 10.2656 123.217C10.2656 123.876 10.8007 124.411 11.4597 124.411Z" fill="#A6CF4A"/>
<path d="M21.253 124.302C21.8525 124.302 22.3381 123.817 22.3381 123.215C22.3381 122.615 21.8525 122.13 21.253 122.13C20.6535 122.13 20.168 122.615 20.168 123.215C20.168 123.814 20.6535 124.302 21.253 124.302Z" fill="#A6CF4A"/>
<path d="M31.046 124.166C31.5712 124.166 31.9973 123.74 31.9973 123.215C31.9973 122.689 31.5712 122.263 31.046 122.263C30.5208 122.263 30.0947 122.689 30.0947 123.215C30.0972 123.74 30.5208 124.166 31.046 124.166Z" fill="#A6CF4A"/>
<path d="M40.8385 124.03C41.2894 124.03 41.6535 123.666 41.6535 123.215C41.6535 122.764 41.2894 122.4 40.8385 122.4C40.3876 122.4 40.0234 122.764 40.0234 123.215C40.0234 123.666 40.3876 124.03 40.8385 124.03Z" fill="#A6CF4A"/>
<path d="M50.6309 123.894C51.005 123.894 51.3097 123.589 51.3097 123.215C51.3097 122.841 51.005 122.536 50.6309 122.536C50.2569 122.536 49.9521 122.841 49.9521 123.215C49.9521 123.591 50.2569 123.894 50.6309 123.894Z" fill="#A6CF4A"/>
<path d="M60.4245 123.732C60.7094 123.732 60.9398 123.502 60.9398 123.217C60.9398 122.932 60.7094 122.702 60.4245 122.702C60.1396 122.702 59.9092 122.932 59.9092 123.217C59.9067 123.5 60.1396 123.732 60.4245 123.732Z" fill="#A6CF4A"/>
<path d="M70.2166 123.542C70.3975 123.542 70.5436 123.396 70.5436 123.215C70.5436 123.034 70.3975 122.89 70.2166 122.89C70.0358 122.89 69.8896 123.036 69.8896 123.215C69.8896 123.396 70.0358 123.542 70.2166 123.542Z" fill="#A6CF4A"/>
<path d="M80.0073 123.378C80.0964 123.378 80.1708 123.306 80.1708 123.215C80.1708 123.125 80.0989 123.051 80.0073 123.051C79.9181 123.051 79.8438 123.123 79.8438 123.215C79.8462 123.306 79.9181 123.378 80.0073 123.378Z" fill="#A6CF4A"/>
<path d="M89.8014 123.243C89.8166 123.243 89.8292 123.231 89.8292 123.216C89.8292 123.2 89.8166 123.188 89.8014 123.188C89.7861 123.188 89.7734 123.2 89.7734 123.216C89.7734 123.231 89.7861 123.243 89.8014 123.243Z" fill="#A6CF4A"/>
<path d="M1.66916 134.068C2.25381 134.068 2.72943 133.595 2.72943 133.008C2.72943 132.423 2.25628 131.95 1.66916 131.95C1.08451 131.95 0.611338 132.423 0.611338 133.008C0.60886 133.592 1.08451 134.068 1.66916 134.068Z" fill="#A6CF4A"/>
<path d="M11.4601 133.959C11.9853 133.959 12.4114 133.533 12.4114 133.007C12.4114 132.482 11.9853 132.056 11.4601 132.056C10.9349 132.056 10.5088 132.482 10.5088 133.007C10.5113 133.533 10.9374 133.959 11.4601 133.959Z" fill="#A6CF4A"/>
<path d="M21.2524 133.877C21.733 133.877 22.1219 133.488 22.1219 133.008C22.1219 132.527 21.733 132.138 21.2524 132.138C20.7718 132.138 20.3828 132.527 20.3828 133.008C20.3853 133.488 20.7742 133.877 21.2524 133.877Z" fill="#A6CF4A"/>
<path d="M31.0458 133.741C31.4496 133.741 31.7791 133.412 31.7791 133.008C31.7791 132.604 31.4521 132.274 31.0458 132.274C30.6395 132.274 30.3125 132.601 30.3125 133.008C30.3125 133.414 30.642 133.741 31.0458 133.741Z" fill="#A6CF4A"/>
<path d="M40.8382 133.632C41.1825 133.632 41.4624 133.352 41.4624 133.008C41.4624 132.663 41.1825 132.383 40.8382 132.383C40.4938 132.383 40.2139 132.663 40.2139 133.008C40.2139 133.352 40.4938 133.632 40.8382 133.632Z" fill="#A6CF4A"/>
<path d="M50.6317 133.468C50.8869 133.468 51.0925 133.263 51.0925 133.008C51.0925 132.753 50.8869 132.547 50.6317 132.547C50.3765 132.547 50.1709 132.753 50.1709 133.008C50.1684 133.263 50.3765 133.468 50.6317 133.468Z" fill="#A6CF4A"/>
<path d="M60.4246 133.335C60.6055 133.335 60.7492 133.189 60.7492 133.008C60.7492 132.827 60.603 132.681 60.4246 132.681C60.2438 132.681 60.0977 132.827 60.0977 133.008C60.0977 133.189 60.2438 133.335 60.4246 133.335Z" fill="#A6CF4A"/>
<path d="M70.2172 133.171C70.3064 133.171 70.3807 133.099 70.3807 133.008C70.3807 132.919 70.3089 132.844 70.2172 132.844C70.128 132.844 70.0537 132.916 70.0537 133.008C70.0537 133.097 70.1256 133.171 70.2172 133.171Z" fill="#A6CF4A"/>
<path d="M80.0084 133.036C80.0236 133.036 80.0363 133.023 80.0363 133.008C80.0363 132.993 80.0236 132.98 80.0084 132.98C79.9931 132.98 79.9805 132.993 79.9805 133.008C79.9805 133.023 79.9931 133.036 80.0084 133.036Z" fill="#A6CF4A"/>
<path d="M1.66954 143.616C2.12041 143.616 2.48456 143.251 2.48456 142.8C2.48456 142.35 2.12041 141.985 1.66954 141.985C1.21867 141.985 0.854492 142.35 0.854492 142.8C0.854492 143.251 1.21867 143.616 1.66954 143.616Z" fill="#A6CF4A"/>
<path d="M11.4598 143.534C11.8636 143.534 12.1931 143.204 12.1931 142.801C12.1931 142.397 11.8661 142.067 11.4598 142.067C11.056 142.067 10.7266 142.394 10.7266 142.801C10.7266 143.207 11.056 143.534 11.4598 143.534Z" fill="#A6CF4A"/>
<path d="M21.2531 143.452C21.6123 143.452 21.9046 143.16 21.9046 142.801C21.9046 142.441 21.6123 142.149 21.2531 142.149C20.8939 142.149 20.6016 142.441 20.6016 142.801C20.6016 143.16 20.8939 143.452 21.2531 143.452Z" fill="#A6CF4A"/>
<path d="M31.0455 143.316C31.3304 143.316 31.5608 143.085 31.5608 142.8C31.5608 142.516 31.3304 142.285 31.0455 142.285C30.7607 142.285 30.5303 142.516 30.5303 142.8C30.5303 143.085 30.7607 143.316 31.0455 143.316Z" fill="#A6CF4A"/>
<path d="M40.8389 143.207C41.0643 143.207 41.2452 143.023 41.2452 142.8C41.2452 142.575 41.0619 142.394 40.8389 142.394C40.6135 142.394 40.4326 142.577 40.4326 142.8C40.4326 143.026 40.6135 143.207 40.8389 143.207Z" fill="#A6CF4A"/>
<path d="M50.6309 143.073C50.782 143.073 50.9034 142.952 50.9034 142.8C50.9034 142.652 50.782 142.528 50.6309 142.528C50.4798 142.528 50.3584 142.649 50.3584 142.8C50.3584 142.952 50.4798 143.073 50.6309 143.073Z" fill="#A6CF4A"/>
<path d="M60.4243 142.937C60.4986 142.937 60.5606 142.875 60.5606 142.801C60.5606 142.726 60.4986 142.664 60.4243 142.664C60.35 142.664 60.2881 142.726 60.2881 142.801C60.2881 142.875 60.3475 142.937 60.4243 142.937Z" fill="#A6CF4A"/>
<path d="M70.2174 142.829C70.2326 142.829 70.2453 142.817 70.2453 142.801C70.2453 142.786 70.2326 142.773 70.2174 142.773C70.2021 142.773 70.1895 142.786 70.1895 142.801C70.1895 142.817 70.1996 142.829 70.2174 142.829Z" fill="#A6CF4A"/>
<path d="M1.67038 153.163C1.98507 153.163 2.24015 152.908 2.24015 152.593C2.24015 152.279 1.98507 152.024 1.67038 152.024C1.3557 152.024 1.10059 152.279 1.10059 152.593C1.10059 152.908 1.3557 153.163 1.67038 153.163Z" fill="#A6CF4A"/>
<path d="M11.4606 153.109C11.7455 153.109 11.9759 152.878 11.9759 152.593C11.9759 152.308 11.7455 152.078 11.4606 152.078C11.1757 152.078 10.9453 152.308 10.9453 152.593C10.9453 152.878 11.1757 153.109 11.4606 153.109Z" fill="#A6CF4A"/>
<path d="M21.253 153C21.4784 153 21.6592 152.816 21.6592 152.594C21.6592 152.368 21.4759 152.187 21.253 152.187C21.03 152.187 20.8467 152.371 20.8467 152.594C20.8467 152.819 21.03 153 21.253 153Z" fill="#A6CF4A"/>
<path d="M31.0458 152.891C31.2118 152.891 31.3456 152.757 31.3456 152.591C31.3456 152.425 31.2118 152.291 31.0458 152.291C30.8799 152.291 30.7461 152.425 30.7461 152.591C30.7486 152.757 30.8823 152.891 31.0458 152.891Z" fill="#A6CF4A"/>
<path d="M40.8382 152.784C40.9423 152.784 41.029 152.7 41.029 152.593C41.029 152.489 40.9447 152.403 40.8382 152.403C40.7342 152.403 40.6475 152.487 40.6475 152.593C40.6475 152.697 40.7342 152.784 40.8382 152.784Z" fill="#A6CF4A"/>
<path d="M50.6318 152.676C50.6766 152.676 50.7139 152.638 50.7139 152.594C50.7139 152.549 50.6766 152.512 50.6318 152.512C50.5871 152.512 50.5498 152.549 50.5498 152.594C50.5498 152.638 50.5871 152.676 50.6318 152.676Z" fill="#A6CF4A"/>
<path d="M1.67015 162.738C1.86443 162.738 2.02191 162.581 2.02191 162.386C2.02191 162.192 1.86443 162.035 1.67015 162.035C1.47587 162.035 1.31836 162.192 1.31836 162.386C1.31836 162.581 1.47587 162.738 1.67015 162.738Z" fill="#A6CF4A"/>
<path d="M11.46 162.656C11.6111 162.656 11.7325 162.535 11.7325 162.384C11.7325 162.235 11.6111 162.111 11.46 162.111C11.3089 162.111 11.1875 162.233 11.1875 162.384C11.19 162.535 11.3114 162.656 11.46 162.656Z" fill="#A6CF4A"/>
<path d="M21.2523 162.575C21.3563 162.575 21.443 162.49 21.443 162.384C21.443 162.28 21.3588 162.193 21.2523 162.193C21.1482 162.193 21.0615 162.277 21.0615 162.384C21.064 162.49 21.1482 162.575 21.2523 162.575Z" fill="#A6CF4A"/>
<path d="M31.0459 162.468C31.0906 162.468 31.1279 162.431 31.1279 162.386C31.1279 162.342 31.0906 162.304 31.0459 162.304C31.0011 162.304 30.9639 162.342 30.9639 162.386C30.9639 162.431 31.0011 162.468 31.0459 162.468Z" fill="#A6CF4A"/>
<path d="M40.8394 162.415C40.8546 162.415 40.8673 162.402 40.8673 162.387C40.8673 162.372 40.8546 162.359 40.8394 162.359C40.8242 162.359 40.8115 162.372 40.8115 162.387C40.8115 162.402 40.8242 162.415 40.8394 162.415Z" fill="#A6CF4A"/>
<path d="M1.66956 172.286C1.72902 172.286 1.77855 172.236 1.77855 172.177C1.77855 172.117 1.72902 172.068 1.66956 172.068C1.61011 172.068 1.56055 172.117 1.56055 172.177C1.56055 172.238 1.60763 172.286 1.66956 172.286Z" fill="#A6CF4A"/>
<path d="M11.46 172.231C11.4898 172.231 11.5147 172.206 11.5147 172.177C11.5147 172.147 11.4898 172.122 11.46 172.122C11.4301 172.122 11.4053 172.147 11.4053 172.177C11.4078 172.209 11.4301 172.231 11.46 172.231Z" fill="#A6CF4A"/>
<path d="M21.2535 172.208C21.2687 172.208 21.2814 172.195 21.2814 172.18C21.2814 172.164 21.2687 172.152 21.2535 172.152C21.2383 172.152 21.2256 172.164 21.2256 172.18C21.2256 172.195 21.2383 172.208 21.2535 172.208Z" fill="#A6CF4A"/>
</svg>
