<svg width="84" height="62" viewBox="0 0 84 62" fill="none" xmlns="http://www.w3.org/2000/svg">
<path d="M40.6256 61.6851C60.9029 61.6851 77.341 59.5812 77.341 56.9859C77.341 54.3905 60.9029 52.2866 40.6256 52.2866C20.3483 52.2866 3.91028 54.3905 3.91028 56.9859C3.91028 59.5812 20.3483 61.6851 40.6256 61.6851Z" fill="url(#paint0_radial_777_5577)"/>
<g opacity="0.8">
<path d="M84 0L0 11.7249L40.7648 55.1011L84 0ZM40.5708 36.4261L25.5456 20.4382L56.5068 16.1167L40.5708 36.4261Z" fill="url(#paint1_linear_777_5577)"/>
<path d="M0 11.7248L25.5456 20.4381L56.5068 16.1166L83.6614 0.046875L0 11.7248Z" fill="url(#paint2_linear_777_5577)"/>
<path d="M83.6614 0.0469777L56.5069 16.1167L40.5708 36.4261L40.7648 55.1011L84 0L83.6614 0.0469777Z" fill="url(#paint3_linear_777_5577)"/>
<path d="M67.2122 9.99341L16.235 17.1088L40.644 43.4329L67.2122 9.99341ZM25.5456 20.4383L56.5068 16.1167L40.5707 36.4262L25.5456 20.4383Z" fill="url(#paint4_linear_777_5577)"/>
<path d="M6.18319 11.9979L5.95374 12.031L6.48465 15.7054L6.7141 15.6723L6.18319 11.9979Z" fill="#FFF9E9"/>
<path d="M7.81028 11.7608L7.58081 11.7939L7.8792 13.8591L8.10867 13.826L7.81028 11.7608Z" fill="#FFF9E9"/>
<path d="M9.43575 11.5264L9.2063 11.5596L9.50469 13.6247L9.73415 13.5916L9.43575 11.5264Z" fill="#FFF9E9"/>
<path d="M11.0617 11.2916L10.8323 11.3247L11.1307 13.3899L11.3601 13.3567L11.0617 11.2916Z" fill="#FFF9E9"/>
<path d="M12.6876 11.0562L12.4581 11.0894L12.7565 13.1545L12.986 13.1214L12.6876 11.0562Z" fill="#FFF9E9"/>
<path d="M14.3113 10.8235L14.0818 10.8567L14.6127 14.5311L14.8422 14.4979L14.3113 10.8235Z" fill="#FFF9E9"/>
<path d="M15.9384 10.587L15.709 10.6201L16.0074 12.6853L16.2368 12.6521L15.9384 10.587Z" fill="#FFF9E9"/>
<path d="M17.5638 10.3521L17.3344 10.3853L17.6327 12.4504L17.8622 12.4173L17.5638 10.3521Z" fill="#FFF9E9"/>
<path d="M19.1901 10.116L18.9607 10.1492L19.2591 12.2143L19.4885 12.1812L19.1901 10.116Z" fill="#FFF9E9"/>
<path d="M20.8156 9.88164L20.5862 9.91479L20.8846 11.98L21.114 11.9468L20.8156 9.88164Z" fill="#FFF9E9"/>
<path d="M22.4393 9.64922L22.2098 9.68237L22.7407 13.3568L22.9702 13.3236L22.4393 9.64922Z" fill="#FFF9E9"/>
<path d="M24.0675 9.41118L23.838 9.44434L24.1364 11.5095L24.3659 11.4763L24.0675 9.41118Z" fill="#FFF9E9"/>
<path d="M25.6955 9.17266L25.4661 9.20581L25.7645 11.271L25.9939 11.2378L25.6955 9.17266Z" fill="#FFF9E9"/>
<path d="M27.3145 8.94707L27.0851 8.98022L27.3835 11.0454L27.6129 11.0122L27.3145 8.94707Z" fill="#FFF9E9"/>
<path d="M28.9437 8.70732L28.7142 8.74048L29.0126 10.8056L29.2421 10.7725L28.9437 8.70732Z" fill="#FFF9E9"/>
<path d="M30.5698 8.47222L30.3403 8.50537L30.8712 12.1798L31.1007 12.1466L30.5698 8.47222Z" fill="#FFF9E9"/>
<path d="M32.195 8.23735L31.9656 8.27051L32.264 10.3357L32.4934 10.3025L32.195 8.23735Z" fill="#FFF9E9"/>
<path d="M33.821 8.00249L33.5916 8.03564L33.8899 10.1008L34.1194 10.0676L33.821 8.00249Z" fill="#FFF9E9"/>
<path d="M35.4431 7.77251L35.2136 7.80566L35.512 9.87082L35.7415 9.83767L35.4431 7.77251Z" fill="#FFF9E9"/>
<path d="M37.0722 7.53276L36.8428 7.56592L37.1412 9.63108L37.3706 9.59792L37.0722 7.53276Z" fill="#FFF9E9"/>
<path d="M38.6966 7.30034L38.4672 7.3335L38.9981 11.0079L39.2275 10.9748L38.6966 7.30034Z" fill="#FFF9E9"/>
<path d="M40.3228 7.06328L40.0934 7.09644L40.3918 9.1616L40.6212 9.12844L40.3228 7.06328Z" fill="#FFF9E9"/>
<path d="M41.9494 6.82744L41.72 6.8606L42.0184 8.92576L42.2478 8.8926L41.9494 6.82744Z" fill="#FFF9E9"/>
<path d="M43.5719 6.59795L43.3424 6.6311L43.6408 8.69626L43.8703 8.66311L43.5719 6.59795Z" fill="#FFF9E9"/>
<path d="M45.2003 6.35845L44.9708 6.3916L45.2692 8.45676L45.4987 8.42361L45.2003 6.35845Z" fill="#FFF9E9"/>
<path d="M46.8266 6.12285L46.5972 6.15601L47.1281 9.83043L47.3575 9.79727L46.8266 6.12285Z" fill="#FFF9E9"/>
<path d="M48.4547 5.88359L48.2252 5.91675L48.5236 7.98191L48.7531 7.94875L48.4547 5.88359Z" fill="#FFF9E9"/>
<path d="M50.0766 5.65459L49.8472 5.68774L50.1456 7.7529L50.375 7.71975L50.0766 5.65459Z" fill="#FFF9E9"/>
<path d="M51.703 5.41875L51.4735 5.4519L51.7719 7.51707L52.0014 7.48392L51.703 5.41875Z" fill="#FFF9E9"/>
<path d="M53.3319 5.17876L53.1024 5.21191L53.4008 7.27707L53.6303 7.24392L53.3319 5.17876Z" fill="#FFF9E9"/>
<path d="M54.9545 4.94854L54.7251 4.98169L55.256 8.6561L55.4855 8.62295L54.9545 4.94854Z" fill="#FFF9E9"/>
<path d="M56.5832 4.70903L56.3538 4.74219L56.6522 6.80735L56.8816 6.77419L56.5832 4.70903Z" fill="#FFF9E9"/>
<path d="M58.2086 4.47393L57.9791 4.50708L58.2775 6.57224L58.507 6.53908L58.2086 4.47393Z" fill="#FFF9E9"/>
<path d="M59.831 4.24443L59.6016 4.27759L59.9 6.34275L60.1294 6.30959L59.831 4.24443Z" fill="#FFF9E9"/>
<path d="M61.4569 4.00933L61.2274 4.04248L61.5258 6.10764L61.7553 6.07449L61.4569 4.00933Z" fill="#FFF9E9"/>
<path d="M63.0832 3.77397L62.8538 3.80713L63.3847 7.48154L63.6141 7.44838L63.0832 3.77397Z" fill="#FFF9E9"/>
<path d="M64.7053 3.54521L64.4758 3.57837L64.7742 5.64353L65.0037 5.61037L64.7053 3.54521Z" fill="#FFF9E9"/>
<path d="M66.3315 3.31011L66.1021 3.34326L66.4004 5.40842L66.6299 5.37527L66.3315 3.31011Z" fill="#FFF9E9"/>
<path d="M67.9601 3.06914L67.7306 3.10229L68.029 5.16745L68.2584 5.1343L67.9601 3.06914Z" fill="#FFF9E9"/>
<path d="M69.5882 2.82866L69.3588 2.86182L69.6572 4.92699L69.8866 4.89383L69.5882 2.82866Z" fill="#FFF9E9"/>
<path d="M71.2119 2.59941L70.9824 2.63257L71.5133 6.30699L71.7428 6.27383L71.2119 2.59941Z" fill="#FFF9E9"/>
<path d="M72.8362 2.36553L72.6067 2.39868L72.9051 4.46384L73.1345 4.43069L72.8362 2.36553Z" fill="#FFF9E9"/>
<path d="M74.4598 2.1353L74.2303 2.16846L74.5287 4.23362L74.7582 4.20046L74.4598 2.1353Z" fill="#FFF9E9"/>
<path d="M76.0884 1.89531L75.8589 1.92847L76.1573 3.99363L76.3867 3.96047L76.0884 1.89531Z" fill="#FFF9E9"/>
<path d="M77.7108 1.66655L77.4813 1.69971L77.7797 3.76487L78.0092 3.73171L77.7108 1.66655Z" fill="#FFF9E9"/>
<path d="M79.3393 1.42607L79.1099 1.45923L79.6408 5.13365L79.8702 5.10049L79.3393 1.42607Z" fill="#FFF9E9"/>
</g>
<defs>
<radialGradient id="paint0_radial_777_5577" cx="0" cy="0" r="1" gradientUnits="userSpaceOnUse" gradientTransform="translate(40.6255 56.9733) scale(36.5225 4.52888)">
<stop stop-color="#FF60A8"/>
<stop offset="0.9948" stop-color="#FFA1CB" stop-opacity="0"/>
</radialGradient>
<linearGradient id="paint1_linear_777_5577" x1="45.6609" y1="-9.2733" x2="30.6805" y2="52.6619" gradientUnits="userSpaceOnUse">
<stop stop-color="#FFA100"/>
<stop offset="0.2238" stop-color="#FFAF00"/>
<stop offset="0.71" stop-color="#FFC900"/>
<stop offset="1" stop-color="#FFD300"/>
</linearGradient>
<linearGradient id="paint2_linear_777_5577" x1="0.000122027" y1="10.2426" x2="83.6614" y2="10.2426" gradientUnits="userSpaceOnUse">
<stop stop-color="#FFA100"/>
<stop offset="0.0914" stop-color="#FFAF00"/>
<stop offset="0.319" stop-color="#FFCB00"/>
<stop offset="0.5472" stop-color="#FFDF00"/>
<stop offset="0.7746" stop-color="#FFEB00"/>
<stop offset="1" stop-color="#FFEF00"/>
</linearGradient>
<linearGradient id="paint3_linear_777_5577" x1="40.571" y1="27.5505" x2="83.9999" y2="27.5505" gradientUnits="userSpaceOnUse">
<stop stop-color="#FFA100"/>
<stop offset="0.0082" stop-color="#FFA200"/>
<stop offset="0.3955" stop-color="#FFBD00"/>
<stop offset="0.7386" stop-color="#FFCD00"/>
<stop offset="1" stop-color="#FFD300"/>
</linearGradient>
<linearGradient id="paint4_linear_777_5577" x1="16.2349" y1="26.7135" x2="67.2123" y2="26.7135" gradientUnits="userSpaceOnUse">
<stop stop-color="#FFAB00"/>
<stop offset="0.0815" stop-color="#FFAF00"/>
<stop offset="0.6569" stop-color="#FFC900"/>
<stop offset="1" stop-color="#FFD300"/>
</linearGradient>
</defs>
</svg>
