<svg width="123" height="86" viewBox="0 0 123 86" fill="none" xmlns="http://www.w3.org/2000/svg">
<path d="M66.9911 73.9493C97.305 68.1702 121.374 60.8354 120.751 57.5665C120.128 54.2976 95.0482 56.3324 64.7343 62.1115C34.4204 67.8906 10.3513 75.2254 10.9744 78.4943C11.5976 81.7632 36.6771 79.7283 66.9911 73.9493Z" fill="url(#paint0_radial_777_5460)"/>
<path d="M14.7299 24.2507L56.3235 19.4749L62.2047 69.3878L24.4303 75.1339L14.7299 24.2507Z" fill="url(#paint1_linear_777_5460)"/>
<path d="M96.7518 8.62235L56.3235 19.4751L69.3027 68.0348L106.452 59.5062L96.7518 8.62235Z" fill="url(#paint2_linear_777_5460)"/>
<path d="M62.0452 68.5512L62.2047 69.3878L69.3027 68.0346L68.7629 65.2027L61.6949 66.7139L62.0452 68.5512Z" fill="#6B0F91"/>
<path d="M19.7201 20.1567L18.0021 23.9066L27.0888 71.5182C27.0888 71.5182 32.064 74.6928 39.8201 71.804C49.6371 68.1478 56.3784 67.4252 62.0446 68.5516C63.0745 67.1438 65.3703 66.9331 65.3703 66.9331C63.583 57.558 56.4278 20.0253 56.4278 20.0253C56.4278 20.0253 24.2384 25.6988 19.7201 20.1567Z" fill="url(#paint3_linear_777_5460)"/>
<path d="M25.9804 22.354C22.9956 22.036 20.703 21.3616 19.7206 20.1562L18.0026 23.9061L27.0893 71.5177L29.7675 68.7324C31.1787 68.2065 32.8131 67.8018 34.5859 67.4907L25.981 22.3538L25.9804 22.354Z" fill="url(#paint4_linear_777_5460)"/>
<path d="M56.0534 18.0582C56.0534 18.0582 52.2431 12.5381 44.8587 12.6482C37.4742 12.7583 33.2736 17.2796 27.0893 19.3243C20.905 21.3685 19.7201 20.1566 19.7201 20.1566L29.7669 68.7322C29.7669 68.7322 33.2699 70.5716 39.8576 68.3675C47.1992 65.9115 57.939 61.64 65.3707 66.9323C62.8317 53.6137 56.0534 18.0582 56.0534 18.0582Z" fill="url(#paint5_linear_777_5460)"/>
<path d="M63.28 62.3888L62.8683 62.1504C58.0578 59.3707 48.3567 59.7067 42.5137 62.8559C36.479 66.1086 31.9601 64.701 31.7709 64.6396L31.6549 64.6017L31.6302 64.482C31.5694 64.1829 25.5214 34.4421 23.4592 24.6082L23.4018 24.3335L23.6817 24.3557C27.6319 24.6722 30.6823 23.1862 34.2142 21.4658C36.5434 20.3317 39.183 19.0458 42.3685 18.1967C50.2289 16.098 54.9822 19.4494 55.0293 19.4835L55.0982 19.5335L55.1129 19.617C55.1651 19.9108 60.3655 49.1399 63.1783 61.9237L63.28 62.3888ZM48.5773 60.3685C53.6137 59.4084 59.2034 59.7767 62.6703 61.5643C59.9132 48.9086 55.0299 21.5424 54.7159 19.7777C54.1183 19.3871 49.6374 16.694 42.477 18.6023C39.3302 19.441 36.8227 20.6622 34.3981 21.8433C30.8936 23.5503 27.8564 25.0301 23.9271 24.794C25.9711 34.5545 31.5881 62.1659 32.0161 64.2734C32.7569 64.4672 36.9686 65.3683 42.3153 62.4875C44.1216 61.513 46.2931 60.804 48.5773 60.3685Z" fill="#D8D8D8"/>
<path d="M28.5143 27.2319C27.1065 27.5003 26.3546 27.4711 26.3376 27.4706L26.3441 27.3306C26.3833 27.3331 30.2594 27.4768 37.0221 23.8729C44.0559 20.1235 51.4501 21.2217 53.7439 22.299L53.6848 22.4253C51.4111 21.3585 44.0755 20.2722 37.0881 23.9959C33.251 26.0407 30.3347 26.8849 28.5143 27.2319Z" fill="#D8D8D8"/>
<path d="M28.9919 29.7368C27.5842 30.0052 26.8322 29.976 26.8153 29.9755L26.8217 29.8355C26.8609 29.838 30.737 29.9817 37.4996 26.3771C44.5334 22.6277 51.9277 23.7266 54.2214 24.8033L54.1623 24.9295C51.8885 23.8622 44.553 22.7765 37.5656 26.5002C33.7286 28.545 30.8123 29.3898 28.9919 29.7368Z" fill="#D8D8D8"/>
<path d="M29.4693 32.2415C28.0615 32.5099 27.3096 32.4807 27.2926 32.4802L27.299 32.3402C27.3383 32.3428 31.2143 32.4864 37.977 28.8819C45.0121 25.1329 52.4064 26.2317 54.6987 27.308L54.6397 27.4343C52.3659 26.3669 45.0309 25.2805 38.0429 29.0049C34.206 31.0504 31.2896 31.8945 29.4693 32.2415Z" fill="#D8D8D8"/>
<path d="M29.9468 34.7461C28.539 35.0144 27.7871 34.9853 27.7701 34.9848L27.7767 34.8454C27.8159 34.8479 31.692 34.9916 38.4546 31.387C45.4898 27.638 52.884 28.7368 55.1764 29.8131L55.1173 29.9394C52.8435 28.8721 45.5085 27.7857 38.5206 31.5101C34.6835 33.5543 31.7672 34.399 29.9468 34.7461Z" fill="#D8D8D8"/>
<path d="M30.4243 37.2507C29.0165 37.519 28.2646 37.4899 28.2476 37.4893L28.2541 37.3494C28.2933 37.3519 32.1693 37.495 38.932 33.891C45.9673 30.1426 53.3613 31.2402 55.6538 32.3171L55.5947 32.4434C53.3209 31.3761 45.9859 30.2897 38.998 34.0141C35.1611 36.0595 32.2447 36.9036 30.4243 37.2507Z" fill="#D8D8D8"/>
<path d="M30.9019 39.7556C29.4941 40.024 28.7421 39.9948 28.7252 39.9943L28.7316 39.8543C28.7708 39.8568 32.6469 40.0005 39.4095 36.3959C46.444 32.6464 53.8388 33.7451 56.1313 34.8221L56.0722 34.9483C53.7986 33.8816 46.4643 32.7957 39.4755 36.519C35.6386 38.5644 32.7222 39.4086 30.9019 39.7556Z" fill="#D8D8D8"/>
<path d="M31.3793 42.2606C29.9716 42.529 29.2196 42.4998 29.2027 42.4993L29.2091 42.3593C29.2483 42.3618 33.1244 42.5055 39.887 38.9009C46.9213 35.1508 54.3162 36.2496 56.6088 37.3271L56.5497 37.4534C54.2759 36.386 46.9418 35.3007 39.953 39.024C36.116 41.0688 33.1997 41.9136 31.3793 42.2606Z" fill="#D8D8D8"/>
<path d="M31.8568 44.7649C30.449 45.0332 29.6971 45.0041 29.6801 45.0036L29.6866 44.8636C29.7258 44.8661 33.6019 45.0098 40.3645 41.4052C47.3989 37.6557 54.7938 38.7544 57.0862 39.8313L57.0272 39.9576C54.7535 38.8909 47.4192 37.805 40.4305 41.5283C36.5935 43.5737 33.6772 44.4178 31.8568 44.7649Z" fill="#D8D8D8"/>
<path d="M32.3345 47.2697C30.9267 47.5381 30.1748 47.509 30.1578 47.5084L30.1642 47.3684C30.2035 47.371 34.0795 47.5147 40.8422 43.9101C47.8766 40.1606 55.2714 41.2593 57.5639 42.3362L57.5048 42.4625C55.2311 41.3951 47.8969 40.3098 40.9081 44.0332C37.0711 46.078 34.1548 46.9227 32.3345 47.2697Z" fill="#D8D8D8"/>
<path d="M32.8118 49.7738C31.404 50.0422 30.6521 50.013 30.6351 50.0125L30.6417 49.8731C30.6809 49.8756 34.557 50.0193 41.3196 46.4148C48.3533 42.6648 55.7477 43.7642 58.0414 44.8409L57.9823 44.9672C55.7085 43.8998 48.3732 42.8147 41.3856 46.5378C37.5486 48.5826 34.6322 49.4268 32.8118 49.7738Z" fill="#D8D8D8"/>
<path d="M33.2893 52.279C31.8815 52.5474 31.1295 52.5182 31.1126 52.5177L31.1191 52.3783C31.1582 52.3803 35.0344 52.5246 41.7971 48.92C48.8308 45.17 56.225 46.2688 58.5188 47.3461L58.4597 47.4724C56.1861 46.4056 48.8506 45.32 41.863 49.0431C38.0259 51.0873 35.1096 51.932 33.2893 52.279Z" fill="#D8D8D8"/>
<path d="M33.7668 54.7836C32.359 55.052 31.6071 55.0228 31.5901 55.0223L31.5965 54.8823C31.6358 54.8848 35.5118 55.0285 42.2746 51.4245C49.3083 47.6745 56.7026 48.774 58.9963 49.8506L58.9373 49.9769C56.6635 48.9096 49.3281 47.8245 42.3405 51.5476C38.5035 53.5924 35.5871 54.4365 33.7668 54.7836Z" fill="#D8D8D8"/>
<path d="M34.2442 57.2886C32.8365 57.5569 32.0845 57.5278 32.0676 57.5273L32.074 57.3873C32.1132 57.3898 35.9893 57.5335 42.752 53.9295C49.7871 50.1799 57.1814 51.2793 59.4738 52.3556L59.4147 52.4819C57.1409 51.4146 49.8061 50.3288 42.818 54.0526C38.9809 56.0968 36.0646 56.9415 34.2442 57.2886Z" fill="#D8D8D8"/>
<path d="M34.7218 59.7928C33.314 60.0612 32.562 60.032 32.5451 60.0315L32.5515 59.8915C32.5907 59.894 36.4668 60.0377 43.2296 56.4338C50.2647 52.6847 57.6588 53.783 59.9513 54.8599L59.8922 54.9862C57.6185 53.9188 50.2835 52.8324 43.2955 56.5568C39.4585 58.6016 36.5421 59.4458 34.7218 59.7928Z" fill="#D8D8D8"/>
<path d="M35.1993 62.2976C33.7915 62.566 33.0396 62.5368 33.0226 62.5363L33.029 62.3963C33.0683 62.3988 36.9443 62.5425 43.7071 58.9385C50.7422 55.1895 58.1365 56.2883 60.4288 57.3647L60.3698 57.4909C58.096 56.4236 50.7611 55.3378 43.773 59.0616C39.9359 61.1058 37.0196 61.9505 35.1993 62.2976Z" fill="#D8D8D8"/>
<g opacity="0.6">
<path d="M62.3689 68.1829C60.9732 67.6951 59.5047 67.4581 58.0399 67.3292C56.5727 67.197 55.094 67.2214 53.6306 67.3685C50.7005 67.6689 47.8649 68.5533 45.058 69.4434C43.6558 69.8989 42.2753 70.4152 40.8994 70.9526C39.5253 71.4896 38.1311 72.0191 36.6734 72.3208C35.2146 72.6364 33.7012 72.6167 32.2401 72.3821C30.7742 72.1459 29.361 71.6908 27.9629 71.2197C29.3733 71.6535 30.7967 72.0703 32.2572 72.2657C33.7117 72.4685 35.2043 72.4708 36.6334 72.1371C38.0657 71.8103 39.4441 71.2831 40.8162 70.739C42.1888 70.1942 43.5737 69.6682 44.9791 69.2034C46.3857 68.7421 47.8083 68.3346 49.2393 67.9618C50.6731 67.5941 52.1333 67.2957 53.6121 67.1701C56.559 66.9252 59.5882 67.1616 62.3689 68.1829Z" fill="#CECECE"/>
<path d="M62.6471 67.4524C61.2734 66.9717 59.828 66.7347 58.3862 66.6051C56.942 66.4722 55.4862 66.4823 54.0454 66.6269C51.1577 66.8968 48.3645 67.7612 45.5946 68.6224C44.2098 69.0577 42.8428 69.5464 41.484 70.0618C40.1248 70.5722 38.7627 71.1094 37.3408 71.4548C35.9264 71.8232 34.4437 71.964 32.9889 71.8057C31.5306 71.6549 30.1336 71.2061 28.7583 70.7432C30.1464 71.168 31.5531 71.5762 33.0004 71.6853C34.4431 71.8135 35.8996 71.6564 37.2923 71.2691C38.6923 70.8978 40.0431 70.3665 41.4015 69.8456C42.7588 69.3224 44.129 68.8237 45.517 68.3796C48.2955 67.5336 51.1047 66.6649 54.0278 66.4296C56.93 66.1995 59.9103 66.4483 62.6471 67.4524Z" fill="#CECECE"/>
<path d="M63.5005 67.1058C62.1249 66.6048 60.6803 66.3264 59.2326 66.1592C57.7839 65.9897 56.3203 65.9555 54.8676 66.0606C51.9502 66.2273 49.1447 67.1216 46.3346 67.9136C44.9299 68.3164 43.5336 68.7464 42.1422 69.196C40.7501 69.6421 39.3545 70.0988 37.9241 70.429C36.4949 70.7684 35.023 70.9502 33.5537 70.9021C32.0849 70.8508 30.631 70.5723 29.2435 70.1111C32.0449 70.9785 35.0641 70.9786 37.8776 70.241C39.292 69.8825 40.6804 69.4335 42.0702 68.976C43.4602 68.5191 44.8572 68.079 46.2631 67.6697C47.671 67.2675 49.0831 66.8839 50.5034 66.5269C51.9291 66.1689 53.3888 65.9499 54.8546 65.868C57.7818 65.7132 60.7632 66.0593 63.5005 67.1058Z" fill="#CECECE"/>
<path d="M64.5652 66.9032C63.2064 66.294 61.7628 65.8928 60.3051 65.6175C58.8462 65.3424 57.3618 65.2054 55.8792 65.2224C54.397 65.238 52.918 65.4087 51.4702 65.7197C50.0291 66.0526 48.5924 66.4678 47.1626 66.8697C45.7322 67.2787 44.3073 67.7035 42.8908 68.1586C41.4731 68.6082 40.0592 69.0872 38.6095 69.4504C37.1653 69.8226 35.6729 70.0671 34.1749 70.0427C32.6758 70.0222 31.1993 69.7073 29.7898 69.2322C31.2129 69.6672 32.6915 69.9342 34.1753 69.9138C35.6598 69.9134 37.1277 69.6485 38.5578 69.2546C39.9922 68.8699 41.4016 68.3968 42.8181 67.9349C44.2351 67.4753 45.6586 67.0302 47.0936 66.6291C48.532 66.233 49.9602 65.8288 51.4218 65.4983C52.8855 65.1886 54.382 65.0252 55.8776 65.037C58.8635 65.0529 61.8647 65.6403 64.5652 66.9032Z" fill="#CECECE"/>
</g>
<path d="M90.6104 6.64176L93.5875 9.49656L102.655 57.1118C102.655 57.1118 99.1966 61.8942 90.9217 62.0615C80.4482 62.2736 73.9138 64.0819 69.0595 67.2139C67.5845 66.2837 65.3716 66.9324 65.3716 66.9324C63.5843 57.5574 56.429 20.0247 56.429 20.0247C56.429 20.0247 88.4486 13.4573 90.6104 6.64176Z" fill="url(#paint6_linear_777_5460)"/>
<path d="M85.5982 10.9884C88.2566 9.59457 90.1403 8.12405 90.6104 6.64174L93.5874 9.49655L102.655 57.1118L99.1397 55.5072C97.634 55.5374 95.9654 55.7623 94.2025 56.1253L85.5982 10.9884Z" fill="url(#paint7_linear_777_5460)"/>
<path d="M56.0534 18.0581C56.0534 18.0581 57.5655 11.5233 64.4725 8.90885C71.3795 6.29441 76.949 8.95317 83.4518 8.57922C89.9544 8.20468 90.6098 6.64204 90.6098 6.64204L99.139 55.5069C99.139 55.5069 96.5585 58.5061 89.6219 58.8802C81.8916 59.2976 70.3336 59.2769 65.3702 66.9322C62.8317 53.6136 56.0534 18.0581 56.0534 18.0581Z" fill="url(#paint8_linear_777_5460)"/>
<path d="M66.3685 61.3154C64.2806 48.3928 58.3626 19.3011 58.3031 19.0086L58.286 18.9256L58.3317 18.8538C58.363 18.8047 61.5492 13.9398 69.6305 12.9993C72.9055 12.6168 75.8331 12.8413 78.4161 13.039C82.3333 13.3392 85.7165 13.5994 89.2732 11.8512L89.5252 11.7275L89.573 12.0041C91.2733 21.907 96.5915 51.7869 96.645 52.0873L96.6661 52.2077L96.5722 52.2856C96.4188 52.4124 92.7347 55.3838 85.9267 54.5795C79.3348 53.8009 70.1905 57.0575 66.7401 61.4121L66.4449 61.7853L66.3685 61.3154ZM85.9754 54.1633C92.007 54.8749 95.5925 52.488 96.2093 52.0348C95.8325 49.9175 90.8965 22.1763 89.2061 12.3484C85.6392 14.0135 82.2707 13.755 78.384 13.457C75.6949 13.2508 72.9139 13.0378 69.6792 13.4156C62.319 14.2756 59.1432 18.4284 58.7312 19.0114C59.0885 20.7679 64.6154 48.0114 66.7084 60.7937C69.2745 57.856 74.336 55.4571 79.3731 54.4968C81.6574 54.062 83.9374 53.9224 85.9754 54.1633Z" fill="#D8D8D8"/>
<path d="M85.8376 16.3036C87.2454 16.0353 87.9338 15.7315 87.9494 15.7248L87.8919 15.597C87.8564 15.6137 84.305 17.1734 76.6907 16.3103C68.7708 15.4117 62.2993 19.1533 60.5627 20.9989L60.6641 21.0946C62.3858 19.2662 68.8073 15.5572 76.6746 16.449C80.9948 16.9387 84.0172 16.6507 85.8376 16.3036Z" fill="#D8D8D8"/>
<path d="M86.3151 18.8085C87.7229 18.5401 88.4113 18.2364 88.4269 18.2297L88.3694 18.1018C88.3339 18.1186 84.7825 19.6783 77.1681 18.8146C69.2482 17.916 62.7768 21.6582 61.0401 23.5032L61.1415 23.5989C62.8631 21.7698 69.2847 18.0615 77.152 18.9533C81.4722 19.443 84.4947 19.1556 86.3151 18.8085Z" fill="#D8D8D8"/>
<path d="M86.7926 21.3128C88.2004 21.0444 88.8888 20.7406 88.9044 20.7339L88.8469 20.6061C88.8113 20.6229 85.26 22.1825 77.6455 21.3188C69.7245 20.4211 63.2532 24.1632 61.5176 26.0075L61.619 26.1031C63.3406 24.2741 69.7614 20.5653 77.6295 21.4575C81.9498 21.9478 84.9722 21.6598 86.7926 21.3128Z" fill="#D8D8D8"/>
<path d="M87.2701 23.8178C88.6779 23.5494 89.3663 23.2456 89.3819 23.2389L89.3246 23.1117C89.289 23.1285 85.7377 24.6882 78.1232 23.8244C70.2022 22.9267 63.7308 26.6689 61.9952 28.5131L62.0966 28.6088C63.8182 26.7797 70.2391 23.0709 78.1071 23.9632C82.4272 24.4523 85.4498 24.1648 87.2701 23.8178Z" fill="#D8D8D8"/>
<path d="M87.7476 26.3222C89.1554 26.0538 89.8438 25.75 89.8594 25.7433L89.8019 25.6155C89.7664 25.6322 86.2149 27.1913 78.6006 26.3282C70.6797 25.431 64.2081 29.172 62.4726 31.0168L62.574 31.1125C64.2956 29.2835 70.7165 25.5747 78.5845 26.4669C82.9049 26.9572 85.9273 26.6692 87.7476 26.3222Z" fill="#D8D8D8"/>
<path d="M88.2251 28.8273C89.6329 28.5589 90.3214 28.2552 90.337 28.2484L90.2795 28.1206C90.2439 28.1374 86.6926 29.6971 79.0781 28.8334C71.1576 27.9349 64.6856 31.6772 62.9502 33.522L63.0515 33.6177C64.7733 31.7892 71.1936 28.0812 79.062 28.9721C83.3824 29.4624 86.4048 29.1744 88.2251 28.8273Z" fill="#D8D8D8"/>
<path d="M88.7026 31.3323C90.1104 31.064 90.7989 30.7602 90.8144 30.7535L90.7569 30.6257C90.7214 30.6424 87.1701 32.2021 79.5556 31.3384C71.635 30.4393 65.163 34.1816 63.4276 36.027L63.529 36.1227C65.2506 34.2937 71.6711 30.5862 79.5395 31.4771C83.8597 31.9668 86.8823 31.6794 88.7026 31.3323Z" fill="#D8D8D8"/>
<path d="M89.1801 33.8366C90.5879 33.5682 91.2763 33.2644 91.2919 33.2577L91.2344 33.1299C91.1989 33.1467 87.6475 34.7064 80.0331 33.8427C72.1125 32.9442 65.6406 36.6865 63.9051 38.5313L64.0065 38.627C65.7282 36.7985 72.1486 33.0904 80.017 33.9814C84.3373 34.4717 87.3597 34.1836 89.1801 33.8366Z" fill="#D8D8D8"/>
<path d="M89.6576 36.3417C91.0654 36.0733 91.7539 35.7696 91.7695 35.7629L91.712 35.635C91.6764 35.6518 88.1251 37.2115 80.5106 36.3478C72.5901 35.4493 66.1181 39.1916 64.3826 41.0364L64.484 41.1321C66.2056 39.303 72.6261 35.5956 80.4945 36.4865C84.8147 36.9762 87.8373 36.6888 89.6576 36.3417Z" fill="#D8D8D8"/>
<path d="M90.135 38.846C91.5428 38.5776 92.2312 38.2739 92.2468 38.2672L92.1894 38.1399C92.1539 38.1567 88.6025 39.7164 80.9881 38.8527C73.068 37.9535 66.5968 41.6963 64.8601 43.5413L64.9615 43.637C66.6831 41.8079 73.1048 38.1002 80.972 38.9914C85.2922 39.4811 88.3146 39.1931 90.135 38.846Z" fill="#D8D8D8"/>
<path d="M90.6127 41.3508C92.0205 41.0824 92.7089 40.7786 92.7245 40.7719L92.6671 40.6447C92.6314 40.6609 89.0802 42.2211 81.4658 41.3574C73.5457 40.4582 67.0744 44.2004 65.3378 46.0461L65.4392 46.1417C67.1609 44.3133 73.5825 40.605 81.4497 41.4961C85.7698 41.9852 88.7923 41.6978 90.6127 41.3508Z" fill="#D8D8D8"/>
<path d="M91.0901 43.8553C92.4979 43.5869 93.1863 43.2832 93.2019 43.2764L93.1444 43.1486C93.1088 43.1654 89.5575 44.7251 81.9431 43.862C74.0231 42.9627 67.5519 46.7055 65.8152 48.5506L65.9166 48.6463C67.6382 46.8172 74.0599 43.1095 81.9271 44.0007C86.2473 44.4904 89.2697 44.2023 91.0901 43.8553Z" fill="#D8D8D8"/>
<path d="M91.5676 46.3598C92.9754 46.0914 93.6639 45.7877 93.6795 45.7809L93.622 45.6531C93.5864 45.6699 90.0351 47.2296 82.4207 46.3665C74.4996 45.4681 68.0284 49.2109 66.2928 51.0551L66.3942 51.1508C68.1158 49.3217 74.5367 45.6135 82.4047 46.5052C86.7248 46.9943 89.7473 46.7068 91.5676 46.3598Z" fill="#D8D8D8"/>
<path d="M92.045 48.8645C93.4528 48.5962 94.1413 48.2924 94.1569 48.2857L94.0994 48.1579C94.0638 48.1746 90.5125 49.7343 82.8981 48.8712C74.9771 47.9734 68.5056 51.715 66.7702 53.5598L66.8716 53.6555C68.5932 51.8265 75.014 48.1177 82.8821 49.0099C87.2023 49.4996 90.2247 49.2116 92.045 48.8645Z" fill="#D8D8D8"/>
<path d="M92.5226 51.3693C93.9303 51.1009 94.6188 50.7972 94.6344 50.7904L94.5769 50.6626C94.5413 50.6794 90.99 52.2391 83.3756 51.376C75.4546 50.4782 68.9833 54.2204 67.2477 56.0646L67.3491 56.1603C69.0707 54.3312 75.4916 50.623 83.3596 51.5147C87.6797 52.0038 90.7022 51.7163 92.5226 51.3693Z" fill="#D8D8D8"/>
<g opacity="0.6">
<path d="M68.6231 66.9904C69.7414 66.0234 71.0197 65.2627 72.3343 64.6039C73.65 63.9411 75.034 63.4198 76.4489 63.0181C79.2839 62.2195 82.246 61.9986 85.1836 61.7936C86.6549 61.7013 88.1286 61.6735 89.6057 61.6669C91.081 61.6607 92.5723 61.6402 94.0387 61.3844C95.5113 61.1412 96.9113 60.5661 98.1836 59.8104C99.4598 59.0514 100.606 58.1083 101.733 57.1559C100.581 58.0781 99.4111 58.9894 98.1248 59.7084C96.847 60.4321 95.46 60.9834 94.0084 61.1989C92.5563 61.422 91.0806 61.4389 89.6051 61.4376C88.1283 61.436 86.647 61.4565 85.1693 61.5413C83.6915 61.6299 82.2189 61.7744 80.7511 61.9542C79.2825 62.1398 77.8155 62.3994 76.3937 62.8268C73.5622 63.6835 70.833 65.0176 68.6231 66.9904Z" fill="#CECECE"/>
<path d="M68.0954 66.4134C69.1959 65.461 70.4521 64.7089 71.7457 64.0579C73.0398 63.403 74.3972 62.8767 75.7901 62.4811C78.5746 61.6696 81.4904 61.4457 84.3824 61.2275C85.8307 61.1227 87.2811 61.0743 88.7342 61.0536C90.1858 61.0282 91.6501 61.0265 93.0993 60.8247C94.55 60.6469 95.9806 60.2322 97.275 59.5498C98.5756 58.873 99.7095 57.9417 100.818 57.0053C99.6836 57.911 98.5257 58.8081 97.2201 59.4421C95.9257 60.0921 94.5136 60.4819 93.0761 60.634C91.6377 60.8039 90.1861 60.8068 88.7314 60.8222C87.2768 60.8351 85.8192 60.8755 84.3658 60.9732C81.4709 61.2087 78.5391 61.4345 75.7345 62.2911C72.95 63.1451 70.2702 64.473 68.0954 66.4134Z" fill="#CECECE"/>
<path d="M67.1744 66.4053C68.2693 65.4333 69.5101 64.643 70.7947 63.9549C72.0795 63.2642 73.4279 62.694 74.8173 62.2572C77.5914 61.3389 80.5292 61.1383 83.4336 60.8409C84.8879 60.6987 86.3445 60.5847 87.8037 60.491C89.2622 60.3936 90.728 60.3048 92.1796 60.0856C93.6335 59.8753 95.0689 59.5029 96.4176 58.9176C97.7644 58.3295 99.0139 57.5356 100.134 56.5963C97.8486 58.4335 95.0412 59.5444 92.1536 59.8936C90.7066 60.0807 89.2504 60.1739 87.7897 60.2599C86.3291 60.3464 84.8682 60.4511 83.4103 60.5878C81.9532 60.7318 80.499 60.8946 79.0464 61.0853C77.589 61.2769 76.1511 61.6104 74.7579 62.0735C71.9791 63.0065 69.3348 64.4251 67.1744 66.4053Z" fill="#CECECE"/>
<path d="M66.1097 66.6083C67.1491 65.5419 68.3438 64.6378 69.598 63.8455C70.8533 63.053 72.1832 62.3794 73.5681 61.8497C74.9521 61.3189 76.3901 60.9335 77.8508 60.6901C79.3133 60.4694 80.802 60.3268 82.2788 60.1747C83.7593 60.0287 85.2405 59.8995 86.7252 59.8015C88.2088 59.698 89.7004 59.6231 91.1814 59.4276C92.6613 59.2424 94.139 58.9207 95.5229 58.3468C96.9093 57.7762 98.1664 56.9402 99.3017 55.9799C98.1384 56.9081 96.8617 57.7003 95.4745 58.2273C94.0939 58.773 92.6316 59.0668 91.1569 59.2267C89.6822 59.3965 88.197 59.4753 86.7098 59.5669C85.2232 59.6609 83.7358 59.7707 82.2538 59.9257C80.7705 60.0866 79.2939 60.2362 77.8132 60.4666C76.3382 60.7171 74.8865 61.1158 73.5002 61.677C70.7307 62.7901 68.1562 64.4404 66.1097 66.6083Z" fill="#CECECE"/>
</g>
<path d="M54.2649 16.1456C54.2649 16.1456 56.7311 19.019 57.0303 26.4905C57.3296 33.9621 60.996 52.3808 62.9232 58.2899C64.8505 64.199 65.1462 75.738 65.1462 75.738L67.3477 73.0686L69.661 74.8773C69.661 74.8773 68.8708 64.1652 66.1693 56.3096C63.4678 48.4541 61.0489 37.3198 60.081 29.1969C59.1132 21.074 57.377 16.0592 57.013 15.6217C56.6489 15.1841 54.2649 16.1456 54.2649 16.1456Z" fill="url(#paint9_linear_777_5460)"/>
<defs>
<radialGradient id="paint0_radial_777_5460" cx="0" cy="0" r="1" gradientUnits="userSpaceOnUse" gradientTransform="translate(65.8595 68.0146) rotate(-10.7934) scale(55.5833 5.80704)">
<stop stop-color="#FF60A8"/>
<stop offset="0.9948" stop-color="#FFA1CB" stop-opacity="0"/>
</radialGradient>
<linearGradient id="paint1_linear_777_5460" x1="19.7137" y1="50.3945" x2="60.7277" y2="42.5755" gradientUnits="userSpaceOnUse">
<stop stop-color="#DD4DFB"/>
<stop offset="1" stop-color="#900ABD"/>
</linearGradient>
<linearGradient id="paint2_linear_777_5460" x1="101.735" y1="34.7623" x2="60.7284" y2="42.5798" gradientUnits="userSpaceOnUse">
<stop stop-color="#900ABD"/>
<stop offset="1" stop-color="#DD4DFB"/>
</linearGradient>
<linearGradient id="paint3_linear_777_5460" x1="22.566" y1="47.8459" x2="60.3588" y2="40.641" gradientUnits="userSpaceOnUse">
<stop offset="0.0026" stop-color="#ECECEC"/>
<stop offset="0.2482" stop-color="#E3E3E3"/>
<stop offset="0.6475" stop-color="#CBCBCB"/>
<stop offset="1" stop-color="#B0B0B0"/>
</linearGradient>
<linearGradient id="paint4_linear_777_5460" x1="30.9983" y1="71.0659" x2="21.6979" y2="20.9191" gradientUnits="userSpaceOnUse">
<stop stop-color="#E0E0E0"/>
<stop offset="0.194" stop-color="#E3E3E3"/>
<stop offset="0.9974" stop-color="#ECECEC"/>
</linearGradient>
<linearGradient id="paint5_linear_777_5460" x1="24.5483" y1="45.4817" x2="59.9934" y2="38.7245" gradientUnits="userSpaceOnUse">
<stop offset="0.2667" stop-color="white"/>
<stop offset="0.4821" stop-color="#F8F8F8"/>
<stop offset="1" stop-color="#EBEBEB"/>
</linearGradient>
<linearGradient id="paint6_linear_777_5460" x1="98.1516" y1="33.4358" x2="60.3588" y2="40.6406" gradientUnits="userSpaceOnUse">
<stop offset="0.0026" stop-color="#C9C9C9"/>
<stop offset="0.4706" stop-color="#C0C0C0"/>
<stop offset="1" stop-color="#B0B0B0"/>
</linearGradient>
<linearGradient id="paint7_linear_777_5460" x1="98.8536" y1="58.1299" x2="89.0522" y2="8.07858" gradientUnits="userSpaceOnUse">
<stop stop-color="#E0E0E0"/>
<stop offset="0.6436" stop-color="#C4C4C4"/>
</linearGradient>
<linearGradient id="paint8_linear_777_5460" x1="95.4386" y1="31.967" x2="59.9934" y2="38.7243" gradientUnits="userSpaceOnUse">
<stop stop-color="#EBEBEB"/>
<stop offset="0.5179" stop-color="#F8F8F8"/>
<stop offset="0.7333" stop-color="white"/>
</linearGradient>
<linearGradient id="paint9_linear_777_5460" x1="67.6789" y1="75.2551" x2="56.2935" y2="15.5334" gradientUnits="userSpaceOnUse">
<stop stop-color="#FFD300"/>
<stop offset="0.29" stop-color="#FFC900"/>
<stop offset="0.7762" stop-color="#FFAF00"/>
<stop offset="1" stop-color="#FFA100"/>
</linearGradient>
</defs>
</svg>
