<svg width="197" height="80" viewBox="0 0 197 80" fill="none" xmlns="http://www.w3.org/2000/svg">
<path d="M96.8261 0C107.565 0 116.271 8.70621 116.271 19.4453V60.1572L118.063 58.7812L160.797 32.5312C171.839 25.7484 186.285 29.1414 193.153 40.1309C200.775 52.3269 195.806 68.447 182.64 74.2344L126.122 99.0771L116.271 103.525V105.137L119.853 107.455L125.225 110.141L170.069 129.612C181.812 134.711 185.567 149.532 177.67 159.607C171.712 167.208 161.097 169.32 152.684 164.578L118.062 145.063L116.022 144.044L112.917 176.14C111.772 187.972 101.829 197 89.9414 197C76.5748 197 66.002 185.682 66.9111 172.347L70.1719 124.511C69.6228 124.828 69.0838 125.164 68.5556 125.516L27.4394 152.926C21.1291 157.133 12.8363 156.837 6.84178 152.191C-4.24174 143.602 -1.36211 126.14 11.8926 121.563L48.7607 108.835L12.456 82.0293C4.59142 76.2222 2.38443 65.4113 7.34373 56.9863C12.9461 47.4691 25.4316 44.6767 34.5547 50.9004L72.8867 77.0508L73.3857 77.374L77.4267 18.1221C78.1224 7.9202 86.6006 0.000198357 96.8261 0Z" fill="#FFCEE4"/>
</svg>
