<svg width="169" height="113" viewBox="0 0 169 113" fill="none" xmlns="http://www.w3.org/2000/svg">
<path d="M44.1448 88.4303C41.9843 89.2308 39.9527 89.6423 38.05 89.6648C36.1724 89.6324 34.4593 89.0614 32.9106 87.9516C31.3871 86.7871 30.0687 84.8867 28.9555 82.2506L20.2573 61.7218L25.1183 59.9207L33.4163 79.3693C34.2331 81.2052 35.0994 82.4995 36.0153 83.2522C36.9164 83.9649 37.9263 84.2959 39.0451 84.2454C40.1891 84.1401 41.4813 83.8206 42.9216 83.2869C43.7618 82.9756 44.4508 82.9933 44.9888 83.34C45.5519 83.6318 45.9521 84.0978 46.1893 84.738C46.4265 85.3781 46.3688 86.082 46.0162 86.8497C45.6488 87.5773 45.025 88.1042 44.1448 88.4303ZM32.6369 85.1865C30.6232 86.7516 28.5361 87.9344 26.3757 88.7349C24.2152 89.5354 22.1362 89.9417 20.1386 89.9538C18.141 89.9659 16.3998 89.5645 14.9148 88.7497C13.4151 87.8948 12.3465 86.6072 11.7091 84.8868C11.0865 83.2065 10.921 81.4705 11.2127 79.6788C11.5444 77.8724 12.2355 76.1148 13.2859 74.4061C14.3764 72.6825 15.761 71.0775 17.4397 69.5909C19.1437 68.0496 21.064 66.7238 23.2008 65.6136L25.9088 70.3434C23.938 71.1646 22.2613 72.1043 20.8789 73.1626C19.5216 74.166 18.4363 75.2279 17.6229 76.3483C16.8495 77.4538 16.3384 78.5305 16.0895 79.5782C15.8407 80.6259 15.8645 81.5499 16.161 82.35C16.4871 83.2302 17.074 83.8318 17.9217 84.1547C18.7694 84.4777 19.7526 84.6139 20.8714 84.5634C21.9754 84.4728 23.1424 84.2452 24.3723 83.8805C25.5874 83.4758 26.7328 83.0059 27.8086 82.4708C28.8695 81.8957 29.7482 81.3199 30.4446 80.7434L32.6369 85.1865ZM19.6806 54.0865C18.8404 54.3978 18.0165 54.3846 17.2088 54.0468C16.4263 53.6542 15.8869 53.0579 15.5904 52.2577C15.2939 51.4575 15.3146 50.6536 15.6523 49.8459C16.0301 49.0234 16.6391 48.4565 17.4793 48.1452C18.2794 47.8488 19.0708 47.8968 19.8532 48.2894C20.6757 48.6672 21.2352 49.2562 21.5317 50.0563C21.8282 50.8565 21.7875 51.6679 21.4097 52.4903C21.0572 53.258 20.4808 53.7901 19.6806 54.0865ZM11.4588 57.1328C10.6186 57.4441 9.79469 57.4309 8.98703 57.0931C8.20455 56.7005 7.66507 56.1042 7.36859 55.304C7.07212 54.5038 7.09276 53.6999 7.43053 52.8922C7.8083 52.0697 8.41728 51.5028 9.25746 51.1915C10.0576 50.8951 10.849 50.9431 11.6314 51.3357C12.4539 51.7135 13.0134 52.3025 13.3099 53.1026C13.6064 53.9028 13.5657 54.7141 13.1879 55.5366C12.8354 56.3043 12.259 56.8364 11.4588 57.1328ZM44.1645 88.423L42.9413 83.2796C44.9417 82.5384 46.4502 81.8203 47.4666 81.1251C48.4683 80.39 49.0935 79.4986 49.3424 78.4508C49.6164 77.3483 49.6295 75.9101 49.3818 74.1364C49.1341 72.3626 48.7811 70.0591 48.3229 67.2258L53.3374 66.3916C53.4442 67.171 53.5607 68.0379 53.6868 68.9922C53.8128 69.9465 53.9589 70.8934 54.125 71.8329C54.3163 72.7176 54.5305 73.48 54.7677 74.1201C54.99 74.7202 55.2376 75.2655 55.5103 75.756C55.783 76.2465 56.2462 76.5754 56.8997 76.7428C57.5532 76.9101 58.5446 76.8841 59.8738 76.6646C61.1882 76.4051 63.0056 75.8455 65.3262 74.9857C66.1663 74.6744 66.8554 74.6921 67.3934 75.0388C67.9565 75.3306 68.3567 75.7966 68.5939 76.4368C68.8311 77.0769 68.7733 77.7808 68.4208 78.5485C68.0533 79.2761 67.4295 79.803 66.5494 80.1291C64.1088 81.0334 62.1239 81.6323 60.5947 81.9259C59.0506 82.1795 57.8021 82.1871 56.8492 81.9486C55.9364 81.6953 55.1791 81.2479 54.5773 80.6063C54.0008 79.9099 53.4398 79.0712 52.8944 78.0903L54.7392 77.5433C54.5734 79.0607 54.2587 80.3604 53.795 81.4422C53.3713 82.5092 52.7609 83.4406 51.9638 84.2365C51.1666 85.0324 50.1176 85.7623 48.8166 86.4264C47.5556 87.0756 46.0049 87.7411 44.1645 88.423ZM63.4903 94.1621C62.6501 94.4734 61.8188 94.4402 60.9963 94.0624C60.2287 93.7098 59.6966 93.1334 59.4001 92.3333C59.1036 91.5331 59.1243 90.7292 59.462 89.9215C59.8398 89.099 60.4488 88.5321 61.289 88.2208C62.0892 87.9243 62.8805 87.9724 63.663 88.365C64.4855 88.7428 65.0449 89.3317 65.3414 90.1319C65.6379 90.9321 65.5898 91.7234 65.1972 92.5059C64.8595 93.3136 64.2905 93.8656 63.4903 94.1621ZM55.2685 97.2084C54.4283 97.5197 53.597 97.4865 52.7745 97.1087C52.0069 96.7561 51.4748 96.1797 51.1783 95.3795C50.8818 94.5794 50.9025 93.7755 51.2403 92.9678C51.618 92.1453 52.227 91.5784 53.0672 91.2671C53.8674 90.9706 54.6587 91.0187 55.4412 91.4113C56.2637 91.7891 56.8231 92.378 57.1196 93.1782C57.4161 93.9784 57.368 94.7697 56.9754 95.5522C56.6377 96.3599 56.0687 96.9119 55.2685 97.2084ZM66.5522 80.1281L65.329 74.9846C67.2894 74.2583 68.8053 73.5601 69.8766 72.8902C70.9479 72.2202 71.6102 71.4288 71.8635 70.516C72.1019 69.5631 71.9469 68.3465 71.3984 66.8662C71.0278 65.8659 70.4305 64.745 69.6064 63.5033C68.7675 62.2216 67.7989 60.8969 66.7007 59.5292C65.6025 58.1616 64.4716 56.8288 63.3082 55.5308L67.5022 51.9294C68.4967 53.0169 69.5178 54.2994 70.5657 55.7767C71.6536 57.2391 72.654 58.7112 73.5671 60.193C74.4801 61.6748 75.1589 63.0158 75.6037 64.216C76.1966 65.8164 76.5428 67.3034 76.6423 68.6771C76.7669 69.9959 76.6522 71.2215 76.2982 72.3537C75.9294 73.4458 75.3086 74.4721 74.4359 75.4325C73.5884 76.338 72.5163 77.1902 71.2198 77.9891C69.9084 78.748 68.3526 79.461 66.5522 80.1281ZM77.1094 88.9113C76.2692 89.2226 75.4379 89.1893 74.6154 88.8116C73.8478 88.459 73.3157 87.8826 73.0192 87.0824C72.7227 86.2822 72.7434 85.4783 73.0811 84.6707C73.4589 83.8482 74.0679 83.2813 74.9081 82.97C75.7083 82.6735 76.4996 82.7216 77.2821 83.1142C78.1045 83.4919 78.664 84.0809 78.9605 84.8811C79.257 85.6813 79.2089 86.4726 78.8163 87.2551C78.4786 88.0627 77.9096 88.6148 77.1094 88.9113ZM87.9565 87.6906L84.5262 83.7744C87.0911 81.7321 89.104 79.735 90.5649 77.7832C92.0657 75.8165 93.1169 73.9255 93.7183 72.1102C94.3597 70.28 94.6537 68.5558 94.6001 66.9376C94.5317 65.2794 94.2455 63.7701 93.7415 62.4098C93.0152 60.4494 91.8413 58.632 90.2199 56.9577C88.6237 55.2286 86.972 53.6565 85.2647 52.2415L88.8229 48.3978C90.1019 49.5165 91.2735 50.6522 92.3376 51.805C93.4417 52.9429 94.4362 54.0305 95.321 55.0677C96.2458 56.09 97.0336 57.0495 97.6842 57.9459C98.8818 59.4587 100.039 60.3722 101.157 60.6862C102.299 60.9454 103.651 60.7859 105.211 60.2078C106.051 59.8965 106.74 59.9142 107.278 60.2609C107.841 60.5527 108.241 61.0187 108.479 61.6589C108.716 62.299 108.658 63.0029 108.306 63.7706C107.938 64.4982 107.314 65.0251 106.434 65.3512C104.674 66.0035 103.122 66.237 101.78 66.052C100.462 65.8121 99.3382 65.2958 98.4075 64.5031C97.4619 63.6704 96.6816 62.731 96.0665 61.6849L98.3872 62.0536C99.3655 64.6942 99.6548 67.317 99.2551 69.9222C98.9101 72.5526 98.1139 75.0089 96.8665 77.2911C95.6338 79.6134 94.21 81.6652 92.595 83.4467C90.98 85.2281 89.4338 86.6427 87.9565 87.6906ZM106.463 65.3404L105.24 60.197C107.641 59.3076 109.82 58.25 111.777 57.0242C113.719 55.7585 115.43 54.4194 116.909 53.007C118.413 51.5397 119.62 50.0688 120.529 48.5942C121.424 47.0796 122.012 45.6562 122.291 44.324C122.597 42.9369 122.549 41.7032 122.149 40.623C121.956 40.1029 121.583 39.6495 121.03 39.2628C120.463 38.8361 119.672 38.6057 118.659 38.5718C117.685 38.523 116.478 38.7654 115.038 39.2991C114.158 39.6252 113.222 40.1084 112.231 40.7487C111.239 41.389 110.325 42.1145 109.488 42.9252C108.676 43.6811 108.046 44.4377 107.599 45.1949C109.005 45.6749 110.324 46.1645 111.556 46.6637C112.827 47.1481 114.148 47.7052 115.519 48.3348C116.875 48.9244 118.363 49.6244 119.983 50.4348C121.155 50.774 122.39 50.9761 123.688 51.0411C125.026 51.0913 126.415 51.0319 127.854 50.8628C129.318 50.6388 130.78 50.3474 132.239 49.9887C133.684 49.5898 135.107 49.131 136.507 48.6122C137.347 48.3009 138.036 48.3186 138.574 48.6653C139.137 48.9571 139.537 49.4231 139.775 50.0633C140.012 50.7034 139.954 51.4073 139.601 52.175C139.234 52.9026 138.61 53.4295 137.73 53.7556C135.53 54.5709 133.195 55.2084 130.726 55.6681C128.283 56.073 125.905 56.2259 123.593 56.1269C121.267 55.9879 119.159 55.5177 117.269 54.7162C116.263 54.0881 115.177 53.4895 114.01 52.9206C112.844 52.3517 111.598 51.8125 110.271 51.3029C108.97 50.7385 107.611 50.2637 106.195 49.8786C105.88 49.7675 105.507 49.4964 105.074 49.0652C104.641 48.634 104.241 48.168 103.874 47.6672C103.506 47.1664 103.27 46.7759 103.167 46.4959C102.944 45.8957 103.058 45.0347 103.506 43.9129C103.955 42.7911 104.679 41.6129 105.678 40.3784C106.661 39.1038 107.877 37.9026 109.325 36.7747C110.772 35.6468 112.376 34.7568 114.137 34.1045C116.417 33.2596 118.384 32.9177 120.036 33.079C121.728 33.2255 123.095 33.7203 124.135 34.5634C125.201 35.3516 125.956 36.3458 126.401 37.5461C127.053 39.3065 127.265 41.2299 127.037 43.3164C126.794 45.3629 126.134 47.4502 125.057 49.5783C123.98 51.7065 122.564 53.7783 120.808 55.7939C119.037 57.7694 116.938 59.5939 114.509 61.2672C112.106 62.8857 109.424 64.2435 106.463 65.3404ZM137.759 53.7449L136.476 48.6237C138.756 47.7787 140.275 46.9657 141.032 46.1847C141.79 45.4036 142.021 44.4307 141.726 43.266C141.47 42.0865 140.932 40.5113 140.111 38.5405L127.653 8.41633L132.514 6.61523L144.832 36.1771C145.698 38.2679 146.314 40.1779 146.682 41.9072C147.09 43.6217 147.081 45.1947 146.656 46.6263C146.271 48.043 145.362 49.3353 143.929 50.5032C142.536 51.6563 140.48 52.7368 137.759 53.7449ZM158.758 45.623L141.682 3.21838L146.543 1.41728L163.62 43.8219L158.758 45.623Z" fill="#FB6238" fill-opacity="0.6"/>
</svg>
