<svg width="137" height="53" viewBox="0 0 137 53" fill="none" xmlns="http://www.w3.org/2000/svg">
<path d="M0 25C2.555 20.38 7.07 5.785 6.545 0.639999H19.985C19.46 5.785 23.975 20.38 26.53 25H18.865L17.465 19.855C15.995 19.715 14.385 19.645 12.81 19.645C11.515 19.645 10.255 19.68 9.065 19.785L7.665 25H0ZM10.57 14.15C12.355 14.22 14.21 14.22 15.925 14.115L13.265 4.175L10.57 14.15ZM27.9584 25C28.9734 20.38 28.9734 5.26 27.9584 0.639999H40.6284C46.5084 0.639999 50.8134 3.335 50.8134 8.76C50.8134 13.59 47.4184 16.145 43.5684 16.145C43.0784 16.145 42.5534 16.075 42.0634 16.005C43.7434 17.405 46.1234 18.28 48.4684 18.28C49.5184 18.28 50.5684 18.07 51.5484 17.685V25.35C43.5684 25.875 38.3884 21.64 34.9234 16.32C35.0284 19.54 35.2734 23.425 35.6234 25H27.9584ZM40.3134 6.905H34.9934C35.4834 9.67 37.7584 11.42 40.9784 11.42C43.4284 11.42 44.1984 10.405 44.1984 9.215C44.1984 7.605 42.7634 6.905 40.3134 6.905ZM66.9143 25C67.1593 23.81 67.3343 21.955 67.4743 19.75C66.4943 19.68 65.4793 19.68 64.4643 19.68C62.9593 19.68 61.4893 19.715 60.0893 19.855C60.0893 21.57 60.3693 23.355 61.0343 25H53.3693C53.3693 10.51 60.6493 0.639999 69.0843 0.639999H74.5793C73.5643 5.26 73.5643 20.38 74.5793 25H66.9143ZM61.2443 14.115C62.2943 14.185 63.3443 14.22 64.4293 14.22C65.5143 14.22 66.5993 14.185 67.6493 14.115C67.6843 11.63 67.6493 9.145 67.5443 6.905C64.8143 8.235 62.5393 10.895 61.2443 14.115ZM77.4506 25C78.4656 20.38 78.4656 5.26 77.4506 0.639999H89.3506C94.8806 0.639999 98.9756 3.195 98.9756 7.745C98.9756 10.965 96.8756 12.785 93.8656 13.24C99.0106 13.485 99.8506 16.88 99.8506 18.7C99.8506 25.525 88.2306 25 84.2756 25H77.4506ZM88.0906 19.26C90.5056 19.26 92.7456 18.595 92.7456 17.23C92.7456 16.215 91.4506 16.355 88.0556 15.655C87.6006 15.55 85.3256 15.06 84.3806 14.08C84.3806 16.6 84.9756 19.26 88.0906 19.26ZM89.0006 6.905H84.4856C84.9056 9.25 86.8656 10.79 89.5606 10.79C91.6606 10.79 92.3606 9.88 92.3606 8.865C92.3606 7.5 91.1006 6.905 89.0006 6.905ZM102.299 25C103.314 20.38 103.314 5.26 102.299 0.639999H109.964C108.949 5.26 108.949 20.38 109.964 25H102.299ZM118.882 12.82C118.882 16.705 121.822 19.085 125.462 19.085C128.192 19.085 130.747 17.72 132.182 16.04L134.807 23.215C132.532 24.58 129.662 25.35 126.372 25.35C118.007 25.35 112.267 20.345 112.267 12.89C112.267 5.435 118.007 0.289999 126.407 0.289999C129.662 0.289999 132.532 1.06 134.807 2.46L132.182 9.635C130.747 7.92 128.192 6.555 125.462 6.555C121.822 6.555 118.882 8.97 118.882 12.82Z" fill="#FB6238"/>
<path d="M0.63 50.47L2.91 44.32C3.63 45.76 5.04 46.93 6.96 46.93C8.37 46.93 9.93 46.3 10.11 41.47C10.14 40.18 10.11 38.32 9.99 36.43C9.21 36.34 8.46 36.31 7.71 36.31C5.79 36.31 3.93 36.58 1.62 37.09V31.12H15.96C15.09 35.08 15.33 40.21 15.39 41.35C15.96 50.47 11.31 52.3 6.69 52.3C3.9 52.3 2.07 51.64 0.63 50.47ZM18.5229 40.69C18.5529 38.29 18.3429 33.34 17.8629 31.12H24.4329C23.9529 33.4 23.7429 38.56 23.7729 40.66C23.8329 45.52 25.3329 46.93 28.0329 46.93C30.7329 46.93 32.0529 45.52 32.1129 40.72C32.1429 38.56 31.9329 33.4 31.4829 31.12H38.0229C37.5429 33.34 37.3329 38.29 37.3629 40.75C37.4529 49.21 34.4229 52.3 28.0329 52.3C21.6129 52.3 18.4329 49.21 18.5229 40.69ZM40.3784 42.43C40.2884 33.94 43.4684 30.82 49.8884 30.82C56.2784 30.82 59.3084 33.94 59.2184 42.37C59.1884 44.86 59.3984 49.81 59.8784 52H53.3384C53.7884 49.75 53.9984 44.59 53.9684 42.4C53.9084 37.6 52.5884 36.19 49.8884 36.19C47.1884 36.19 45.6884 37.6 45.6284 42.46C45.5984 44.59 45.8084 49.75 46.2884 52H39.7184C40.1984 49.81 40.4084 44.86 40.3784 42.43ZM62.0796 52C62.9496 48.04 62.9496 35.08 62.0796 31.12H68.6496C67.7796 35.08 67.7796 48.04 68.6496 52H62.0796ZM78.633 41.56C78.633 39.7 80.103 38.2 81.993 38.2C83.883 38.2 85.353 39.7 85.353 41.56C85.353 43.45 83.883 44.95 81.993 44.95C80.103 44.95 78.633 43.45 78.633 41.56ZM70.593 41.56C70.593 35.2 75.693 30.82 81.993 30.82C88.293 30.82 93.393 35.2 93.393 41.56C93.393 47.92 88.293 52.3 81.993 52.3C75.693 52.3 70.593 47.92 70.593 41.56ZM76.263 41.56C76.263 44.89 78.543 46.93 81.993 46.93C85.443 46.93 87.723 44.89 87.723 41.56C87.723 38.26 85.443 36.19 81.993 36.19C78.543 36.19 76.263 38.26 76.263 41.56ZM95.3316 52C96.2016 48.04 96.2016 35.08 95.3316 31.12H106.192C111.232 31.12 114.922 33.43 114.922 38.08C114.922 42.22 112.012 44.41 108.712 44.41C108.292 44.41 107.842 44.35 107.422 44.29C108.862 45.49 110.902 46.24 112.912 46.24C113.812 46.24 114.712 46.06 115.552 45.73V52.3C108.712 52.75 104.272 49.12 101.302 44.56C101.392 47.32 101.602 50.65 101.902 52H95.3316ZM105.922 36.49H101.362C101.782 38.86 103.732 40.36 106.492 40.36C108.592 40.36 109.252 39.49 109.252 38.47C109.252 37.09 108.022 36.49 105.922 36.49ZM136.612 44.5C136.612 49.06 132.682 52.3 125.632 52.3C122.242 52.3 119.212 51.55 117.442 50.47L119.722 44.32C120.832 45.76 122.872 46.93 126.232 46.93C129.262 46.93 131.272 46 131.272 45.16C131.272 42.94 117.622 46.93 117.622 38.47C117.622 33.85 121.702 30.82 127.882 30.82C130.972 30.82 133.852 31.57 135.622 32.68L133.342 38.83C132.202 37.36 130.192 36.19 127.312 36.19C125.062 36.19 123.652 36.91 123.652 37.81C123.652 40.48 136.612 36.19 136.612 44.5Z" fill="#A6CF4A"/>
</svg>
