<svg width="54" height="54" viewBox="0 0 54 54" fill="none" xmlns="http://www.w3.org/2000/svg">
<g clip-path="url(#clip0_114_1120)">
<path d="M51.3726 14.3454L46.0109 6.74965C45.9117 6.60906 45.8578 6.44052 45.8625 6.2685C45.8905 5.24619 45.5526 3.00489 45.2954 1.46916C45.185 0.809985 44.3693 0.559604 43.9076 1.04286L38.2679 6.94487C38.0492 7.17363 37.9832 7.50796 38.0994 7.80233C38.5597 8.96712 39.6662 12.7358 40.4365 23.266C40.6521 26.2126 41.0478 31.2998 41.2584 35.3702C41.3576 37.2866 40.2691 39.0674 38.5158 39.8475C35.697 41.1017 30.9321 42.6071 24.2986 42.6071C12.9286 42.6071 5.39983 37.6904 10.1629 26.013L6.16806 24.1692C6.16806 24.1692 2.48047 30.1615 2.48047 36.0001C2.48047 41.8388 5.0925 53.2088 20.9183 53.2088C29.4764 53.2088 36.3875 52.0549 41.084 50.2867C45.3146 48.6938 48.1129 44.6341 48.1135 40.1135C48.1142 32.781 47.2314 21.5458 47.0418 19.2175C47.0199 18.9475 47.1341 18.6848 47.3464 18.5164L51.2138 15.4491C51.5513 15.1815 51.6209 14.6971 51.3726 14.3454Z" fill="#F5AE14"/>
<path d="M49.4064 11.5598L44.1826 15.3525C43.9703 15.5208 43.856 15.7835 43.878 16.0535C44.0676 18.3818 44.9504 29.6172 44.9496 36.9495C44.9491 41.4701 42.1509 45.5298 37.9202 47.1227C33.2237 48.891 26.3125 50.0448 17.7545 50.0448C12.3282 50.0448 8.4557 48.7079 5.70898 46.7157C8.3304 50.3245 12.9482 53.2088 20.9186 53.2088C29.4766 53.2088 36.3877 52.055 41.0842 50.2867C45.3149 48.6938 48.1132 44.6342 48.1137 40.1136C48.1144 32.7811 47.2317 21.5459 47.042 19.2176C47.0201 18.9476 47.1343 18.6848 47.3466 18.5165L51.214 15.4492C51.5513 15.1816 51.621 14.6972 51.3728 14.3454L49.4064 11.5598Z" fill="#FB6238"/>
<path d="M18.5296 24.4783L17.5535 23.8246C17.1009 23.5216 16.487 23.683 16.2396 24.1681C15.6707 25.2834 14.914 27.4651 15.3909 30.6441C16.1653 35.8068 20.6573 36.9775 23.8149 36.9775C26.7161 36.9775 33.4585 35.2146 34.534 30.2393C34.806 28.981 34.3349 27.6604 33.2932 26.904C32.5196 26.3422 31.316 26.081 29.5003 25.8773C26.4023 25.5296 28.2428 23.5257 28.8092 22.9423C29.3455 22.3898 31.4073 20.1883 32.9708 23.0903C33.1549 23.432 33.6406 23.4521 33.8535 23.1276C34.7288 21.7928 36.0947 19.0433 33.0173 18.4037C28.5084 17.4666 23.7548 22.1434 23.7548 25.7703C23.7548 29.3972 25.878 29.9536 27.3049 30.1026C27.9524 30.1703 28.5547 30.1946 29.0729 30.1966C29.6828 30.199 29.9156 30.9996 29.3961 31.3192C28.3048 31.9906 26.5763 32.6913 24.1149 32.6913C19.6307 32.6913 18.115 29.0795 18.9107 25.424C18.9898 25.0603 18.8387 24.6854 18.5296 24.4783Z" fill="#F5AE14"/>
<path d="M10.1696 51.5119C10.0356 51.5119 9.89953 51.4778 9.77508 51.4059C2.4773 47.196 1.68945 39.2296 1.68945 36C1.68945 30.0064 5.33897 24.0069 5.49433 23.7545C5.70421 23.4134 6.13589 23.283 6.49955 23.4508L10.4944 25.2946C10.8785 25.4719 11.055 25.9199 10.8954 26.3115C9.07108 30.7839 9.03363 34.3721 10.7838 36.9762C12.8813 40.0971 17.681 41.8159 24.2986 41.8159C30.7843 41.8159 35.4349 40.3524 38.1943 39.1247C39.6362 38.4831 40.5502 36.9906 40.4685 35.4108C40.2923 32.0059 39.9873 27.9012 39.7645 24.904C39.7219 24.3303 39.6824 23.7991 39.6476 23.3236C38.8817 12.8553 37.7954 9.18496 37.3638 8.09294C37.1351 7.51402 37.2655 6.84883 37.696 6.39827L43.3356 0.49637C43.7576 0.05488 44.3821 -0.108069 44.9662 0.0716494C45.5496 0.251051 45.9748 0.736522 46.0757 1.33853C46.3552 3.00884 46.6825 5.22378 46.6533 6.29017L52.0188 13.8893C52.5088 14.5835 52.3713 15.5409 51.7055 16.0689L47.838 19.1362C47.8326 19.1405 47.8297 19.1467 47.8304 19.1532C47.9118 20.1546 48.1247 22.8415 48.3393 26.1584C48.3675 26.5943 48.0369 26.9706 47.601 26.9988C47.1635 27.0277 46.7888 26.6964 46.7605 26.2605C46.5467 22.9555 46.3347 20.2791 46.2534 19.2818C46.2099 18.7478 46.4347 18.2299 46.8549 17.8966L50.7224 14.8293C50.7309 14.8227 50.7327 14.8104 50.7263 14.8016L45.3647 7.20574C45.1666 6.9253 45.0626 6.58464 45.0718 6.24671C45.0918 5.51371 44.8941 3.86324 44.5153 1.59967C44.514 1.59229 44.5127 1.58944 44.5127 1.58934C44.5089 1.58512 44.4942 1.58027 44.4876 1.58217C44.4877 1.58217 44.4848 1.58385 44.4796 1.58923L38.8399 7.49124C38.8342 7.49715 38.8326 7.50464 38.8353 7.51149C39.4044 8.95198 40.472 12.9066 41.2256 23.2081C41.2603 23.6831 41.2998 24.2137 41.3423 24.7868C41.5656 27.7915 41.8714 31.9064 42.0485 35.3292C42.1638 37.5582 40.8733 39.6644 38.8374 40.5702C35.938 41.8602 31.0621 43.398 24.2986 43.398C20.8601 43.398 17.8695 42.9612 15.4095 42.0995C12.7291 41.1607 10.731 39.7339 9.4707 37.8588C7.50645 34.9362 7.40099 31.09 9.1545 26.4187L6.49512 25.1913C5.59811 26.8279 3.27158 31.5064 3.27158 36.0001C3.27158 38.955 3.98233 46.2378 10.5658 50.0357C10.9442 50.254 11.0739 50.7377 10.8556 51.1161C10.709 51.37 10.4431 51.5119 10.1696 51.5119Z" fill="black"/>
<path d="M20.9178 53.9996C18.2373 53.9996 15.7825 53.6757 13.6216 53.0367C13.2026 52.9128 12.9635 52.4728 13.0873 52.0539C13.2113 51.635 13.651 51.396 14.0702 51.5196C16.0853 52.1154 18.3891 52.4175 20.9178 52.4175C28.8242 52.4175 35.8869 51.3979 40.8048 49.5462C44.7025 48.0787 47.3215 44.2878 47.3219 40.1132C47.3223 37.5179 47.211 34.1585 46.9913 30.1283C46.9676 29.6921 47.3019 29.3191 47.7381 29.2954C48.175 29.2715 48.5474 29.6059 48.571 30.0422C48.7922 34.1011 48.9042 37.4895 48.9039 40.1134C48.9037 42.4938 48.1884 44.7879 46.8354 46.7472C45.481 48.7087 43.5885 50.1886 41.3621 51.0268C36.2704 52.9438 29.0099 53.9996 20.9178 53.9996Z" fill="black"/>
<path d="M23.8132 37.7688C22.3531 37.7688 20.2131 37.5367 18.3102 36.4311C16.2364 35.2263 14.9904 33.3188 14.607 30.7618C14.0889 27.3079 14.965 24.9231 15.5333 23.809C15.7542 23.3759 16.1504 23.0575 16.6203 22.9352C17.0895 22.8131 17.5893 22.8979 17.992 23.1677L18.9682 23.8213C18.9683 23.8213 18.9683 23.8213 18.9684 23.8214C19.551 24.2118 19.8311 24.9069 19.682 25.5923C19.2659 27.5042 19.5574 29.2588 20.482 30.406C21.281 31.3978 22.5028 31.9005 24.1134 31.9005C26.0135 31.9005 27.426 31.4494 28.3878 30.9731C27.9935 30.9575 27.6031 30.9296 27.2211 30.8896C24.3951 30.5945 22.9621 28.8722 22.9621 25.7705C22.9621 23.6835 24.2795 21.3153 26.4001 19.59C28.4963 17.8847 30.9659 17.17 33.1766 17.6293C34.3755 17.8786 35.1634 18.4395 35.5184 19.2964C36.0919 20.6803 35.2883 22.3797 34.5133 23.5614C34.259 23.9494 33.8318 24.1691 33.365 24.1491C32.9009 24.1291 32.4927 23.8735 32.2729 23.4656C32.0351 23.0244 31.6543 22.485 31.1896 22.4206C30.5063 22.3249 29.6756 23.1832 29.4026 23.465L29.3753 23.4933C28.4964 24.3985 28.5392 24.7681 28.5401 24.7715C28.541 24.7715 28.707 24.9925 29.587 25.0913C31.4006 25.2948 32.8038 25.5722 33.7566 26.2641C35.04 27.1962 35.6482 28.8222 35.3057 30.4067C34.1149 35.915 26.9148 37.7688 23.8132 37.7688ZM17.0488 24.4622C17.0389 24.4622 17.0288 24.4636 17.0186 24.4663C16.9951 24.4724 16.9629 24.488 16.9425 24.5278C16.4602 25.4732 15.7188 27.5097 16.1714 30.527C16.4802 32.5854 17.4671 34.1117 19.1048 35.0631C20.3518 35.7877 22.024 36.1867 23.8131 36.1867C26.1158 36.1867 32.7506 34.7376 33.759 30.0723C33.9691 29.1004 33.6031 28.108 32.8267 27.544C32.2513 27.1263 31.2615 26.8712 29.4102 26.6633C28.1155 26.518 27.3214 26.0607 27.0502 25.3042C26.6084 24.0718 27.8363 22.8069 28.2398 22.3913L28.266 22.3643C28.7205 21.895 29.9282 20.6486 31.4063 20.8534C32.1915 20.9623 32.87 21.4524 33.4275 22.3124C34.0304 21.2882 34.2648 20.4045 34.0567 19.9018C33.9141 19.5578 33.5096 19.3144 32.8544 19.1783C31.1122 18.8161 29.1236 19.4136 27.3983 20.8171C25.6644 22.2278 24.544 24.1721 24.544 25.7704C24.544 28.6256 25.9096 29.1618 27.3853 29.316C27.9337 29.3733 28.5018 29.4036 29.0742 29.4058C29.7073 29.4083 30.2478 29.8198 30.4191 30.43C30.5893 31.0357 30.344 31.6639 29.8089 31.9931C28.7045 32.6726 26.8199 33.4825 24.1132 33.4825C22.0301 33.4825 20.3485 32.7618 19.2499 31.3985C18.0236 29.8766 17.6176 27.6377 18.136 25.2558C18.1462 25.2094 18.1272 25.1622 18.0878 25.1358L17.1116 24.4821C17.0919 24.4689 17.0708 24.4622 17.0488 24.4622Z" fill="black"/>
</g>
<defs>
<clipPath id="clip0_114_1120">
<rect width="54" height="54" fill="white"/>
</clipPath>
</defs>
</svg>
