<svg width="109" height="109" viewBox="0 0 109 109" fill="none" xmlns="http://www.w3.org/2000/svg">
<circle cx="54.5" cy="54.5" r="53.3646" fill="white" stroke="#FB6238" stroke-width="2.27083"/>
<path d="M22.1881 26.9829L28.3895 34.0876L27.795 34.9719L21.6981 33.0508C21.5231 32.9983 21.3494 32.944 21.1768 32.8881C21.003 32.8263 20.8391 32.7686 20.6849 32.7151C20.5272 32.6591 20.3903 32.6096 20.2741 32.5666C20.1568 32.5177 20.0688 32.4811 20.0101 32.4567C20.0572 32.4983 20.1238 32.5631 20.2098 32.651C20.2982 32.7355 20.3975 32.8372 20.5076 32.9563C20.6201 33.072 20.7366 33.2003 20.857 33.3414C20.9798 33.4789 21.1019 33.6211 21.2235 33.7679L25.3267 38.6437L24.7322 39.528L15.8226 36.4519L16.4379 35.5366L21.9972 37.5092C22.1836 37.5745 22.366 37.642 22.5443 37.7118C22.7215 37.7759 22.8917 37.8428 23.0551 37.9125C23.2207 37.9788 23.3806 38.0463 23.5348 38.1149C23.6889 38.1834 23.8384 38.2514 23.9833 38.3188C23.8605 38.2112 23.7359 38.0949 23.6096 37.97C23.4799 37.8427 23.3497 37.7126 23.2188 37.5796C23.0903 37.4431 22.9612 37.3038 22.8316 37.1616C22.7042 37.0159 22.5781 36.8685 22.453 36.7194L18.6768 32.2061L19.2852 31.3011L24.9645 33.0616C25.159 33.1223 25.3494 33.1853 25.5359 33.2505C25.7223 33.3157 25.9017 33.3838 26.0743 33.4548C26.2457 33.52 26.4085 33.5868 26.5626 33.6554C26.7156 33.7182 26.8594 33.7798 26.994 33.8403C26.8413 33.7026 26.6834 33.5539 26.5204 33.3943C26.3574 33.2346 26.1893 33.0641 26.016 32.8825C25.845 32.6975 25.6695 32.5044 25.4894 32.3032L21.5693 27.9034L22.1881 26.9829Z" fill="#4A5463"/>
<path d="M30.4915 25.4783C30.8067 25.9613 31.0254 26.4332 31.1477 26.8942C31.27 27.3551 31.2982 27.7932 31.2325 28.2084C31.1669 28.6237 31.0114 29.0108 30.7662 29.3698C30.5222 29.7229 30.1891 30.0371 29.7669 30.3126C29.3734 30.5694 28.9677 30.7373 28.5499 30.8161C28.1332 30.889 27.7199 30.8731 27.3097 30.7684C26.9032 30.6613 26.51 30.4613 26.1302 30.1685C25.7539 29.8733 25.4082 29.4843 25.093 29.0013C24.6728 28.3573 24.4247 27.7388 24.3487 27.1456C24.2705 26.5488 24.3564 26.0005 24.6066 25.5005C24.858 24.9947 25.2646 24.5585 25.8263 24.1919C26.3629 23.8417 26.9098 23.6558 27.4669 23.634C28.0276 23.6099 28.5671 23.7526 29.0854 24.0622C29.6049 24.3659 30.0736 24.8379 30.4915 25.4783ZM26.016 28.3989C26.3242 28.8712 26.6541 29.24 27.0058 29.5053C27.3575 29.7706 27.7257 29.9128 28.1106 29.932C28.4955 29.9512 28.8937 29.8265 29.3051 29.5581C29.713 29.2919 29.9856 28.9788 30.123 28.6188C30.264 28.2564 30.2839 27.8608 30.1827 27.4321C30.0814 27.0034 29.8767 26.5529 29.5685 26.0806C29.2627 25.612 28.9363 25.2486 28.5893 24.9904C28.2399 24.7287 27.874 24.59 27.4914 24.5744C27.1088 24.5588 26.7101 24.6864 26.2951 24.9572C25.6833 25.3565 25.3662 25.8516 25.3438 26.4426C25.325 27.0313 25.5491 27.6834 26.016 28.3989Z" fill="#4A5463"/>
<path d="M32.728 19.4118C33.4627 19.0369 34.1107 18.9341 34.6721 19.1035C35.2315 19.2692 35.7141 19.7495 36.1198 20.5445L38.1792 24.5796L37.2523 25.0526L35.2247 21.0796C34.9613 20.5635 34.6455 20.2379 34.2774 20.1028C33.913 19.9658 33.4879 20.0213 33.0018 20.2694C32.3161 20.6193 31.9329 21.0595 31.8521 21.5899C31.7714 22.1202 31.9194 22.7546 32.2963 23.4931L33.9519 26.737L33.0137 27.2158L29.8526 21.0218L30.6099 20.6353L31.2069 21.4561L31.2577 21.4302C31.2781 21.1444 31.3525 20.8761 31.481 20.6253C31.6075 20.3707 31.7778 20.1414 31.9917 19.9372C32.2038 19.7292 32.4492 19.5541 32.728 19.4118Z" fill="#4A5463"/>
<path d="M42.0995 23.7392C41.2276 23.9994 40.4472 23.9081 39.7583 23.4655C39.0735 23.0216 38.556 22.2129 38.2058 21.0392C37.8519 19.853 37.8448 18.8806 38.1845 18.1219C38.5229 17.3591 39.1238 16.8488 39.9873 16.5912C40.3519 16.4824 40.6849 16.4355 40.9861 16.4507C41.2873 16.4658 41.5608 16.5257 41.8066 16.6304C42.0511 16.7309 42.2711 16.8638 42.4665 17.0292L42.5419 17.0067C42.4864 16.8817 42.4165 16.7086 42.3322 16.4872C42.2479 16.2659 42.1845 16.084 42.142 15.9415L41.3184 13.1813L42.3621 12.8699L45.2811 22.653L44.4386 22.9044L43.9887 21.9705L43.9447 21.9836C43.8761 22.2278 43.7661 22.4637 43.615 22.6914C43.468 22.9178 43.2712 23.1226 43.0246 23.3057C42.7809 23.4834 42.4725 23.6279 42.0995 23.7392ZM42.0041 22.8228C42.7418 22.6027 43.2011 22.2374 43.382 21.727C43.5629 21.2165 43.5302 20.5484 43.2838 19.7227L43.2276 19.5341C42.9662 18.658 42.6187 18.0291 42.1853 17.6471C41.756 17.264 41.1578 17.1868 40.3908 17.4157C39.7494 17.607 39.3433 17.9975 39.1723 18.5872C39.0001 19.1727 39.0409 19.8908 39.2948 20.7417C39.5474 21.5884 39.8997 22.1954 40.3516 22.5627C40.8077 22.9287 41.3586 23.0154 42.0041 22.8228Z" fill="#4A5463"/>
<path d="M48.4694 14.1453C49.0868 14.1378 49.6176 14.268 50.0619 14.536C50.5063 14.804 50.8483 15.1835 51.0881 15.6746C51.3278 16.1612 51.4517 16.733 51.4597 17.3901L51.468 18.0714L46.4608 18.1327C46.4844 18.9836 46.704 19.6292 47.1196 20.0696C47.5352 20.51 48.1156 20.7256 48.8608 20.7165C49.3194 20.7108 49.7246 20.664 50.0764 20.5759C50.4281 20.4878 50.7926 20.3598 51.1698 20.192L51.1817 21.1578C50.8177 21.3254 50.4553 21.4489 50.0946 21.5283C49.7384 21.6076 49.3155 21.6503 48.826 21.6563C48.1293 21.6648 47.519 21.5312 46.9952 21.2553C46.4757 20.975 46.0693 20.561 45.7759 20.0133C45.4826 19.4656 45.331 18.7926 45.3212 17.9945C45.3116 17.214 45.4335 16.5377 45.6867 15.9656C45.9442 15.3891 46.3093 14.9436 46.7817 14.6291C47.2586 14.3145 47.8212 14.1533 48.4694 14.1453ZM48.4672 15.0451C47.8807 15.0523 47.4156 15.2498 47.0719 15.6377C46.7283 16.0256 46.5276 16.564 46.4699 17.2527L50.3063 17.2057C50.2966 16.7736 50.2236 16.3952 50.0873 16.0705C49.9554 15.7414 49.756 15.488 49.4892 15.3104C49.2224 15.1285 48.8817 15.04 48.4672 15.0451Z" fill="#4A5463"/>
<path d="M57.9565 13.3971C58.103 13.3947 58.2564 13.401 58.4165 13.4161C58.5766 13.4268 58.719 13.4444 58.8437 13.469L58.7209 14.4969C58.6005 14.4678 58.4669 14.4456 58.3201 14.4303C58.1733 14.415 58.0355 14.4084 57.9068 14.4105C57.6137 14.4154 57.3372 14.48 57.0773 14.6042C56.8217 14.7239 56.5981 14.8964 56.4064 15.1216C56.2147 15.3424 56.0659 15.6092 55.9601 15.9218C55.8542 16.23 55.8043 16.5728 55.8106 16.9502L55.8758 20.8662L54.7636 20.8847L54.6421 13.5855L55.5612 13.5702L55.7035 14.9135L55.7501 14.9127C55.8965 14.6394 56.0745 14.3899 56.2839 14.1644C56.4932 13.9344 56.7367 13.7505 57.0142 13.6126C57.2961 13.4747 57.6102 13.4029 57.9565 13.3971Z" fill="#4A5463"/>
<path d="M66.0034 22.6375L64.8254 22.2741L63.0223 17.1544L61.8549 17.6928L60.8225 21.0393L59.8262 20.7319L62.4695 12.1636L63.4658 12.4709L62.1478 16.7434C62.4489 16.5581 62.7552 16.3766 63.0667 16.1989C63.3795 16.0173 63.6909 15.8331 64.001 15.6463L67.3515 13.6696L68.5178 14.0294L63.9606 16.6929L66.0034 22.6375Z" fill="#4A5463"/>
<path d="M73.3748 18.3811L70.2699 24.9923L69.2685 24.5221L72.3735 17.9108L73.3748 18.3811ZM74.0477 15.6785C74.2126 15.7559 74.3279 15.8763 74.3935 16.0396C74.465 16.2009 74.4479 16.3941 74.3421 16.6193C74.2383 16.8405 74.1005 16.977 73.9289 17.0289C73.7613 17.0827 73.595 17.0709 73.4301 16.9935C73.2572 16.9123 73.1379 16.79 73.0723 16.6266C73.0107 16.4652 73.0318 16.2739 73.1357 16.0527C73.2415 15.8275 73.3752 15.689 73.5369 15.6374C73.7045 15.5836 73.8748 15.5973 74.0477 15.6785Z" fill="#4A5463"/>
<path d="M76.0034 28.3013C75.3306 27.752 74.9844 27.0866 74.9647 26.3051C74.9483 25.5262 75.3098 24.6839 76.0492 23.7782C76.7965 22.8628 77.5608 22.3359 78.3422 22.1975C79.1262 22.0559 79.8514 22.2571 80.5178 22.8011C80.7992 23.0308 81.0147 23.2687 81.1642 23.5148C81.3137 23.7608 81.413 24.009 81.462 24.2593C81.5137 24.5063 81.5266 24.7513 81.5008 24.9943L81.559 25.0419C81.6279 24.931 81.7272 24.783 81.8569 24.5977C81.9865 24.4125 82.0962 24.2649 82.186 24.1549L83.9249 22.0248L84.7304 22.6823L78.567 30.2323L77.9168 29.7015L78.4134 28.8455L78.3794 28.8178C78.1498 28.8945 77.9045 28.9341 77.6436 28.9367C77.3859 28.942 77.1187 28.8963 76.8418 28.7997C76.5708 28.7024 76.2913 28.5363 76.0034 28.3013ZM76.6762 27.7347C77.2455 28.1994 77.7803 28.3664 78.2805 28.2357C78.7807 28.105 79.2909 27.7211 79.8112 27.0838L79.93 26.9382C80.4819 26.2622 80.7925 25.6506 80.8618 25.1034C80.9344 24.5589 80.6747 24.0451 80.0827 23.5618C79.5878 23.1578 79.0616 23.0463 78.5042 23.2273C77.9494 23.4051 77.404 23.8223 76.8679 24.4789C76.3345 25.1323 76.0438 25.736 75.996 26.2899C75.9513 26.8464 76.1781 27.328 76.6762 27.7347Z" fill="#4A5463"/>
<path d="M85.243 33.7446C84.9653 34.0455 84.6553 34.2291 84.3129 34.2953C83.9761 34.3612 83.6196 34.3162 83.2435 34.1602C82.8702 34.0068 82.4901 33.7516 82.1032 33.3945C81.7736 33.0903 81.5122 32.8014 81.319 32.5276C81.1259 32.2538 80.9826 31.9863 80.8894 31.7251L81.4964 31.0673C81.6011 31.3391 81.7511 31.6367 81.9462 31.9601C82.1414 32.2834 82.378 32.5734 82.656 32.83C83.063 33.2055 83.4191 33.4121 83.7242 33.4495C84.0293 33.4869 84.2863 33.3924 84.4953 33.166C84.6143 33.037 84.6815 32.8894 84.6969 32.7232C84.7178 32.5567 84.6846 32.3483 84.5973 32.0979C84.5126 31.8446 84.3699 31.5219 84.1693 31.1297C83.9741 30.7373 83.8177 30.3834 83.7002 30.068C83.5882 29.7523 83.5473 29.4572 83.5777 29.1828C83.611 28.911 83.7479 28.6446 83.9886 28.3838C84.3563 27.9854 84.7985 27.8282 85.3152 27.9124C85.8375 27.9963 86.3609 28.2803 86.8854 28.7643C87.1692 29.0262 87.4079 29.2995 87.6015 29.5843C87.8006 29.8688 87.964 30.1576 88.0917 30.4506L87.3232 30.8002C87.205 30.5372 87.062 30.2752 86.8942 30.0143C86.7264 29.7533 86.5278 29.517 86.2985 29.3054C85.9689 29.0012 85.665 28.8216 85.3868 28.7665C85.1114 28.7141 84.8865 28.7825 84.7119 28.9716C84.577 29.1178 84.506 29.2752 84.499 29.4439C84.4949 29.6152 84.5447 29.8257 84.6486 30.0754C84.7525 30.3252 84.9004 30.6422 85.0925 31.0264C85.2872 31.4078 85.4378 31.7564 85.5444 32.0723C85.6535 32.3853 85.6887 32.6778 85.65 32.9499C85.6167 33.2217 85.4811 33.4866 85.243 33.7446Z" fill="#4A5463"/>
<path d="M87.9593 64.4277L96.5508 67.9625L96.1398 68.9615L88.4415 65.7942L86.8724 69.6081L85.9791 69.2406L87.9593 64.4277Z" fill="#4A5463"/>
<path d="M89.1183 78.1117C88.7164 78.551 88.2747 78.8386 87.793 78.9744C87.3114 79.1103 86.8188 79.1006 86.3152 78.9454C85.8147 78.7931 85.3307 78.503 84.8631 78.0753L84.3782 77.6318L87.6379 74.0684C87.0236 73.5238 86.4245 73.2524 85.8406 73.2543C85.2567 73.2562 84.7221 73.5224 84.237 74.0527C83.9384 74.3791 83.7042 74.6951 83.5341 75.0007C83.3641 75.3062 83.2137 75.6471 83.0829 76.0232L82.3957 75.3945C82.5178 75.0278 82.6699 74.6914 82.852 74.3853C83.0312 74.0823 83.2801 73.7566 83.5987 73.4083C84.0523 72.9125 84.5489 72.5713 85.0884 72.3847C85.6283 72.2041 86.1876 72.1913 86.7665 72.3461C87.3454 72.501 87.9188 72.8382 88.4868 73.3578C89.0423 73.8659 89.4377 74.3977 89.6731 74.9532C89.9089 75.5147 89.9815 76.0653 89.8912 76.6052C89.7979 77.1482 89.5403 77.6504 89.1183 78.1117ZM88.4868 77.5166C88.8686 77.0993 89.0364 76.6418 88.9901 76.1441C88.9439 75.6464 88.6975 75.1501 88.251 74.6552L85.7535 77.3854C86.0639 77.6636 86.3783 77.8618 86.6967 77.9801C87.0153 78.1044 87.325 78.1313 87.6259 78.0607C87.93 77.993 88.2169 77.8116 88.4868 77.5166Z" fill="#4A5463"/>
<path d="M83.3683 83.9652C82.7289 84.5522 82.1224 84.8445 81.549 84.8419C80.9755 84.8394 80.3998 84.5233 79.8217 83.8937L76.4748 80.2482L77.0669 79.7046L77.9512 80.3535L77.9904 80.3176C77.9607 79.9841 77.9661 79.6756 78.0064 79.3921C78.0497 79.1118 78.1476 78.8386 78.3 78.5725C78.4521 78.3125 78.6831 78.0403 78.9931 77.7558C79.3193 77.4563 79.662 77.2468 80.0213 77.1274C80.3773 77.0109 80.7351 77.0011 81.0945 77.098C81.4507 77.1978 81.792 77.4255 82.1185 77.7811C82.6096 78.3161 82.775 78.9218 82.6144 79.5983C82.4539 80.2747 81.9518 81.0243 81.108 81.8471L80.2191 82.7353L80.5201 83.0631C80.9454 83.5264 81.3429 83.7596 81.7126 83.7629C82.0823 83.7661 82.4482 83.6015 82.8103 83.2691C83.0909 83.0115 83.3209 82.7251 83.5005 82.41C83.6801 82.0948 83.8331 81.7769 83.9597 81.4564L84.7753 81.8438C84.6477 82.1894 84.4677 82.55 84.2354 82.9256C84.0031 83.3012 83.7141 83.6477 83.3683 83.9652ZM79.7032 82.1538L80.489 81.3693C81.1338 80.7292 81.5048 80.1871 81.6021 79.7431C81.6995 79.299 81.5864 78.9008 81.2629 78.5485C80.9814 78.2419 80.6803 78.1005 80.3596 78.1244C80.0388 78.1483 79.7251 78.3011 79.4185 78.5826C78.9422 79.0199 78.6737 79.5099 78.6129 80.0527C78.5521 80.5955 78.7643 81.1311 79.2495 81.6596L79.7032 82.1538Z" fill="#4A5463"/>
<path d="M75.4986 90.2153C75.3785 90.2713 75.2495 90.3226 75.1117 90.3691C74.9756 90.4192 74.8515 90.4572 74.7394 90.4828L74.4622 89.5886C74.5723 89.5683 74.6908 89.5374 74.8177 89.496C74.9446 89.4545 75.0609 89.4092 75.1664 89.36C75.4066 89.2481 75.6112 89.0929 75.7802 88.8945C75.9472 88.7015 76.0683 88.4767 76.1436 88.22C76.2207 87.967 76.2453 87.692 76.2175 87.3948C76.1915 87.1012 76.1063 86.7997 75.9621 86.4904L74.4658 83.2801L75.3776 82.8551L78.1666 88.8389L77.4132 89.19L76.8009 88.133L76.7627 88.1508C76.7424 88.4305 76.6873 88.7021 76.5974 88.9655C76.5092 89.2326 76.376 89.4741 76.1975 89.6902C76.0155 89.908 75.7825 90.083 75.4986 90.2153Z" fill="#4A5463"/>
<path d="M68.3897 93.0217C67.6125 93.2446 66.9698 93.2219 66.4616 92.9535C65.9545 92.6892 65.5804 92.1366 65.3392 91.2957L64.1153 87.0275L65.0956 86.7463L66.3008 90.9488C66.4573 91.4948 66.7 91.8673 67.0288 92.0663C67.3536 92.2665 67.773 92.2928 68.2872 92.1454C69.0125 91.9374 69.4637 91.5859 69.6409 91.0908C69.8181 90.5957 69.7947 89.9577 69.5707 89.1765L68.5867 85.7452L69.5791 85.4606L71.4579 92.0125L70.6569 92.2422L70.2366 91.3405L70.1828 91.3559C70.1096 91.6271 69.9877 91.8712 69.817 92.0884C69.6475 92.3095 69.4407 92.4982 69.1965 92.6545C68.9535 92.8147 68.6846 92.9371 68.3897 93.0217Z" fill="#4A5463"/>
<path d="M59.5406 94.4107L58.6958 87.8081L59.6958 87.6802L60.5406 94.2828L59.5406 94.4107ZM60.3445 96.8182C60.1799 96.8393 60.0324 96.8031 59.902 96.7095C59.7682 96.6205 59.6869 96.4636 59.6581 96.2387C59.6298 96.0178 59.669 95.8454 59.7756 95.7215C59.8782 95.5982 60.0118 95.526 60.1765 95.5049C60.3492 95.4828 60.5007 95.5186 60.6311 95.6121C60.7574 95.7061 60.8347 95.8636 60.863 96.0845C60.8917 96.3094 60.8566 96.4813 60.7575 96.6001C60.6549 96.7234 60.5172 96.7961 60.3445 96.8182Z" fill="#4A5463"/>
<path d="M52.4939 96.5393C51.6662 96.5412 51.0396 96.3389 50.6141 95.9324C50.1887 95.5301 49.9749 94.8812 49.9728 93.9855L49.9621 89.4392L51.0064 89.4368L51.0169 93.913C51.0183 94.4946 51.153 94.9293 51.4211 95.2174C51.685 95.5054 52.0907 95.6488 52.6383 95.6475C53.4109 95.6457 53.9537 95.4258 54.2668 94.9878C54.5799 94.5498 54.7354 93.9149 54.7335 93.0829L54.7249 89.428L55.7819 89.4255L55.7983 96.4041L54.9451 96.4061L54.7835 95.4005L54.7262 95.4006C54.5782 95.6472 54.3898 95.8535 54.161 96.0196C53.9321 96.1899 53.6756 96.3179 53.3914 96.4034C53.1072 96.4932 52.8081 96.5385 52.4939 96.5393Z" fill="#4A5463"/>
<path d="M44.862 84.8676C45.7938 84.9455 46.4974 85.1803 46.9728 85.572C47.4486 85.9593 47.6603 86.4657 47.608 87.0911C47.5708 87.5354 47.3989 87.9033 47.0921 88.1947C46.7811 88.4858 46.3711 88.6621 45.862 88.7238C46.0403 88.8256 46.1891 88.9683 46.3083 89.1521C46.4233 89.3354 46.4714 89.5393 46.4526 89.7636C46.431 90.0224 46.3408 90.2429 46.1823 90.4251C46.019 90.6113 45.781 90.7825 45.4682 90.9387C45.8265 91.1207 46.1071 91.4005 46.3101 91.778C46.5084 92.1595 46.5875 92.5896 46.5475 93.0684C46.5049 93.5774 46.3629 94.0021 46.1216 94.3424C45.8799 94.6871 45.5505 94.9375 45.1335 95.0937C44.7164 95.25 44.2232 95.3043 43.6538 95.2566C43.5288 95.2461 43.4042 95.2292 43.2802 95.2058C43.1515 95.1863 43.0298 95.161 42.9152 95.1296C42.8002 95.1026 42.7006 95.0726 42.6165 95.0395L40.1836 94.8359L40.2416 94.1436L41.5621 94.0912C41.4468 93.9121 41.3559 93.7004 41.2895 93.4559C41.2231 93.2114 41.202 92.9447 41.2262 92.6557C41.2854 91.9483 41.5719 91.4054 42.0857 91.0271C42.5991 90.653 43.2743 90.501 44.1111 90.571C44.3095 90.5877 44.5108 90.6219 44.715 90.6737C44.9361 90.5749 45.1087 90.4591 45.2327 90.3261C45.3525 90.1928 45.4201 90.0334 45.4357 89.8479C45.4472 89.7099 45.4154 89.5964 45.3403 89.5076C45.2609 89.4184 45.143 89.3478 44.9867 89.2956C44.83 89.2477 44.6395 89.2144 44.4152 89.1956L43.1664 89.0911C42.3943 89.0265 41.8168 88.8153 41.4341 88.4575C41.0471 88.0993 40.8796 87.6097 40.9316 86.9885C40.9973 86.2035 41.3668 85.6284 42.0402 85.2634C42.7136 84.8984 43.6543 84.7665 44.862 84.8676ZM44.7593 85.706C44.1727 85.6569 43.6823 85.6767 43.2883 85.7653C42.8904 85.8493 42.5871 85.9955 42.3785 86.2039C42.166 86.4077 42.0469 86.6627 42.0213 86.9689C41.9975 87.2536 42.0441 87.4747 42.1613 87.6322C42.2788 87.7854 42.4606 87.8962 42.7068 87.9646C42.9527 88.0373 43.2568 88.0888 43.6191 88.1191L44.8485 88.222C45.1677 88.2487 45.4501 88.2224 45.6956 88.143C45.9411 88.0636 46.1367 87.9323 46.2824 87.749C46.4237 87.5654 46.5065 87.3291 46.5307 87.0401C46.5628 86.6562 46.4254 86.3515 46.1185 86.126C45.812 85.8962 45.3589 85.7562 44.7593 85.706ZM44.0068 91.3507C43.4935 91.3078 43.0966 91.4048 42.8161 91.642C42.5356 91.8792 42.3746 92.2458 42.3331 92.7418C42.2887 93.2724 42.3871 93.6802 42.6282 93.9654C42.8689 94.2548 43.246 94.4211 43.7593 94.464C44.251 94.5052 44.6422 94.3989 44.9327 94.1452C45.2186 93.8955 45.3835 93.5075 45.4276 92.9812C45.468 92.4981 45.3653 92.116 45.1195 91.8348C44.8737 91.5536 44.5028 91.3922 44.0068 91.3507Z" fill="#4A5463"/>
<path d="M28.6679 77.8323L29.7962 78.6414L29.8922 84.7538L31.3314 84.5959L33.6299 81.3908L34.5842 82.0752L28.6989 90.2816L27.7447 89.5972L30.6793 85.5053C30.2915 85.5955 29.8995 85.6799 29.5032 85.7584C29.1043 85.8406 28.7058 85.926 28.3079 86.0147L24.0232 86.9283L22.9062 86.1273L28.7252 84.9114L28.6679 77.8323Z" fill="#4A5463"/>
<path d="M22.7618 78.976L28.1074 73.7593L28.8975 74.5689L23.5519 79.7856L22.7618 78.976ZM21.1476 81.3226C21.0175 81.1892 20.9504 81.0326 20.9461 80.8526C20.9355 80.6726 21.0212 80.4937 21.2033 80.316C21.3821 80.1415 21.563 80.0602 21.746 80.072C21.9258 80.0806 22.0808 80.1516 22.2109 80.2849C22.3473 80.4247 22.4177 80.5846 22.4219 80.7646C22.423 80.9413 22.3341 81.117 22.1552 81.2915C21.9732 81.4692 21.7954 81.5538 21.622 81.5452C21.4422 81.5366 21.2841 81.4624 21.1476 81.3226Z" fill="#4A5463"/>
<path d="M24.7886 69.9987C25.2011 70.829 25.245 71.6285 24.9201 72.3971C24.5933 73.1617 23.871 73.8217 22.7533 74.377C21.6237 74.9383 20.6485 75.1142 19.8278 74.9049C19.003 74.6975 18.3864 74.1826 17.9778 73.3603C17.8053 73.0131 17.7005 72.6869 17.6633 72.3818C17.6262 72.0767 17.6389 71.7917 17.7014 71.5267C17.7598 71.2638 17.8551 71.0198 17.9873 70.7949L17.9516 70.7231C17.8358 70.8005 17.6741 70.9008 17.4664 71.0238C17.2588 71.1469 17.0871 71.2421 16.9514 71.3096L14.3229 72.6156L13.8291 71.6216L23.1457 66.9926L23.5443 67.7949L22.6846 68.4087L22.7055 68.4506C22.9625 68.4772 23.2185 68.5466 23.4734 68.6589C23.7263 68.7672 23.9661 68.9292 24.1928 69.1451C24.4135 69.3589 24.6121 69.6435 24.7886 69.9987ZM23.885 70.2536C23.5359 69.5511 23.0894 69.1533 22.5455 69.0602C22.0015 68.9671 21.3363 69.116 20.55 69.5067L20.3704 69.5959C19.5361 70.0104 18.9648 70.4685 18.6566 70.97C18.3464 71.4676 18.3727 72.0816 18.7357 72.8121C19.0391 73.4228 19.5017 73.7628 20.1235 73.8322C20.7412 73.9035 21.4553 73.7379 22.2656 73.3352C23.0719 72.9346 23.6203 72.4755 23.9106 71.958C24.1989 71.4365 24.1904 70.8683 23.885 70.2536Z" fill="#4A5463"/>
<path d="M17.7609 61.2663C18.1538 61.1251 18.5205 61.1052 18.8612 61.2067C19.1967 61.3057 19.4977 61.5143 19.7642 61.8325C20.0294 62.147 20.2527 62.5568 20.4343 63.0618C20.589 63.4921 20.6892 63.8764 20.7348 64.2149C20.7804 64.5534 20.7839 64.8626 20.7452 65.1427L19.8866 65.4514C19.9199 65.1564 19.9245 64.8167 19.9005 64.4325C19.8764 64.0482 19.7991 63.6747 19.6687 63.3118C19.4777 62.7805 19.2531 62.4261 18.9949 62.2485C18.7367 62.071 18.4599 62.0353 18.1643 62.1416C17.996 62.2021 17.8657 62.3039 17.7735 62.4469C17.6761 62.5875 17.608 62.7915 17.569 63.059C17.5262 63.3279 17.5031 63.6868 17.4998 64.1358C17.4914 64.5825 17.466 64.976 17.4237 65.3166C17.3762 65.6547 17.2742 65.9407 17.1174 66.1745C16.9593 66.4045 16.71 66.5807 16.3696 66.7031C15.8495 66.8901 15.3758 66.8238 14.9483 66.5043C14.5157 66.1825 14.1764 65.6792 13.9302 64.9946C13.7971 64.6242 13.7101 64.2647 13.6692 63.916C13.6233 63.565 13.6116 63.227 13.6342 62.902L14.4936 62.948C14.4765 63.2414 14.4824 63.5456 14.5111 63.8605C14.5399 64.1755 14.608 64.4826 14.7156 64.7819C14.8703 65.2122 15.0604 65.5177 15.286 65.6985C15.5102 65.8756 15.7458 65.9198 15.9927 65.831C16.1835 65.7624 16.3218 65.6536 16.4076 65.5044C16.492 65.3516 16.5461 65.1378 16.5699 64.8631C16.5936 64.5884 16.6092 64.2321 16.6166 63.7943C16.6202 63.3579 16.6483 62.9718 16.7008 62.636C16.7496 62.3017 16.8555 62.0206 17.0187 61.793C17.1768 61.5629 17.4242 61.3874 17.7609 61.2663Z" fill="#4A5463"/>
<circle cx="17.0321" cy="48.8228" r="2.27083" fill="#FFD25D"/>
<circle cx="91.9696" cy="48.8228" r="2.27083" fill="#FFD25D"/>
<rect x="29.5215" y="28.3855" width="51.0938" height="51.0938" rx="25.5469" fill="#F3F0E8"/>
<path fill-rule="evenodd" clip-rule="evenodd" d="M54.7844 46.556C52.2391 48.0284 50.5266 50.7804 50.5266 53.9324C50.5266 57.0844 52.2391 59.8364 54.7844 61.3088C53.5319 62.0333 52.0777 62.448 50.5266 62.448C45.8236 62.448 42.011 58.6354 42.011 53.9324C42.011 49.2293 45.8236 45.4167 50.5266 45.4167C52.0777 45.4167 53.5319 45.8314 54.7844 46.556Z" fill="#FB6238"/>
<circle cx="59.8931" cy="53.9324" r="8.51562" fill="#F5AE14"/>
</svg>
