<svg width="175" height="194" viewBox="0 0 175 194" fill="none" xmlns="http://www.w3.org/2000/svg">
<path d="M156.706 0.0558095C156.721 0.0558095 156.734 0.0431216 156.734 0.0279009C156.734 0.0126802 156.721 0 156.706 0C156.691 0 156.678 0.0126802 156.678 0.0279009C156.678 0.0431216 156.691 0.0558095 156.706 0.0558095Z" fill="#FFECA8"/>
<path d="M166.499 0.0558095C166.514 0.0558095 166.527 0.0431216 166.527 0.0279009C166.527 0.0126802 166.514 0 166.499 0C166.484 0 166.471 0.0126802 166.471 0.0279009C166.471 0.0431216 166.484 0.0558095 166.499 0.0558095Z" fill="#FFECA8"/>
<path d="M117.537 9.84633C117.552 9.84633 117.565 9.83365 117.565 9.81843C117.565 9.80321 117.552 9.79053 117.537 9.79053C117.522 9.79053 117.509 9.80321 117.509 9.81843C117.509 9.83365 117.522 9.84633 117.537 9.84633Z" fill="#FFECA8"/>
<path d="M127.329 9.90002C127.374 9.90002 127.411 9.86274 127.411 9.81799C127.411 9.77325 127.374 9.73596 127.329 9.73596C127.285 9.73596 127.247 9.77325 127.247 9.81799C127.247 9.86522 127.285 9.90002 127.329 9.90002Z" fill="#FFECA8"/>
<path d="M137.122 9.9539C137.197 9.9539 137.259 9.89444 137.259 9.81765C137.259 9.74333 137.197 9.6814 137.122 9.6814C137.048 9.6814 136.986 9.74333 136.986 9.81765C136.986 9.89444 137.046 9.9539 137.122 9.9539Z" fill="#FFECA8"/>
<path d="M146.915 9.98106C147.004 9.98106 147.079 9.90923 147.079 9.81756C147.079 9.72838 147.007 9.65405 146.915 9.65405C146.826 9.65405 146.752 9.7259 146.752 9.81756C146.752 9.90923 146.824 9.98106 146.915 9.98106Z" fill="#FFECA8"/>
<path d="M156.705 10.0085C156.809 10.0085 156.896 9.92424 156.896 9.81771C156.896 9.71366 156.812 9.62695 156.705 9.62695C156.599 9.62695 156.514 9.71119 156.514 9.81771C156.517 9.92424 156.601 10.0085 156.705 10.0085Z" fill="#FFECA8"/>
<path d="M166.499 10.0355C166.619 10.0355 166.717 9.93789 166.717 9.81749C166.717 9.69709 166.619 9.59949 166.499 9.59949C166.378 9.59949 166.281 9.69709 166.281 9.81749C166.281 9.93789 166.378 10.0355 166.499 10.0355Z" fill="#FFECA8"/>
<path d="M97.9512 19.6926C97.9959 19.6926 98.0332 19.6553 98.0332 19.6106C98.0332 19.5658 97.9959 19.5286 97.9512 19.5286C97.9064 19.5286 97.8691 19.5658 97.8691 19.6106C97.8691 19.6553 97.9064 19.6926 97.9512 19.6926Z" fill="#FFECA8"/>
<path d="M107.744 19.774C107.833 19.774 107.907 19.7022 107.907 19.6105C107.907 19.5213 107.835 19.447 107.744 19.447C107.654 19.447 107.58 19.5189 107.58 19.6105C107.58 19.7022 107.654 19.774 107.744 19.774Z" fill="#FFECA8"/>
<path d="M117.537 19.8556C117.67 19.8556 117.782 19.7466 117.782 19.6104C117.782 19.4766 117.673 19.3651 117.537 19.3651C117.403 19.3651 117.291 19.4741 117.291 19.6104C117.291 19.7466 117.403 19.8556 117.537 19.8556Z" fill="#FFECA8"/>
<path d="M127.329 19.9373C127.51 19.9373 127.656 19.7912 127.656 19.6103C127.656 19.4295 127.51 19.2833 127.329 19.2833C127.148 19.2833 127.002 19.4295 127.002 19.6103C127.002 19.7912 127.148 19.9373 127.329 19.9373Z" fill="#FFECA8"/>
<path d="M137.122 19.9921C137.333 19.9921 137.501 19.8211 137.501 19.613C137.501 19.4025 137.33 19.234 137.122 19.234C136.911 19.234 136.743 19.4049 136.743 19.613C136.74 19.8211 136.911 19.9921 137.122 19.9921Z" fill="#FFECA8"/>
<path d="M146.915 20.0192C147.14 20.0192 147.321 19.8359 147.321 19.6129C147.321 19.3875 147.138 19.2067 146.915 19.2067C146.692 19.2067 146.509 19.39 146.509 19.6129C146.506 19.8359 146.689 20.0192 146.915 20.0192Z" fill="#FFECA8"/>
<path d="M156.706 20.0463C156.946 20.0463 157.139 19.853 157.139 19.6127C157.139 19.3724 156.943 19.1792 156.706 19.1792C156.465 19.1792 156.272 19.3749 156.272 19.6127C156.272 19.8506 156.468 20.0463 156.706 20.0463Z" fill="#FFECA8"/>
<path d="M166.498 20.0738C166.753 20.0738 166.959 19.8682 166.959 19.613C166.959 19.3578 166.753 19.1522 166.498 19.1522C166.243 19.1522 166.037 19.3578 166.037 19.613C166.037 19.8657 166.243 20.0738 166.498 20.0738Z" fill="#FFECA8"/>
<path d="M78.3675 29.458C78.3973 29.458 78.4221 29.4332 78.4221 29.4033C78.4221 29.3735 78.3973 29.3486 78.3675 29.3486C78.3376 29.3486 78.3127 29.3735 78.3127 29.4033C78.3127 29.4332 78.3351 29.458 78.3675 29.458Z" fill="#FFECA8"/>
<path d="M88.1579 29.5666C88.247 29.5666 88.3214 29.4948 88.3214 29.4031C88.3214 29.3139 88.2495 29.2396 88.1579 29.2396C88.0687 29.2396 87.9944 29.3115 87.9944 29.4031C87.9969 29.4923 88.0687 29.5666 88.1579 29.5666Z" fill="#FFECA8"/>
<path d="M97.9509 29.703C98.1168 29.703 98.2506 29.5693 98.2506 29.4033C98.2506 29.2373 98.1168 29.1035 97.9509 29.1035C97.7849 29.1035 97.6511 29.2373 97.6511 29.4033C97.6536 29.5693 97.7874 29.703 97.9509 29.703Z" fill="#FFECA8"/>
<path d="M107.744 29.7847C107.954 29.7847 108.123 29.6138 108.123 29.4032C108.123 29.1926 107.952 29.0242 107.744 29.0242C107.533 29.0242 107.365 29.1951 107.365 29.4032C107.365 29.6138 107.533 29.7847 107.744 29.7847Z" fill="#FFECA8"/>
<path d="M117.536 29.8912C117.806 29.8912 118.024 29.6732 118.024 29.4032C118.024 29.1332 117.806 28.9152 117.536 28.9152C117.266 28.9152 117.048 29.1332 117.048 29.4032C117.048 29.6732 117.266 29.8912 117.536 29.8912Z" fill="#FFECA8"/>
<path d="M127.33 29.9732C127.644 29.9732 127.899 29.718 127.899 29.4034C127.899 29.0888 127.644 28.8336 127.33 28.8336C127.015 28.8336 126.76 29.0888 126.76 29.4034C126.76 29.718 127.015 29.9732 127.33 29.9732Z" fill="#FFECA8"/>
<path d="M137.122 30.0273C137.466 30.0273 137.746 29.7473 137.746 29.403C137.746 29.0586 137.466 28.7787 137.122 28.7787C136.778 28.7787 136.498 29.0586 136.498 29.403C136.498 29.7473 136.775 30.0273 137.122 30.0273Z" fill="#FFECA8"/>
<path d="M146.915 30.0548C147.274 30.0548 147.566 29.7625 147.566 29.4032C147.566 29.044 147.274 28.7517 146.915 28.7517C146.556 28.7517 146.263 29.044 146.263 29.4032C146.261 29.7625 146.553 30.0548 146.915 30.0548Z" fill="#FFECA8"/>
<path d="M156.706 30.0822C157.08 30.0822 157.384 29.7775 157.384 29.4034C157.384 29.0293 157.08 28.7246 156.706 28.7246C156.332 28.7246 156.027 29.0293 156.027 29.4034C156.027 29.7775 156.332 30.0822 156.706 30.0822Z" fill="#FFECA8"/>
<path d="M166.498 30.1091C166.887 30.1091 167.204 29.792 167.204 29.4031C167.204 29.0141 166.887 28.697 166.498 28.697C166.109 28.697 165.792 29.0141 165.792 29.4031C165.792 29.792 166.109 30.1091 166.498 30.1091Z" fill="#FFECA8"/>
<path d="M68.5746 39.305C68.634 39.305 68.6836 39.2555 68.6836 39.196C68.6836 39.1366 68.634 39.087 68.5746 39.087C68.5151 39.087 68.4656 39.1366 68.4656 39.196C68.4656 39.2555 68.5151 39.305 68.5746 39.305Z" fill="#FFECA8"/>
<path d="M78.3676 39.4413C78.5014 39.4413 78.6128 39.3323 78.6128 39.1961C78.6128 39.0598 78.5038 38.9508 78.3676 38.9508C78.2338 38.9508 78.1223 39.0598 78.1223 39.1961C78.1223 39.3323 78.2313 39.4413 78.3676 39.4413Z" fill="#FFECA8"/>
<path d="M88.1578 39.5751C88.3684 39.5751 88.5369 39.4042 88.5369 39.1936C88.5369 38.983 88.3659 38.8146 88.1578 38.8146C87.9472 38.8146 87.7788 38.9855 87.7788 39.1936C87.7788 39.4067 87.9497 39.5751 88.1578 39.5751Z" fill="#FFECA8"/>
<path d="M97.9508 39.7115C98.2357 39.7115 98.4661 39.4811 98.4661 39.1962C98.4661 38.9113 98.2357 38.6809 97.9508 38.6809C97.6659 38.6809 97.4355 38.9113 97.4355 39.1962C97.4355 39.4811 97.6659 39.7115 97.9508 39.7115Z" fill="#FFECA8"/>
<path d="M107.744 39.8203C108.088 39.8203 108.368 39.5404 108.368 39.1961C108.368 38.8517 108.088 38.5718 107.744 38.5718C107.399 38.5718 107.119 38.8517 107.119 39.1961C107.119 39.5404 107.399 39.8203 107.744 39.8203Z" fill="#FFECA8"/>
<path d="M117.536 39.9022C117.925 39.9022 118.242 39.5851 118.242 39.1961C118.242 38.8072 117.925 38.4901 117.536 38.4901C117.147 38.4901 116.83 38.8072 116.83 39.1961C116.83 39.5851 117.147 39.9022 117.536 39.9022Z" fill="#FFECA8"/>
<path d="M127.329 39.9842C127.765 39.9842 128.117 39.6324 128.117 39.1964C128.117 38.7603 127.765 38.4086 127.329 38.4086C126.893 38.4086 126.542 38.7603 126.542 39.1964C126.542 39.6324 126.893 39.9842 127.329 39.9842Z" fill="#FFECA8"/>
<path d="M137.122 40.0659C137.602 40.0659 137.991 39.6769 137.991 39.1963C137.991 38.7157 137.602 38.3268 137.122 38.3268C136.641 38.3268 136.252 38.7157 136.252 39.1963C136.252 39.6769 136.641 40.0659 137.122 40.0659Z" fill="#FFECA8"/>
<path d="M146.915 40.0929C147.41 40.0929 147.812 39.6916 147.812 39.1961C147.812 38.7006 147.41 38.2993 146.915 38.2993C146.419 38.2993 146.018 38.7006 146.018 39.1961C146.018 39.6916 146.419 40.0929 146.915 40.0929Z" fill="#FFECA8"/>
<path d="M156.705 40.1201C157.216 40.1201 157.629 39.7063 157.629 39.196C157.629 38.6857 157.216 38.272 156.705 38.272C156.195 38.272 155.781 38.6857 155.781 39.196C155.784 39.7063 156.197 40.1201 156.705 40.1201Z" fill="#FFECA8"/>
<path d="M166.498 40.1472C167.023 40.1472 167.449 39.7211 167.449 39.1959C167.449 38.6707 167.023 38.2446 166.498 38.2446C165.973 38.2446 165.547 38.6707 165.547 39.1959C165.549 39.7211 165.973 40.1472 166.498 40.1472Z" fill="#FFECA8"/>
<path d="M48.9896 49.0176C49.0048 49.0176 49.0175 49.0049 49.0175 48.9897C49.0175 48.9745 49.0048 48.9618 48.9896 48.9618C48.9744 48.9618 48.9617 48.9745 48.9617 48.9897C48.9617 49.0049 48.9744 49.0176 48.9896 49.0176Z" fill="#FFECA8"/>
<path d="M58.7818 49.1253C58.8561 49.1253 58.918 49.0634 58.918 48.989C58.918 48.9147 58.8561 48.8528 58.7818 48.8528C58.7075 48.8528 58.6455 48.9147 58.6455 48.989C58.6455 49.0634 58.7075 49.1253 58.7818 49.1253Z" fill="#FFECA8"/>
<path d="M68.5747 49.2863C68.7407 49.2863 68.8744 49.1525 68.8744 48.9865C68.8744 48.8205 68.7407 48.6868 68.5747 48.6868C68.4087 48.6868 68.2749 48.8205 68.2749 48.9865C68.2749 49.1525 68.4087 49.2863 68.5747 49.2863Z" fill="#FFECA8"/>
<path d="M78.3673 49.4499C78.6225 49.4499 78.8281 49.2443 78.8281 48.9891C78.8281 48.7339 78.6225 48.5283 78.3673 48.5283C78.1122 48.5283 77.9065 48.7339 77.9065 48.9891C77.904 49.2443 78.1122 49.4499 78.3673 49.4499Z" fill="#FFECA8"/>
<path d="M88.158 49.586C88.4875 49.586 88.7551 49.3185 88.7551 48.989C88.7551 48.6595 88.4875 48.392 88.158 48.392C87.8286 48.392 87.561 48.6595 87.561 48.989C87.561 49.3185 87.8286 49.586 88.158 49.586Z" fill="#FFECA8"/>
<path d="M97.9508 49.7224C98.3546 49.7224 98.6841 49.393 98.6841 48.9892C98.6841 48.5853 98.3571 48.2559 97.9508 48.2559C97.5445 48.2559 97.2175 48.5829 97.2175 48.9892C97.2175 49.393 97.547 49.7224 97.9508 49.7224Z" fill="#FFECA8"/>
<path d="M107.744 49.8314C108.209 49.8314 108.586 49.4549 108.586 48.9891C108.586 48.5234 108.209 48.1469 107.744 48.1469C107.278 48.1469 106.901 48.5234 106.901 48.9891C106.901 49.4524 107.278 49.8314 107.744 49.8314Z" fill="#FFECA8"/>
<path d="M117.537 49.9379C118.062 49.9379 118.488 49.5118 118.488 48.9866C118.488 48.4614 118.062 48.0353 117.537 48.0353C117.011 48.0353 116.585 48.4614 116.585 48.9866C116.585 49.5118 117.011 49.9379 117.537 49.9379Z" fill="#FFECA8"/>
<path d="M127.329 50.0194C127.899 50.0194 128.362 49.5562 128.362 48.9864C128.362 48.4166 127.901 47.9558 127.329 47.9558C126.759 47.9558 126.296 48.4191 126.296 48.9864C126.296 49.5586 126.759 50.0194 127.329 50.0194Z" fill="#FFECA8"/>
<path d="M137.122 50.074C137.722 50.074 138.207 49.5884 138.207 48.9864C138.207 48.3869 137.722 47.9014 137.122 47.9014C136.523 47.9014 136.037 48.3869 136.037 48.9864C136.035 49.5884 136.523 50.074 137.122 50.074Z" fill="#FFECA8"/>
<path d="M146.915 50.1286C147.544 50.1286 148.055 49.6183 148.055 48.989C148.055 48.3598 147.544 47.8495 146.915 47.8495C146.286 47.8495 145.775 48.3598 145.775 48.989C145.773 49.6183 146.283 50.1286 146.915 50.1286Z" fill="#FFECA8"/>
<path d="M156.705 50.1559C157.35 50.1559 157.872 49.6332 157.872 48.9891C157.872 48.345 157.35 47.8223 156.705 47.8223C156.061 47.8223 155.539 48.345 155.539 48.9891C155.539 49.6332 156.061 50.1559 156.705 50.1559Z" fill="#FFECA8"/>
<path d="M166.498 50.1831C167.157 50.1831 167.692 49.648 167.692 48.989C167.692 48.33 167.157 47.7949 166.498 47.7949C165.839 47.7949 165.304 48.33 165.304 48.989C165.304 49.648 165.839 50.1831 166.498 50.1831Z" fill="#FFECA8"/>
<path d="M48.9895 58.9155C49.0638 58.9155 49.1258 58.8535 49.1258 58.7792C49.1258 58.7049 49.0638 58.6429 48.9895 58.6429C48.9152 58.6429 48.8533 58.7049 48.8533 58.7792C48.8533 58.856 48.9152 58.9155 48.9895 58.9155Z" fill="#FFECA8"/>
<path d="M58.7814 59.0791C58.9474 59.0791 59.0812 58.9454 59.0812 58.7794C59.0812 58.6134 58.9474 58.4796 58.7814 58.4796C58.6155 58.4796 58.4817 58.6134 58.4817 58.7794C58.4817 58.9454 58.6155 59.0791 58.7814 59.0791Z" fill="#FFECA8"/>
<path d="M68.5745 59.2699C68.8445 59.2699 69.0625 59.0519 69.0625 58.7819C69.0625 58.5118 68.8445 58.2938 68.5745 58.2938C68.3044 58.2938 68.0864 58.5118 68.0864 58.7819C68.084 59.0519 68.3044 59.2699 68.5745 59.2699Z" fill="#FFECA8"/>
<path d="M78.3674 59.4334C78.7266 59.4334 79.0189 59.1411 79.0189 58.7819C79.0189 58.4227 78.7266 58.1304 78.3674 58.1304C78.0081 58.1304 77.7158 58.4227 77.7158 58.7819C77.7158 59.1411 78.0057 59.4334 78.3674 59.4334Z" fill="#FFECA8"/>
<path d="M88.1579 59.5695C88.5939 59.5695 88.9457 59.2177 88.9457 58.7817C88.9457 58.3457 88.5939 57.9939 88.1579 57.9939C87.7219 57.9939 87.3701 58.3457 87.3701 58.7817C87.3726 59.2152 87.7244 59.5695 88.1579 59.5695Z" fill="#FFECA8"/>
<path d="M97.9509 59.7033C98.4612 59.7033 98.8749 59.2896 98.8749 58.7793C98.8749 58.2689 98.4612 57.8552 97.9509 57.8552C97.4406 57.8552 97.0269 58.2689 97.0269 58.7793C97.0293 59.2921 97.4406 59.7033 97.9509 59.7033Z" fill="#FFECA8"/>
<path d="M107.744 59.8395C108.328 59.8395 108.804 59.3664 108.804 58.7793C108.804 58.1946 108.331 57.7214 107.744 57.7214C107.159 57.7214 106.683 58.1946 106.683 58.7793C106.686 59.3664 107.159 59.8395 107.744 59.8395Z" fill="#FFECA8"/>
<path d="M117.537 59.9486C118.181 59.9486 118.704 59.4259 118.704 58.7818C118.704 58.1377 118.181 57.615 117.537 57.615C116.893 57.615 116.37 58.1377 116.37 58.7818C116.37 59.4259 116.893 59.9486 117.537 59.9486Z" fill="#FFECA8"/>
<path d="M127.329 60.0305C128.018 60.0305 128.578 59.4706 128.578 58.7819C128.578 58.0932 128.018 57.5333 127.329 57.5333C126.641 57.5333 126.081 58.0932 126.081 58.7819C126.081 59.4706 126.638 60.0305 127.329 60.0305Z" fill="#FFECA8"/>
<path d="M137.122 60.1121C137.858 60.1121 138.453 59.5175 138.453 58.7818C138.453 58.046 137.858 57.4514 137.122 57.4514C136.387 57.4514 135.792 58.046 135.792 58.7818C135.792 59.515 136.387 60.1121 137.122 60.1121Z" fill="#FFECA8"/>
<path d="M146.915 60.1667C147.681 60.1667 148.3 59.5474 148.3 58.7819C148.3 58.0164 147.681 57.3971 146.915 57.3971C146.15 57.3971 145.53 58.0164 145.53 58.7819C145.53 59.5449 146.15 60.1667 146.915 60.1667Z" fill="#FFECA8"/>
<path d="M156.706 60.1936C157.486 60.1936 158.118 59.5619 158.118 58.7816C158.118 58.0012 157.486 57.3695 156.706 57.3695C155.925 57.3695 155.293 58.0012 155.293 58.7816C155.293 59.5595 155.928 60.1936 156.706 60.1936Z" fill="#FFECA8"/>
<path d="M166.498 60.2212C167.293 60.2212 167.937 59.5771 167.937 58.7819C167.937 57.9866 167.293 57.3425 166.498 57.3425C165.703 57.3425 165.059 57.9866 165.059 58.7819C165.059 59.5746 165.703 60.2212 166.498 60.2212Z" fill="#FFECA8"/>
<path d="M176.291 60.2212C177.086 60.2212 177.73 59.5771 177.73 58.7819C177.73 57.9866 177.086 57.3425 176.291 57.3425C175.496 57.3425 174.852 57.9866 174.852 58.7819C174.852 59.5746 175.496 60.2212 176.291 60.2212Z" fill="#FFECA8"/>
<path d="M39.1959 68.6813C39.2554 68.6813 39.3049 68.6317 39.3049 68.5723C39.3049 68.5128 39.2554 68.4633 39.1959 68.4633C39.1365 68.4633 39.0869 68.5128 39.0869 68.5723C39.0869 68.6342 39.1365 68.6813 39.1959 68.6813Z" fill="#FFECA8"/>
<path d="M48.9887 68.8718C49.1547 68.8718 49.2885 68.7381 49.2885 68.5721C49.2885 68.4061 49.1547 68.2723 48.9887 68.2723C48.8227 68.2723 48.689 68.4061 48.689 68.5721C48.6914 68.7381 48.8227 68.8718 48.9887 68.8718Z" fill="#FFECA8"/>
<path d="M58.7822 69.0627C59.0522 69.0627 59.2702 68.8447 59.2702 68.5747C59.2702 68.3047 59.0522 68.0867 58.7822 68.0867C58.5122 68.0867 58.2942 68.3047 58.2942 68.5747C58.2942 68.8422 58.5122 69.0627 58.7822 69.0627Z" fill="#FFECA8"/>
<path d="M68.5744 69.2235C68.9342 69.2235 69.2259 68.9318 69.2259 68.5719C69.2259 68.2121 68.9342 67.9204 68.5744 67.9204C68.2146 67.9204 67.9229 68.2121 67.9229 68.5719C67.9229 68.9318 68.2146 69.2235 68.5744 69.2235Z" fill="#FFECA8"/>
<path d="M78.3677 69.4144C78.8334 69.4144 79.21 69.0379 79.21 68.5721C79.21 68.1064 78.8334 67.7299 78.3677 67.7299C77.9019 67.7299 77.5254 68.1064 77.5254 68.5721C77.5254 69.0379 77.9019 69.4144 78.3677 69.4144Z" fill="#FFECA8"/>
<path d="M88.1582 69.551C88.6983 69.551 89.1368 69.1125 89.1368 68.5724C89.1368 68.0324 88.6983 67.5939 88.1582 67.5939C87.6182 67.5939 87.1797 68.0324 87.1797 68.5724C87.1822 69.1125 87.6206 69.551 88.1582 69.551Z" fill="#FFECA8"/>
<path d="M97.9506 69.7142C98.5798 69.7142 99.0902 69.2039 99.0902 68.5746C99.0902 67.9454 98.5798 67.4351 97.9506 67.4351C97.3214 67.4351 96.811 67.9454 96.811 68.5746C96.811 69.2039 97.3214 69.7142 97.9506 69.7142Z" fill="#FFECA8"/>
<path d="M107.744 69.8506C108.45 69.8506 109.019 69.2783 109.019 68.5748C109.019 67.8712 108.447 67.299 107.744 67.299C107.038 67.299 106.468 67.8712 106.468 68.5748C106.468 69.2783 107.04 69.8506 107.744 69.8506Z" fill="#FFECA8"/>
<path d="M117.536 69.9592C118.302 69.9592 118.921 69.3399 118.921 68.5744C118.921 67.8089 118.302 67.1896 117.536 67.1896C116.771 67.1896 116.152 67.8089 116.152 68.5744C116.152 69.3374 116.771 69.9592 117.536 69.9592Z" fill="#FFECA8"/>
<path d="M127.329 70.0661C128.154 70.0661 128.823 69.3973 128.823 68.5723C128.823 67.7474 128.154 67.0785 127.329 67.0785C126.505 67.0785 125.836 67.7474 125.836 68.5723C125.836 69.3973 126.505 70.0661 127.329 70.0661Z" fill="#FFECA8"/>
<path d="M137.122 70.1476C137.992 70.1476 138.698 69.4422 138.698 68.572C138.698 67.7019 137.992 66.9965 137.122 66.9965C136.252 66.9965 135.546 67.7019 135.546 68.572C135.546 69.4422 136.252 70.1476 137.122 70.1476Z" fill="#FFECA8"/>
<path d="M146.914 70.2023C147.814 70.2023 148.545 69.474 148.545 68.5722C148.545 67.673 147.816 66.9421 146.914 66.9421C146.013 66.9421 145.284 67.6705 145.284 68.5722C145.284 69.474 146.013 70.2023 146.914 70.2023Z" fill="#FFECA8"/>
<path d="M156.706 70.257C157.635 70.257 158.39 69.5039 158.39 68.5724C158.39 67.6434 157.637 66.8878 156.706 66.8878C155.777 66.8878 155.021 67.6409 155.021 68.5724C155.023 69.5039 155.777 70.257 156.706 70.257Z" fill="#FFECA8"/>
<path d="M166.498 70.257C167.427 70.257 168.183 69.5039 168.183 68.5724C168.183 67.6434 167.43 66.8878 166.498 66.8878C165.569 66.8878 164.813 67.6409 164.813 68.5724C164.816 69.5039 165.569 70.257 166.498 70.257Z" fill="#FFECA8"/>
<path d="M176.291 70.257C177.22 70.257 177.976 69.5039 177.976 68.5724C177.976 67.6434 177.222 66.8878 176.291 66.8878C175.362 66.8878 174.606 67.6409 174.606 68.5724C174.606 69.5039 175.362 70.257 176.291 70.257Z" fill="#FFECA8"/>
<path d="M29.4031 78.4199C29.4329 78.4199 29.4578 78.3951 29.4578 78.3652C29.4578 78.3354 29.4329 78.3105 29.4031 78.3105C29.3733 78.3105 29.3484 78.3354 29.3484 78.3652C29.3484 78.3951 29.3733 78.4199 29.4031 78.4199Z" fill="#FFECA8"/>
<path d="M39.1962 78.6104C39.33 78.6104 39.4415 78.5014 39.4415 78.3651C39.4415 78.2289 39.3325 78.1199 39.1962 78.1199C39.0624 78.1199 38.9509 78.2289 38.9509 78.3651C38.9509 78.5014 39.0624 78.6104 39.1962 78.6104Z" fill="#FFECA8"/>
<path d="M48.9889 78.8283C49.244 78.8283 49.4496 78.6227 49.4496 78.3675C49.4496 78.1124 49.244 77.9067 48.9889 77.9067C48.7337 77.9067 48.5281 78.1124 48.5281 78.3675C48.5281 78.6202 48.7337 78.8283 48.9889 78.8283Z" fill="#FFECA8"/>
<path d="M58.7814 79.0166C59.1413 79.0166 59.433 78.7249 59.433 78.365C59.433 78.0052 59.1413 77.7135 58.7814 77.7135C58.4216 77.7135 58.1299 78.0052 58.1299 78.365C58.1299 78.7249 58.4216 79.0166 58.7814 79.0166Z" fill="#FFECA8"/>
<path d="M68.5747 79.2074C69.0405 79.2074 69.417 78.8309 69.417 78.3651C69.417 77.8994 69.0405 77.5228 68.5747 77.5228C68.109 77.5228 67.7324 77.8994 67.7324 78.3651C67.7324 78.8309 68.109 79.2074 68.5747 79.2074Z" fill="#FFECA8"/>
<path d="M78.3674 79.371C78.9223 79.371 79.3732 78.9201 79.3732 78.3652C79.3732 77.8102 78.9223 77.3594 78.3674 77.3594C77.8125 77.3594 77.3616 77.8102 77.3616 78.3652C77.3616 78.9201 77.8125 79.371 78.3674 79.371Z" fill="#FFECA8"/>
<path d="M88.1583 79.5344C88.8024 79.5344 89.3251 79.0117 89.3251 78.3676C89.3251 77.7235 88.8024 77.2008 88.1583 77.2008C87.5142 77.2008 86.9915 77.7235 86.9915 78.3676C86.9915 79.0117 87.5142 79.5344 88.1583 79.5344Z" fill="#FFECA8"/>
<path d="M97.9507 79.6956C98.6864 79.6956 99.281 79.101 99.281 78.3652C99.281 77.6295 98.6864 77.0349 97.9507 77.0349C97.2149 77.0349 96.6204 77.6295 96.6204 78.3652C96.6204 79.101 97.2174 79.6956 97.9507 79.6956Z" fill="#FFECA8"/>
<path d="M107.744 79.859C108.569 79.859 109.237 79.1901 109.237 78.3652C109.237 77.5402 108.569 76.8713 107.744 76.8713C106.919 76.8713 106.25 77.5402 106.25 78.3652C106.25 79.1901 106.919 79.859 107.744 79.859Z" fill="#FFECA8"/>
<path d="M117.536 79.9677C118.421 79.9677 119.139 79.2493 119.139 78.3649C119.139 77.4805 118.421 76.7621 117.536 76.7621C116.652 76.7621 115.934 77.4805 115.934 78.3649C115.934 79.2518 116.652 79.9677 117.536 79.9677Z" fill="#FFECA8"/>
<path d="M127.329 80.0767C128.273 80.0767 129.041 79.3112 129.041 78.3649C129.041 77.421 128.276 76.6555 127.329 76.6555C126.386 76.6555 125.618 77.421 125.618 78.3649C125.618 79.3112 126.383 80.0767 127.329 80.0767Z" fill="#FFECA8"/>
<path d="M137.122 80.1858C138.128 80.1858 138.94 79.3707 138.94 78.3674C138.94 77.3616 138.125 76.5491 137.122 76.5491C136.116 76.5491 135.304 77.3641 135.304 78.3674C135.301 79.3707 136.116 80.1858 137.122 80.1858Z" fill="#FFECA8"/>
<path d="M148.654 79.0767C149.05 78.121 148.596 77.0255 147.641 76.6296C146.685 76.2338 145.589 76.6876 145.194 77.6432C144.798 78.5988 145.252 79.6944 146.207 80.0903C147.163 80.4861 148.258 80.0323 148.654 79.0767Z" fill="#FFECA8"/>
<path d="M156.705 80.2949C157.771 80.2949 158.633 79.4328 158.633 78.3676C158.633 77.3023 157.771 76.4402 156.705 76.4402C155.64 76.4402 154.778 77.3023 154.778 78.3676C154.778 79.4303 155.643 80.2949 156.705 80.2949Z" fill="#FFECA8"/>
<path d="M166.498 80.2949C167.563 80.2949 168.425 79.4328 168.425 78.3676C168.425 77.3023 167.563 76.4402 166.498 76.4402C165.433 76.4402 164.571 77.3023 164.571 78.3676C164.571 79.4303 165.433 80.2949 166.498 80.2949Z" fill="#FFECA8"/>
<path d="M176.291 80.2949C177.356 80.2949 178.218 79.4328 178.218 78.3676C178.218 77.3023 177.356 76.4402 176.291 76.4402C175.226 76.4402 174.364 77.3023 174.364 78.3676C174.364 79.4303 175.226 80.2949 176.291 80.2949Z" fill="#FFECA8"/>
<path d="M29.4033 88.3214C29.4924 88.3214 29.5668 88.2495 29.5668 88.1579C29.5668 88.0687 29.4949 87.9944 29.4033 87.9944C29.3141 87.9944 29.2397 88.0662 29.2397 88.1579C29.2422 88.2495 29.3141 88.3214 29.4033 88.3214Z" fill="#FFECA8"/>
<path d="M39.1957 88.5396C39.4063 88.5396 39.5747 88.3686 39.5747 88.1581C39.5747 87.9475 39.4038 87.7791 39.1957 87.7791C38.9851 87.7791 38.8167 87.95 38.8167 88.1581C38.8167 88.3686 38.9851 88.5396 39.1957 88.5396Z" fill="#FFECA8"/>
<path d="M48.9889 88.7549C49.3183 88.7549 49.5859 88.4873 49.5859 88.1578C49.5859 87.8283 49.3183 87.5608 48.9889 87.5608C48.6594 87.5608 48.3918 87.8283 48.3918 88.1578C48.3918 88.4873 48.6594 88.7549 48.9889 88.7549Z" fill="#FFECA8"/>
<path d="M58.7819 88.9457C59.218 88.9457 59.5697 88.5939 59.5697 88.1579C59.5697 87.7219 59.218 87.3701 58.7819 87.3701C58.3459 87.3701 57.9941 87.7219 57.9941 88.1579C57.9941 88.5939 58.3459 88.9457 58.7819 88.9457Z" fill="#FFECA8"/>
<path d="M68.5743 89.1362C69.1143 89.1362 69.5528 88.6977 69.5528 88.1576C69.5528 87.6176 69.1143 87.1791 68.5743 87.1791C68.0342 87.1791 67.5957 87.6176 67.5957 88.1576C67.5957 88.6977 68.0342 89.1362 68.5743 89.1362Z" fill="#FFECA8"/>
<path d="M78.3678 89.3271C79.0119 89.3271 79.5346 88.8043 79.5346 88.1602C79.5346 87.5161 79.0119 86.9934 78.3678 86.9934C77.7237 86.9934 77.2009 87.5161 77.2009 88.1602C77.1985 88.8043 77.7212 89.3271 78.3678 89.3271Z" fill="#FFECA8"/>
<path d="M88.1576 89.5153C88.9082 89.5153 89.5152 88.9084 89.5152 88.1577C89.5152 87.4071 88.9082 86.8002 88.1576 86.8002C87.407 86.8002 86.8 87.4071 86.8 88.1577C86.8 88.9084 87.4095 89.5153 88.1576 89.5153Z" fill="#FFECA8"/>
<path d="M97.9503 89.6788C98.7901 89.6788 99.4714 88.9975 99.4714 88.1577C99.4714 87.3179 98.7901 86.6366 97.9503 86.6366C97.1105 86.6366 96.4292 87.3179 96.4292 88.1577C96.4292 88.9975 97.1105 89.6788 97.9503 89.6788Z" fill="#FFECA8"/>
<path d="M107.744 89.8423C108.673 89.8423 109.428 89.0892 109.428 88.1577C109.428 87.2287 108.675 86.4731 107.744 86.4731C106.815 86.4731 106.059 87.2262 106.059 88.1577C106.062 89.0867 106.815 89.8423 107.744 89.8423Z" fill="#FFECA8"/>
<path d="M117.536 89.979C118.542 89.979 119.355 89.1639 119.355 88.1606C119.355 87.1548 118.54 86.3423 117.536 86.3423C116.531 86.3423 115.718 87.1573 115.718 88.1606C115.718 89.1639 116.531 89.979 117.536 89.979Z" fill="#FFECA8"/>
<path d="M127.33 90.0854C128.395 90.0854 129.257 89.2233 129.257 88.1581C129.257 87.0928 128.395 86.2307 127.33 86.2307C126.264 86.2307 125.402 87.0928 125.402 88.1581C125.402 89.2233 126.264 90.0854 127.33 90.0854Z" fill="#FFECA8"/>
<path d="M137.122 90.1944C138.247 90.1944 139.159 89.2828 139.159 88.1581C139.159 87.0334 138.247 86.1217 137.122 86.1217C135.998 86.1217 135.086 87.0334 135.086 88.1581C135.086 89.2828 135.998 90.1944 137.122 90.1944Z" fill="#FFECA8"/>
<path d="M146.915 90.2759C148.084 90.2759 149.033 89.3271 149.033 88.1578C149.033 86.9885 148.084 86.0397 146.915 86.0397C145.745 86.0397 144.796 86.9885 144.796 88.1578C144.796 89.3271 145.743 90.2759 146.915 90.2759Z" fill="#FFECA8"/>
<path d="M156.705 90.3032C157.89 90.3032 158.851 89.342 158.851 88.1578C158.851 86.9736 157.89 86.0125 156.705 86.0125C155.521 86.0125 154.56 86.9736 154.56 88.1578C154.56 89.342 155.521 90.3032 156.705 90.3032Z" fill="#FFECA8"/>
<path d="M166.498 90.3307C167.697 90.3307 168.671 89.3571 168.671 88.1581C168.671 86.9591 167.697 85.9855 166.498 85.9855C165.299 85.9855 164.326 86.9591 164.326 88.1581C164.326 89.3571 165.299 90.3307 166.498 90.3307Z" fill="#FFECA8"/>
<path d="M176.291 90.3307C177.49 90.3307 178.464 89.3571 178.464 88.1581C178.464 86.9591 177.49 85.9855 176.291 85.9855C175.092 85.9855 174.119 86.9591 174.119 88.1581C174.119 89.3571 175.092 90.3307 176.291 90.3307Z" fill="#FFECA8"/>
<path d="M19.6128 98.0332C19.6575 98.0332 19.6948 97.9959 19.6948 97.9512C19.6948 97.9064 19.6575 97.8691 19.6128 97.8691C19.5681 97.8691 19.5308 97.9064 19.5308 97.9512C19.5308 97.9959 19.5656 98.0332 19.6128 98.0332Z" fill="#FFECA8"/>
<path d="M29.4033 98.2505C29.5693 98.2505 29.703 98.1167 29.703 97.9508C29.703 97.7848 29.5693 97.651 29.4033 97.651C29.2373 97.651 29.1035 97.7848 29.1035 97.9508C29.106 98.1167 29.2398 98.2505 29.4033 98.2505Z" fill="#FFECA8"/>
<path d="M39.1957 98.4659C39.4806 98.4659 39.711 98.2355 39.711 97.9506C39.711 97.6657 39.4806 97.4353 39.1957 97.4353C38.9108 97.4353 38.6804 97.6657 38.6804 97.9506C38.6804 98.2355 38.9108 98.4659 39.1957 98.4659Z" fill="#FFECA8"/>
<path d="M48.9889 98.6841C49.3927 98.6841 49.7222 98.3546 49.7222 97.9508C49.7222 97.547 49.3952 97.2175 48.9889 97.2175C48.5851 97.2175 48.2556 97.5445 48.2556 97.9508C48.2556 98.3546 48.5851 98.6841 48.9889 98.6841Z" fill="#FFECA8"/>
<path d="M58.7819 98.8747C59.2923 98.8747 59.706 98.461 59.706 97.9507C59.706 97.4403 59.2923 97.0266 58.7819 97.0266C58.2716 97.0266 57.8579 97.4403 57.8579 97.9507C57.8579 98.461 58.2716 98.8747 58.7819 98.8747Z" fill="#FFECA8"/>
<path d="M68.5744 99.0905C69.2036 99.0905 69.7139 98.5802 69.7139 97.951C69.7139 97.3217 69.2036 96.8114 68.5744 96.8114C67.9451 96.8114 67.4348 97.3217 67.4348 97.951C67.4323 98.5802 67.9451 99.0905 68.5744 99.0905Z" fill="#FFECA8"/>
<path d="M78.3674 99.2812C79.1032 99.2812 79.6978 98.6867 79.6978 97.9509C79.6978 97.2152 79.1032 96.6206 78.3674 96.6206C77.6317 96.6206 77.0371 97.2152 77.0371 97.9509C77.0346 98.6867 77.6317 99.2812 78.3674 99.2812Z" fill="#FFECA8"/>
<path d="M88.158 99.4718C88.9978 99.4718 89.6791 98.7906 89.6791 97.9508C89.6791 97.111 88.9978 96.4297 88.158 96.4297C87.3182 96.4297 86.637 97.111 86.637 97.9508C86.6394 98.7906 87.3182 99.4718 88.158 99.4718Z" fill="#FFECA8"/>
<path d="M97.9506 99.6625C98.8945 99.6625 99.6624 98.897 99.6624 97.9507C99.6624 97.0068 98.8969 96.2413 97.9506 96.2413C97.0067 96.2413 96.2388 97.0068 96.2388 97.9507C96.2412 98.8946 97.0067 99.6625 97.9506 99.6625Z" fill="#FFECA8"/>
<path d="M107.743 99.8236C108.779 99.8236 109.616 98.9838 109.616 97.9507C109.616 96.9152 108.776 96.0779 107.743 96.0779C106.71 96.0779 105.87 96.9177 105.87 97.9507C105.87 98.9863 106.708 99.8236 107.743 99.8236Z" fill="#FFECA8"/>
<path d="M117.537 99.96C118.647 99.96 119.546 99.0607 119.546 97.9509C119.546 96.841 118.647 95.9418 117.537 95.9418C116.427 95.9418 115.528 96.841 115.528 97.9509C115.528 99.0607 116.427 99.96 117.537 99.96Z" fill="#FFECA8"/>
<path d="M127.329 100.096C128.513 100.096 129.474 99.1348 129.474 97.9507C129.474 96.7665 128.513 95.8053 127.329 95.8053C126.145 95.8053 125.184 96.7665 125.184 97.9507C125.184 99.1348 126.145 100.096 127.329 100.096Z" fill="#FFECA8"/>
<path d="M137.122 100.232C138.38 100.232 139.404 99.2115 139.404 97.9506C139.404 96.6921 138.383 95.6689 137.122 95.6689C135.861 95.6689 134.84 96.6896 134.84 97.9506C134.84 99.2115 135.861 100.232 137.122 100.232Z" fill="#FFECA8"/>
<path d="M146.915 100.314C148.221 100.314 149.279 99.2562 149.279 97.9507C149.279 96.6451 148.221 95.5873 146.915 95.5873C145.61 95.5873 144.552 96.6451 144.552 97.9507C144.552 99.2562 145.61 100.314 146.915 100.314Z" fill="#FFECA8"/>
<path d="M156.705 100.369C158.04 100.369 159.123 99.2861 159.123 97.9508C159.123 96.6155 158.04 95.5354 156.705 95.5354C155.37 95.5354 154.287 96.618 154.287 97.9508C154.29 99.2861 155.372 100.369 156.705 100.369Z" fill="#FFECA8"/>
<path d="M166.498 100.369C167.833 100.369 168.916 99.2861 168.916 97.9508C168.916 96.6155 167.833 95.5354 166.498 95.5354C165.163 95.5354 164.08 96.618 164.08 97.9508C164.083 99.2861 165.163 100.369 166.498 100.369Z" fill="#FFECA8"/>
<path d="M176.291 100.369C177.626 100.369 178.707 99.2861 178.707 97.9508C178.707 96.6155 177.624 95.5354 176.291 95.5354C174.956 95.5354 173.873 96.618 173.873 97.9508C173.876 99.2861 174.956 100.369 176.291 100.369Z" fill="#FFECA8"/>
<path d="M19.6132 107.907C19.7024 107.907 19.7767 107.835 19.7767 107.744C19.7767 107.655 19.7049 107.58 19.6132 107.58C19.524 107.58 19.4497 107.652 19.4497 107.744C19.4497 107.833 19.5216 107.907 19.6132 107.907Z" fill="#FFECA8"/>
<path d="M29.403 108.122C29.6135 108.122 29.782 107.951 29.782 107.743C29.782 107.533 29.6111 107.364 29.403 107.364C29.1924 107.364 29.0239 107.535 29.0239 107.743C29.0239 107.954 29.1949 108.122 29.403 108.122Z" fill="#FFECA8"/>
<path d="M39.1963 108.368C39.5407 108.368 39.8206 108.088 39.8206 107.744C39.8206 107.399 39.5407 107.119 39.1963 107.119C38.852 107.119 38.572 107.399 38.572 107.744C38.572 108.088 38.852 108.368 39.1963 108.368Z" fill="#FFECA8"/>
<path d="M48.9888 108.586C49.4545 108.586 49.8311 108.21 49.8311 107.744C49.8311 107.278 49.4545 106.901 48.9888 106.901C48.523 106.901 48.1465 107.278 48.1465 107.744C48.1465 108.21 48.523 108.586 48.9888 108.586Z" fill="#FFECA8"/>
<path d="M58.7815 108.801C59.3661 108.801 59.8393 108.328 59.8393 107.741C59.8393 107.157 59.3661 106.683 58.7815 106.683C58.1968 106.683 57.7212 107.157 57.7212 107.741C57.7212 108.328 58.1968 108.801 58.7815 108.801Z" fill="#FFECA8"/>
<path d="M68.5747 109.02C69.2807 109.02 69.8505 108.447 69.8505 107.744C69.8505 107.04 69.2782 106.468 68.5747 106.468C67.8686 106.468 67.2988 107.04 67.2988 107.744C67.2988 108.447 67.8686 109.02 68.5747 109.02Z" fill="#FFECA8"/>
<path d="M78.3679 109.237C79.1928 109.237 79.8617 108.569 79.8617 107.744C79.8617 106.919 79.1928 106.25 78.3679 106.25C77.5429 106.25 76.874 106.919 76.874 107.744C76.874 108.569 77.5429 109.237 78.3679 109.237Z" fill="#FFECA8"/>
<path d="M88.1575 109.426C89.0865 109.426 89.8421 108.673 89.8421 107.741C89.8421 106.81 89.0889 106.057 88.1575 106.057C87.2285 106.057 86.4729 106.81 86.4729 107.741C86.4729 108.673 87.2285 109.426 88.1575 109.426Z" fill="#FFECA8"/>
<path d="M97.9507 109.616C98.9851 109.616 99.8236 108.778 99.8236 107.744C99.8236 106.709 98.9851 105.871 97.9507 105.871C96.9164 105.871 96.0779 106.709 96.0779 107.744C96.0779 108.778 96.9164 109.616 97.9507 109.616Z" fill="#FFECA8"/>
<path d="M107.744 109.807C108.883 109.807 109.807 108.883 109.807 107.744C109.807 106.604 108.883 105.68 107.744 105.68C106.604 105.68 105.68 106.604 105.68 107.744C105.68 108.883 106.604 109.807 107.744 109.807Z" fill="#FFECA8"/>
<path d="M117.897 109.963C119.112 109.767 119.937 108.623 119.74 107.409C119.544 106.195 118.4 105.37 117.186 105.566C115.972 105.763 115.147 106.906 115.343 108.12C115.539 109.335 116.683 110.16 117.897 109.963Z" fill="#FFECA8"/>
<path d="M127.329 110.105C128.635 110.105 129.693 109.047 129.693 107.741C129.693 106.436 128.635 105.378 127.329 105.378C126.024 105.378 124.966 106.436 124.966 107.741C124.966 109.049 126.024 110.105 127.329 110.105Z" fill="#FFECA8"/>
<path d="M137.123 110.241C138.502 110.241 139.62 109.123 139.62 107.744C139.62 106.364 138.502 105.246 137.123 105.246C135.743 105.246 134.625 106.364 134.625 107.744C134.623 109.123 135.743 110.241 137.123 110.241Z" fill="#FFECA8"/>
<path d="M149.318 108.723C149.859 107.406 149.23 105.899 147.913 105.357C146.596 104.815 145.089 105.444 144.547 106.762C144.006 108.079 144.634 109.586 145.952 110.128C147.269 110.669 148.776 110.04 149.318 108.723Z" fill="#FFECA8"/>
<path d="M156.705 110.377C158.159 110.377 159.339 109.198 159.339 107.744C159.339 106.29 158.159 105.11 156.705 105.11C155.251 105.11 154.072 106.29 154.072 107.744C154.072 109.198 155.251 110.377 156.705 110.377Z" fill="#FFECA8"/>
<path d="M166.498 110.404C167.968 110.404 169.159 109.213 169.159 107.744C169.159 106.274 167.968 105.083 166.498 105.083C165.029 105.083 163.838 106.274 163.838 107.744C163.838 109.213 165.029 110.404 166.498 110.404Z" fill="#FFECA8"/>
<path d="M176.714 110.378C178.164 110.142 179.149 108.774 178.913 107.324C178.676 105.874 177.309 104.889 175.859 105.126C174.409 105.362 173.424 106.729 173.66 108.179C173.897 109.629 175.264 110.614 176.714 110.378Z" fill="#FFECA8"/>
<path d="M9.82087 117.565C9.83609 117.565 9.84879 117.552 9.84879 117.537C9.84879 117.522 9.83609 117.509 9.82087 117.509C9.80565 117.509 9.79297 117.522 9.79297 117.537C9.79297 117.552 9.80565 117.565 9.82087 117.565Z" fill="#FFECA8"/>
<path d="M19.6132 117.779C19.7469 117.779 19.8584 117.67 19.8584 117.534C19.8584 117.4 19.7494 117.289 19.6132 117.289C19.4794 117.289 19.3679 117.398 19.3679 117.534C19.3679 117.67 19.4769 117.779 19.6132 117.779Z" fill="#FFECA8"/>
<path d="M29.4038 118.025C29.6738 118.025 29.8918 117.807 29.8918 117.537C29.8918 117.266 29.6738 117.048 29.4038 117.048C29.1338 117.048 28.9158 117.266 28.9158 117.537C28.9158 117.807 29.1338 118.025 29.4038 118.025Z" fill="#FFECA8"/>
<path d="M39.1958 118.242C39.5847 118.242 39.9018 117.925 39.9018 117.536C39.9018 117.147 39.5847 116.83 39.1958 116.83C38.8069 116.83 38.4897 117.147 38.4897 117.536C38.4897 117.925 38.8069 118.242 39.1958 118.242Z" fill="#FFECA8"/>
<path d="M48.9891 118.485C49.5143 118.485 49.9404 118.059 49.9404 117.534C49.9404 117.009 49.5143 116.583 48.9891 116.583C48.4639 116.583 48.0378 117.009 48.0378 117.534C48.0378 118.059 48.4639 118.485 48.9891 118.485Z" fill="#FFECA8"/>
<path d="M58.782 118.703C59.4261 118.703 59.9489 118.18 59.9489 117.536C59.9489 116.892 59.4261 116.37 58.782 116.37C58.1379 116.37 57.6152 116.892 57.6152 117.536C57.6152 118.18 58.1379 118.703 58.782 118.703Z" fill="#FFECA8"/>
<path d="M68.5745 118.921C69.34 118.921 69.9593 118.302 69.9593 117.536C69.9593 116.771 69.34 116.152 68.5745 116.152C67.809 116.152 67.1897 116.771 67.1897 117.536C67.1897 118.299 67.809 118.921 68.5745 118.921Z" fill="#FFECA8"/>
<path d="M78.3673 119.137C79.2517 119.137 79.9701 118.418 79.9701 117.534C79.9701 116.65 79.2517 115.931 78.3673 115.931C77.4829 115.931 76.7644 116.65 76.7644 117.534C76.7644 118.421 77.4804 119.137 78.3673 119.137Z" fill="#FFECA8"/>
<path d="M88.1582 119.355C89.164 119.355 89.9766 118.54 89.9766 117.537C89.9766 116.531 89.1615 115.718 88.1582 115.718C87.1524 115.718 86.3398 116.533 86.3398 117.537C86.3398 118.54 87.1549 119.355 88.1582 119.355Z" fill="#FFECA8"/>
<path d="M97.9508 119.546C99.0604 119.546 99.9599 118.646 99.9599 117.537C99.9599 116.427 99.0604 115.527 97.9508 115.527C96.8412 115.527 95.9417 116.427 95.9417 117.537C95.9417 118.646 96.8412 119.546 97.9508 119.546Z" fill="#FFECA8"/>
<path d="M107.744 119.764C108.974 119.764 109.971 118.766 109.971 117.536C109.971 116.306 108.974 115.309 107.744 115.309C106.514 115.309 105.517 116.306 105.517 117.536C105.517 118.766 106.514 119.764 107.744 119.764Z" fill="#FFECA8"/>
<path d="M117.536 119.925C118.857 119.925 119.927 118.855 119.927 117.534C119.927 116.214 118.857 115.144 117.536 115.144C116.216 115.144 115.146 116.214 115.146 117.534C115.146 118.855 116.216 119.925 117.536 119.925Z" fill="#FFECA8"/>
<path d="M127.329 120.088C128.739 120.088 129.881 118.946 129.881 117.537C129.881 116.127 128.739 114.985 127.329 114.985C125.92 114.985 124.778 116.127 124.778 117.537C124.775 118.946 125.92 120.088 127.329 120.088Z" fill="#FFECA8"/>
<path d="M137.122 120.252C138.62 120.252 139.837 119.035 139.837 117.537C139.837 116.038 138.62 114.822 137.122 114.822C135.623 114.822 134.406 116.038 134.406 117.537C134.406 119.035 135.62 120.252 137.122 120.252Z" fill="#FFECA8"/>
<path d="M146.915 120.361C148.475 120.361 149.739 119.097 149.739 117.537C149.739 115.976 148.475 114.712 146.915 114.712C145.354 114.712 144.091 115.976 144.091 117.537C144.091 119.095 145.354 120.361 146.915 120.361Z" fill="#FFECA8"/>
<path d="M158.231 119.968C159.576 119.12 159.979 117.342 159.131 115.998C158.283 114.653 156.506 114.25 155.161 115.098C153.816 115.946 153.413 117.723 154.261 119.068C155.109 120.413 156.887 120.816 158.231 119.968Z" fill="#FFECA8"/>
<path d="M166.498 120.442C168.103 120.442 169.404 119.142 169.404 117.536C169.404 115.931 168.103 114.63 166.498 114.63C164.893 114.63 163.592 115.931 163.592 117.536C163.592 119.142 164.893 120.442 166.498 120.442Z" fill="#FFECA8"/>
<path d="M177.141 120.287C178.664 119.832 179.53 118.228 179.074 116.704C178.618 115.181 177.014 114.316 175.491 114.771C173.968 115.227 173.102 116.831 173.558 118.354C174.014 119.878 175.618 120.743 177.141 120.287Z" fill="#FFECA8"/>
<path d="M9.8203 127.412C9.86504 127.412 9.90233 127.375 9.90233 127.33C9.90233 127.285 9.86504 127.248 9.8203 127.248C9.77556 127.248 9.73828 127.285 9.73828 127.33C9.73828 127.375 9.77307 127.412 9.8203 127.412Z" fill="#FFECA8"/>
<path d="M19.6129 127.654C19.7937 127.654 19.9399 127.508 19.9399 127.327C19.9399 127.146 19.7937 127 19.6129 127C19.4321 127 19.2859 127.146 19.2859 127.327C19.2859 127.508 19.4321 127.654 19.6129 127.654Z" fill="#FFECA8"/>
<path d="M29.403 127.899C29.7177 127.899 29.9728 127.644 29.9728 127.329C29.9728 127.015 29.7177 126.76 29.403 126.76C29.0884 126.76 28.8333 127.015 28.8333 127.329C28.8333 127.644 29.0884 127.899 29.403 127.899Z" fill="#FFECA8"/>
<path d="M39.196 128.115C39.632 128.115 39.9838 127.763 39.9838 127.327C39.9838 126.891 39.632 126.539 39.196 126.539C38.76 126.539 38.4082 126.891 38.4082 127.327C38.4082 127.763 38.7625 128.115 39.196 128.115Z" fill="#FFECA8"/>
<path d="M48.9886 128.36C49.5584 128.36 50.0216 127.897 50.0216 127.327C50.0216 126.757 49.5609 126.296 48.9886 126.296C48.4188 126.296 47.9556 126.76 47.9556 127.327C47.958 127.899 48.4188 128.36 48.9886 128.36Z" fill="#FFECA8"/>
<path d="M58.7811 128.578C59.4697 128.578 60.0296 128.018 60.0296 127.329C60.0296 126.64 59.4697 126.081 58.7811 126.081C58.0924 126.081 57.5325 126.64 57.5325 127.329C57.5325 128.018 58.0899 128.578 58.7811 128.578Z" fill="#FFECA8"/>
<path d="M68.5746 128.821C69.3996 128.821 70.0685 128.152 70.0685 127.327C70.0685 126.502 69.3996 125.833 68.5746 125.833C67.7497 125.833 67.0808 126.502 67.0808 127.327C67.0808 128.154 67.7497 128.821 68.5746 128.821Z" fill="#FFECA8"/>
<path d="M78.3676 129.039C79.3115 129.039 80.0794 128.273 80.0794 127.327C80.0794 126.383 79.3139 125.615 78.3676 125.615C77.4237 125.615 76.6558 126.38 76.6558 127.327C76.6558 128.273 77.4213 129.039 78.3676 129.039Z" fill="#FFECA8"/>
<path d="M88.1578 129.257C89.2231 129.257 90.0852 128.394 90.0852 127.329C90.0852 126.264 89.2231 125.402 88.1578 125.402C87.0926 125.402 86.2305 126.264 86.2305 127.329C86.2305 128.392 87.095 129.257 88.1578 129.257Z" fill="#FFECA8"/>
<path d="M97.951 129.472C99.1352 129.472 100.096 128.511 100.096 127.327C100.096 126.143 99.1352 125.181 97.951 125.181C96.7669 125.181 95.8057 126.143 95.8057 127.327C95.8057 128.513 96.7669 129.472 97.951 129.472Z" fill="#FFECA8"/>
<path d="M107.743 129.69C109.049 129.69 110.107 128.632 110.107 127.327C110.107 126.021 109.049 124.963 107.743 124.963C106.438 124.963 105.38 126.021 105.38 127.327C105.382 128.632 106.438 129.69 107.743 129.69Z" fill="#FFECA8"/>
<path d="M117.536 129.881C118.946 129.881 120.088 128.739 120.088 127.329C120.088 125.92 118.946 124.778 117.536 124.778C116.126 124.778 114.984 125.92 114.984 127.329C114.984 128.739 116.126 129.881 117.536 129.881Z" fill="#FFECA8"/>
<path d="M127.33 130.072C128.843 130.072 130.072 128.843 130.072 127.329C130.072 125.816 128.843 124.587 127.33 124.587C125.816 124.587 124.587 125.816 124.587 127.329C124.587 128.843 125.813 130.072 127.33 130.072Z" fill="#FFECA8"/>
<path d="M137.122 130.233C138.727 130.233 140.028 128.932 140.028 127.327C140.028 125.722 138.727 124.421 137.122 124.421C135.517 124.421 134.216 125.722 134.216 127.327C134.216 128.932 135.517 130.233 137.122 130.233Z" fill="#FFECA8"/>
<path d="M146.915 130.369C148.594 130.369 149.957 129.007 149.957 127.327C149.957 125.647 148.594 124.285 146.915 124.285C145.235 124.285 143.873 125.647 143.873 127.327C143.873 129.009 145.233 130.369 146.915 130.369Z" fill="#FFECA8"/>
<path d="M156.705 130.451C158.429 130.451 159.827 129.054 159.827 127.327C159.827 125.603 158.429 124.206 156.705 124.206C154.981 124.206 153.581 125.603 153.581 127.327C153.584 129.054 154.981 130.451 156.705 130.451Z" fill="#FFECA8"/>
<path d="M166.498 130.478C168.237 130.478 169.649 129.069 169.649 127.33C169.649 125.59 168.24 124.181 166.498 124.181C164.759 124.181 163.35 125.59 163.35 127.33C163.35 129.069 164.759 130.478 166.498 130.478Z" fill="#FFECA8"/>
<path d="M176.291 130.451C178.015 130.451 179.412 129.054 179.412 127.327C179.412 125.603 178.015 124.206 176.291 124.206C174.567 124.206 173.167 125.603 173.167 127.327C173.169 129.054 174.567 130.451 176.291 130.451Z" fill="#FFECA8"/>
<path d="M9.82009 137.256C9.89441 137.256 9.95635 137.196 9.95635 137.12C9.95635 137.045 9.89441 136.983 9.82009 136.983C9.74577 136.983 9.68384 137.043 9.68384 137.12C9.68384 137.196 9.74329 137.256 9.82009 137.256Z" fill="#FFECA8"/>
<path d="M19.613 137.501C19.8235 137.501 19.992 137.33 19.992 137.12C19.992 136.909 19.821 136.741 19.613 136.741C19.4024 136.741 19.2339 136.912 19.2339 137.12C19.2314 137.33 19.4024 137.501 19.613 137.501Z" fill="#FFECA8"/>
<path d="M29.4031 137.746C29.7474 137.746 30.0274 137.466 30.0274 137.122C30.0274 136.778 29.7474 136.498 29.4031 136.498C29.0588 136.498 28.7788 136.778 28.7788 137.122C28.7788 137.466 29.0588 137.746 29.4031 137.746Z" fill="#FFECA8"/>
<path d="M39.1962 137.989C39.6768 137.989 40.0657 137.6 40.0657 137.12C40.0657 136.639 39.6768 136.25 39.1962 136.25C38.7156 136.25 38.3267 136.639 38.3267 137.12C38.3267 137.6 38.7156 137.989 39.1962 137.989Z" fill="#FFECA8"/>
<path d="M48.9894 138.207C49.5889 138.207 50.0744 137.722 50.0744 137.12C50.0744 136.52 49.5889 136.035 48.9894 136.035C48.3899 136.035 47.9043 136.52 47.9043 137.12C47.9043 137.722 48.3899 138.207 48.9894 138.207Z" fill="#FFECA8"/>
<path d="M58.782 138.452C59.5177 138.452 60.1123 137.858 60.1123 137.122C60.1123 136.386 59.5177 135.792 58.782 135.792C58.0462 135.792 57.4517 136.386 57.4517 137.122C57.4517 137.855 58.0462 138.452 58.782 138.452Z" fill="#FFECA8"/>
<path d="M68.5748 138.695C69.445 138.695 70.1504 137.99 70.1504 137.12C70.1504 136.25 69.445 135.544 68.5748 135.544C67.7047 135.544 66.9993 136.25 66.9993 137.12C66.9993 137.99 67.7047 138.695 68.5748 138.695Z" fill="#FFECA8"/>
<path d="M78.3672 138.941C79.373 138.941 80.1856 138.125 80.1856 137.122C80.1856 136.116 79.3705 135.304 78.3672 135.304C77.3614 135.304 76.5488 136.119 76.5488 137.122C76.5464 138.125 77.3614 138.941 78.3672 138.941Z" fill="#FFECA8"/>
<path d="M88.1577 139.159C89.2824 139.159 90.1941 138.247 90.1941 137.122C90.1941 135.997 89.2824 135.086 88.1577 135.086C87.033 135.086 86.1213 135.997 86.1213 137.122C86.1213 138.244 87.033 139.159 88.1577 139.159Z" fill="#FFECA8"/>
<path d="M97.951 139.402C99.2095 139.402 100.233 138.381 100.233 137.12C100.233 135.862 99.212 134.838 97.951 134.838C96.6901 134.838 95.6694 135.859 95.6694 137.12C95.6719 138.381 96.6926 139.402 97.951 139.402Z" fill="#FFECA8"/>
<path d="M107.744 139.619C109.124 139.619 110.241 138.502 110.241 137.122C110.241 135.742 109.124 134.625 107.744 134.625C106.364 134.625 105.247 135.742 105.247 137.122C105.247 138.5 106.364 139.619 107.744 139.619Z" fill="#FFECA8"/>
<path d="M117.536 139.837C119.035 139.837 120.252 138.621 120.252 137.122C120.252 135.623 119.035 134.407 117.536 134.407C116.038 134.407 114.821 135.623 114.821 137.122C114.821 138.621 116.038 139.837 117.536 139.837Z" fill="#FFECA8"/>
<path d="M127.33 140.026C128.935 140.026 130.236 138.725 130.236 137.12C130.236 135.514 128.935 134.214 127.33 134.214C125.724 134.214 124.424 135.514 124.424 137.12C124.424 138.725 125.724 140.026 127.33 140.026Z" fill="#FFECA8"/>
<path d="M137.122 140.216C138.832 140.216 140.219 138.832 140.219 137.12C140.219 135.41 138.834 134.023 137.122 134.023C135.41 134.023 134.026 135.408 134.026 137.12C134.026 138.832 135.413 140.216 137.122 140.216Z" fill="#FFECA8"/>
<path d="M146.915 140.38C148.714 140.38 150.173 138.921 150.173 137.122C150.173 135.324 148.714 133.865 146.915 133.865C145.117 133.865 143.657 135.324 143.657 137.122C143.655 138.921 145.114 140.38 146.915 140.38Z" fill="#FFECA8"/>
<path d="M156.705 140.489C158.566 140.489 160.072 138.983 160.072 137.122C160.072 135.262 158.563 133.756 156.705 133.756C154.845 133.756 153.339 135.262 153.339 137.122C153.339 138.98 154.847 140.489 156.705 140.489Z" fill="#FFECA8"/>
<path d="M166.498 140.516C168.374 140.516 169.892 138.998 169.892 137.122C169.892 135.247 168.374 133.728 166.498 133.728C164.623 133.728 163.104 135.247 163.104 137.122C163.104 138.995 164.625 140.516 166.498 140.516Z" fill="#FFECA8"/>
<path d="M176.291 140.489C178.152 140.489 179.658 138.983 179.658 137.122C179.658 135.262 178.149 133.756 176.291 133.756C174.431 133.756 172.925 135.262 172.925 137.122C172.925 138.98 174.431 140.489 176.291 140.489Z" fill="#FFECA8"/>
<path d="M9.82023 147.076C9.90942 147.076 9.98375 147.004 9.98375 146.913C9.98375 146.823 9.9119 146.749 9.82023 146.749C9.73105 146.749 9.65674 146.821 9.65674 146.913C9.65674 147.004 9.72857 147.076 9.82023 147.076Z" fill="#FFECA8"/>
<path d="M19.6126 147.321C19.838 147.321 20.0189 147.138 20.0189 146.915C20.0189 146.69 19.8356 146.509 19.6126 146.509C19.3872 146.509 19.2063 146.692 19.2063 146.915C19.2038 147.138 19.3872 147.321 19.6126 147.321Z" fill="#FFECA8"/>
<path d="M29.4032 147.564C29.7631 147.564 30.0548 147.272 30.0548 146.913C30.0548 146.553 29.7631 146.261 29.4032 146.261C29.0434 146.261 28.7517 146.553 28.7517 146.913C28.7517 147.272 29.0434 147.564 29.4032 147.564Z" fill="#FFECA8"/>
<path d="M39.1961 147.809C39.6916 147.809 40.0929 147.408 40.0929 146.913C40.0929 146.417 39.6916 146.016 39.1961 146.016C38.7007 146.016 38.2993 146.417 38.2993 146.913C38.2993 147.408 38.7007 147.809 39.1961 147.809Z" fill="#FFECA8"/>
<path d="M48.9887 148.055C49.6179 148.055 50.1282 147.544 50.1282 146.915C50.1282 146.286 49.6179 145.775 48.9887 145.775C48.3594 145.775 47.8491 146.286 47.8491 146.915C47.8491 147.544 48.3594 148.055 48.9887 148.055Z" fill="#FFECA8"/>
<path d="M58.7813 148.297C59.5468 148.297 60.1661 147.678 60.1661 146.913C60.1661 146.147 59.5468 145.528 58.7813 145.528C58.0158 145.528 57.3965 146.147 57.3965 146.913C57.3965 147.678 58.0158 148.297 58.7813 148.297Z" fill="#FFECA8"/>
<path d="M68.5744 148.543C69.4737 148.543 70.2045 147.814 70.2045 146.913C70.2045 146.013 69.4762 145.282 68.5744 145.282C67.6727 145.282 66.9443 146.011 66.9443 146.913C66.9443 147.814 67.6752 148.543 68.5744 148.543Z" fill="#FFECA8"/>
<path d="M80.0888 147.62C80.4828 146.664 80.0269 145.569 79.0705 145.175C78.1141 144.781 77.0195 145.237 76.6255 146.194C76.2315 147.15 76.6874 148.245 77.6438 148.639C78.6001 149.033 79.6948 148.577 80.0888 147.62Z" fill="#FFECA8"/>
<path d="M88.1576 149.031C89.3269 149.031 90.2758 148.082 90.2758 146.913C90.2758 145.743 89.3269 144.795 88.1576 144.795C86.9883 144.795 86.0396 145.743 86.0396 146.913C86.0396 148.082 86.9883 149.031 88.1576 149.031Z" fill="#FFECA8"/>
<path d="M97.9505 149.276C99.2561 149.276 100.314 148.218 100.314 146.913C100.314 145.607 99.2561 144.549 97.9505 144.549C96.645 144.549 95.5872 145.607 95.5872 146.913C95.5896 148.218 96.6475 149.276 97.9505 149.276Z" fill="#FFECA8"/>
<path d="M107.744 149.492C109.168 149.492 110.323 148.337 110.323 146.913C110.323 145.488 109.168 144.334 107.744 144.334C106.319 144.334 105.165 145.488 105.165 146.913C105.165 148.337 106.319 149.492 107.744 149.492Z" fill="#FFECA8"/>
<path d="M117.537 149.737C119.097 149.737 120.361 148.473 120.361 146.913C120.361 145.352 119.097 144.089 117.537 144.089C115.976 144.089 114.712 145.352 114.712 146.913C114.712 148.473 115.976 149.737 117.537 149.737Z" fill="#FFECA8"/>
<path d="M127.329 149.955C129.009 149.955 130.372 148.592 130.372 146.913C130.372 145.233 129.009 143.87 127.329 143.87C125.65 143.87 124.287 145.233 124.287 146.913C124.287 148.592 125.65 149.955 127.329 149.955Z" fill="#FFECA8"/>
<path d="M137.122 150.173C138.921 150.173 140.38 148.714 140.38 146.915C140.38 145.116 138.921 143.657 137.122 143.657C135.324 143.657 133.865 145.116 133.865 146.915C133.862 148.714 135.321 150.173 137.122 150.173Z" fill="#FFECA8"/>
<path d="M150.152 148.079C150.795 146.287 149.864 144.312 148.071 143.669C146.279 143.025 144.304 143.957 143.661 145.75C143.017 147.542 143.949 149.517 145.742 150.16C147.534 150.803 149.509 149.872 150.152 148.079Z" fill="#FFECA8"/>
<path d="M157.285 150.437C159.24 150.121 160.568 148.281 160.252 146.326C159.936 144.372 158.096 143.044 156.142 143.359C154.187 143.675 152.859 145.516 153.175 147.47C153.49 149.424 155.331 150.753 157.285 150.437Z" fill="#FFECA8"/>
<path d="M166.498 150.552C168.507 150.552 170.137 148.922 170.137 146.913C170.137 144.904 168.507 143.273 166.498 143.273C164.489 143.273 162.859 144.904 162.859 146.913C162.859 148.922 164.489 150.552 166.498 150.552Z" fill="#FFECA8"/>
<path d="M179.606 148.25C180.357 146.418 179.481 144.324 177.649 143.573C175.817 142.823 173.723 143.699 172.972 145.531C172.222 147.363 173.098 149.456 174.93 150.207C176.762 150.958 178.855 150.082 179.606 148.25Z" fill="#FFECA8"/>
<path d="M0.0279009 156.734C0.0431216 156.734 0.0558018 156.721 0.0558018 156.706C0.0558018 156.691 0.0431216 156.678 0.0279009 156.678C0.0126802 156.678 0 156.691 0 156.706C0 156.721 0.0126802 156.734 0.0279009 156.734Z" fill="#FFECA8"/>
<path d="M9.81989 156.896C9.92394 156.896 10.0107 156.812 10.0107 156.705C10.0107 156.601 9.92642 156.515 9.81989 156.515C9.71585 156.515 9.62915 156.599 9.62915 156.705C9.62915 156.812 9.71337 156.896 9.81989 156.896Z" fill="#FFECA8"/>
<path d="M19.613 157.139C19.8533 157.139 20.0465 156.946 20.0465 156.706C20.0465 156.465 19.8508 156.272 19.613 156.272C19.3727 156.272 19.1795 156.468 19.1795 156.706C19.177 156.946 19.3727 157.139 19.613 157.139Z" fill="#FFECA8"/>
<path d="M29.4032 157.384C29.7772 157.384 30.0819 157.08 30.0819 156.705C30.0819 156.331 29.7772 156.027 29.4032 156.027C29.0291 156.027 28.7244 156.331 28.7244 156.705C28.7244 157.08 29.0291 157.384 29.4032 157.384Z" fill="#FFECA8"/>
<path d="M39.196 157.629C39.7064 157.629 40.1201 157.216 40.1201 156.705C40.1201 156.195 39.7064 155.781 39.196 155.781C38.6857 155.781 38.272 156.195 38.272 156.705C38.2744 157.216 38.6857 157.629 39.196 157.629Z" fill="#FFECA8"/>
<path d="M48.9891 157.872C49.6332 157.872 50.1559 157.35 50.1559 156.706C50.1559 156.062 49.6332 155.539 48.9891 155.539C48.345 155.539 47.8223 156.062 47.8223 156.706C47.8223 157.35 48.345 157.872 48.9891 157.872Z" fill="#FFECA8"/>
<path d="M58.7819 158.117C59.5623 158.117 60.194 157.486 60.194 156.705C60.194 155.925 59.5623 155.293 58.7819 155.293C58.0016 155.293 57.3699 155.925 57.3699 156.705C57.3699 157.486 58.0016 158.117 58.7819 158.117Z" fill="#FFECA8"/>
<path d="M68.5747 158.39C69.5037 158.39 70.2593 157.637 70.2593 156.706C70.2593 155.777 69.5062 155.021 68.5747 155.021C67.6433 155.021 66.8901 155.774 66.8901 156.706C66.8901 157.635 67.6433 158.39 68.5747 158.39Z" fill="#FFECA8"/>
<path d="M78.3673 158.633C79.4326 158.633 80.2946 157.771 80.2946 156.705C80.2946 155.64 79.4326 154.778 78.3673 154.778C77.3021 154.778 76.4399 155.64 76.4399 156.705C76.4375 157.771 77.3021 158.633 78.3673 158.633Z" fill="#FFECA8"/>
<path d="M88.1578 158.851C89.342 158.851 90.3032 157.889 90.3032 156.705C90.3032 155.521 89.342 154.56 88.1578 154.56C86.9736 154.56 86.0125 155.521 86.0125 156.705C86.0149 157.889 86.9736 158.851 88.1578 158.851Z" fill="#FFECA8"/>
<path d="M97.9508 159.123C99.2861 159.123 100.369 158.041 100.369 156.705C100.369 155.37 99.2861 154.288 97.9508 154.288C96.6156 154.288 95.533 155.37 95.533 156.705C95.5354 158.041 96.618 159.123 97.9508 159.123Z" fill="#FFECA8"/>
<path d="M107.744 159.339C109.198 159.339 110.377 158.16 110.377 156.706C110.377 155.251 109.198 154.072 107.744 154.072C106.289 154.072 105.11 155.251 105.11 156.706C105.11 158.16 106.289 159.339 107.744 159.339Z" fill="#FFECA8"/>
<path d="M119.568 158.741C120.692 157.617 120.692 155.795 119.568 154.67C118.444 153.546 116.621 153.546 115.497 154.67C114.373 155.795 114.373 157.617 115.497 158.741C116.621 159.866 118.444 159.866 119.568 158.741Z" fill="#FFECA8"/>
<path d="M127.329 159.829C129.054 159.829 130.451 158.432 130.451 156.705C130.451 154.981 129.054 153.584 127.329 153.584C125.605 153.584 124.206 154.981 124.206 156.705C124.206 158.429 125.605 159.829 127.329 159.829Z" fill="#FFECA8"/>
<path d="M137.122 160.072C138.983 160.072 140.489 158.566 140.489 156.705C140.489 154.845 138.98 153.339 137.122 153.339C135.262 153.339 133.755 154.845 133.755 156.705C133.755 158.566 135.262 160.072 137.122 160.072Z" fill="#FFECA8"/>
<path d="M147.744 160.184C149.67 159.727 150.861 157.794 150.403 155.868C149.945 153.942 148.013 152.751 146.087 153.209C144.161 153.667 142.97 155.599 143.428 157.526C143.886 159.452 145.818 160.642 147.744 160.184Z" fill="#FFECA8"/>
<path d="M156.705 160.481C158.789 160.481 160.481 158.791 160.481 156.705C160.481 154.622 158.791 152.93 156.705 152.93C154.622 152.93 152.93 154.619 152.93 156.705C152.932 158.791 154.622 160.481 156.705 160.481Z" fill="#FFECA8"/>
<path d="M166.498 160.588C168.642 160.588 170.38 158.85 170.38 156.706C170.38 154.562 168.642 152.824 166.498 152.824C164.354 152.824 162.616 154.562 162.616 156.706C162.616 158.85 164.354 160.588 166.498 160.588Z" fill="#FFECA8"/>
<path d="M176.291 160.508C178.391 160.508 180.094 158.805 180.094 156.705C180.094 154.605 178.391 152.903 176.291 152.903C174.191 152.903 172.488 154.605 172.488 156.705C172.488 158.805 174.191 160.508 176.291 160.508Z" fill="#FFECA8"/>
<path d="M0.0279009 166.527C0.0431216 166.527 0.0558018 166.514 0.0558018 166.499C0.0558018 166.484 0.0431216 166.471 0.0279009 166.471C0.0126802 166.471 0 166.484 0 166.499C0 166.514 0.0126802 166.527 0.0279009 166.527Z" fill="#FFECA8"/>
<path d="M9.8203 166.716C9.93921 166.716 10.0383 166.62 10.0383 166.498C10.0383 166.379 9.94169 166.28 9.8203 166.28C9.70139 166.28 9.60229 166.377 9.60229 166.498C9.60229 166.617 9.69891 166.716 9.8203 166.716Z" fill="#FFECA8"/>
<path d="M19.6129 166.959C19.868 166.959 20.0737 166.753 20.0737 166.498C20.0737 166.243 19.868 166.037 19.6129 166.037C19.3577 166.037 19.1521 166.243 19.1521 166.498C19.1521 166.753 19.3577 166.959 19.6129 166.959Z" fill="#FFECA8"/>
<path d="M29.4028 167.205C29.7918 167.205 30.1089 166.887 30.1089 166.499C30.1089 166.11 29.7918 165.792 29.4028 165.792C29.0139 165.792 28.6968 166.11 28.6968 166.499C28.6968 166.887 29.0139 167.205 29.4028 167.205Z" fill="#FFECA8"/>
<path d="M39.1964 167.45C39.7216 167.45 40.1477 167.024 40.1477 166.499C40.1477 165.973 39.7216 165.547 39.1964 165.547C38.6712 165.547 38.2451 165.973 38.2451 166.499C38.2451 167.024 38.6712 167.45 39.1964 167.45Z" fill="#FFECA8"/>
<path d="M48.9887 167.692C49.6477 167.692 50.1828 167.157 50.1828 166.498C50.1828 165.839 49.6477 165.304 48.9887 165.304C48.3298 165.304 47.7947 165.839 47.7947 166.498C47.7947 167.157 48.3298 167.692 48.9887 167.692Z" fill="#FFECA8"/>
<path d="M58.7818 167.937C59.5771 167.937 60.2212 167.293 60.2212 166.498C60.2212 165.703 59.5771 165.059 58.7818 165.059C57.9866 165.059 57.3425 165.703 57.3425 166.498C57.3425 167.293 57.9866 167.937 58.7818 167.937Z" fill="#FFECA8"/>
<path d="M68.5747 168.183C69.5037 168.183 70.2593 167.43 70.2593 166.498C70.2593 165.567 69.5062 164.814 68.5747 164.814C67.6433 164.814 66.8901 165.567 66.8901 166.498C66.8901 167.43 67.6433 168.183 68.5747 168.183Z" fill="#FFECA8"/>
<path d="M78.3673 168.426C79.4326 168.426 80.2946 167.564 80.2946 166.498C80.2946 165.433 79.4326 164.571 78.3673 164.571C77.3021 164.571 76.4399 165.433 76.4399 166.498C76.4399 167.564 77.3021 168.426 78.3673 168.426Z" fill="#FFECA8"/>
<path d="M88.1579 168.671C89.357 168.671 90.3306 167.697 90.3306 166.498C90.3306 165.299 89.357 164.326 88.1579 164.326C86.9589 164.326 85.9854 165.299 85.9854 166.498C85.9854 167.697 86.9589 168.671 88.1579 168.671Z" fill="#FFECA8"/>
<path d="M97.9508 168.916C99.2861 168.916 100.369 167.834 100.369 166.498C100.369 165.163 99.2861 164.083 97.9508 164.083C96.6156 164.083 95.533 165.165 95.533 166.498C95.5354 167.834 96.618 168.916 97.9508 168.916Z" fill="#FFECA8"/>
<path d="M109.621 168.38C110.66 167.341 110.66 165.656 109.621 164.617C108.582 163.578 106.897 163.578 105.858 164.617C104.819 165.656 104.819 167.341 105.858 168.38C106.897 169.419 108.582 169.419 109.621 168.38Z" fill="#FFECA8"/>
<path d="M117.537 169.404C119.142 169.404 120.443 168.103 120.443 166.498C120.443 164.893 119.142 163.592 117.537 163.592C115.931 163.592 114.631 164.893 114.631 166.498C114.631 168.103 115.931 169.404 117.537 169.404Z" fill="#FFECA8"/>
<path d="M127.329 169.647C129.068 169.647 130.481 168.237 130.481 166.498C130.481 164.759 129.071 163.35 127.329 163.35C125.588 163.35 124.181 164.759 124.181 166.498C124.181 168.237 125.59 169.647 127.329 169.647Z" fill="#FFECA8"/>
<path d="M137.122 169.892C138.998 169.892 140.516 168.374 140.516 166.498C140.516 164.623 138.998 163.104 137.122 163.104C135.247 163.104 133.728 164.623 133.728 166.498C133.728 168.374 135.247 169.892 137.122 169.892Z" fill="#FFECA8"/>
<path d="M146.915 170.137C148.924 170.137 150.554 168.507 150.554 166.498C150.554 164.489 148.924 162.859 146.915 162.859C144.906 162.859 143.276 164.489 143.276 166.498C143.276 168.507 144.903 170.137 146.915 170.137Z" fill="#FFECA8"/>
<path d="M157.854 170.212C159.902 169.576 161.046 167.4 160.41 165.353C159.774 163.305 157.599 162.161 155.551 162.797C153.504 163.433 152.359 165.608 152.995 167.656C153.631 169.703 155.807 170.847 157.854 170.212Z" fill="#FFECA8"/>
<path d="M166.498 170.544C168.733 170.544 170.544 168.733 170.544 166.498C170.544 164.264 168.733 162.453 166.498 162.453C164.264 162.453 162.453 164.264 162.453 166.498C162.453 168.733 164.264 170.544 166.498 170.544Z" fill="#FFECA8"/>
<path d="M176.292 170.408C178.452 170.408 180.201 168.656 180.201 166.498C180.201 164.338 178.449 162.589 176.292 162.589C174.131 162.589 172.382 164.341 172.382 166.498C172.382 168.659 174.131 170.408 176.292 170.408Z" fill="#FFECA8"/>
<path d="M0.0279009 176.32C0.0431216 176.32 0.0558018 176.307 0.0558018 176.292C0.0558018 176.277 0.0431216 176.264 0.0279009 176.264C0.0126802 176.264 0 176.277 0 176.292C0 176.307 0.0126802 176.32 0.0279009 176.32Z" fill="#FFECA8"/>
<path d="M9.81989 176.482C9.92394 176.482 10.0107 176.398 10.0107 176.291C10.0107 176.187 9.92642 176.101 9.81989 176.101C9.71585 176.101 9.62915 176.185 9.62915 176.291C9.62915 176.395 9.71337 176.482 9.81989 176.482Z" fill="#FFECA8"/>
<path d="M19.613 176.725C19.8533 176.725 20.0465 176.531 20.0465 176.291C20.0465 176.051 19.8508 175.858 19.613 175.858C19.3727 175.858 19.1795 176.053 19.1795 176.291C19.177 176.531 19.3727 176.725 19.613 176.725Z" fill="#FFECA8"/>
<path d="M29.4032 176.97C29.7772 176.97 30.0819 176.665 30.0819 176.291C30.0819 175.917 29.7772 175.612 29.4032 175.612C29.0291 175.612 28.7244 175.917 28.7244 176.291C28.7244 176.665 29.0291 176.97 29.4032 176.97Z" fill="#FFECA8"/>
<path d="M39.196 177.213C39.7064 177.213 40.1201 176.799 40.1201 176.289C40.1201 175.778 39.7064 175.365 39.196 175.365C38.6857 175.365 38.272 175.778 38.272 176.289C38.2744 176.802 38.6857 177.213 39.196 177.213Z" fill="#FFECA8"/>
<path d="M48.9891 177.458C49.6332 177.458 50.1559 176.935 50.1559 176.291C50.1559 175.647 49.6332 175.124 48.9891 175.124C48.345 175.124 47.8223 175.647 47.8223 176.291C47.8223 176.935 48.345 177.458 48.9891 177.458Z" fill="#FFECA8"/>
<path d="M58.7818 177.73C59.5771 177.73 60.2212 177.086 60.2212 176.291C60.2212 175.496 59.5771 174.852 58.7818 174.852C57.9866 174.852 57.3425 175.496 57.3425 176.291C57.3425 177.086 57.9866 177.73 58.7818 177.73Z" fill="#FFECA8"/>
<path d="M68.5747 177.973C69.5037 177.973 70.2593 177.22 70.2593 176.289C70.2593 175.357 69.5062 174.604 68.5747 174.604C67.6433 174.604 66.8901 175.357 66.8901 176.289C66.8901 177.22 67.6433 177.973 68.5747 177.973Z" fill="#FFECA8"/>
<path d="M78.3673 178.218C79.4326 178.218 80.2946 177.356 80.2946 176.291C80.2946 175.226 79.4326 174.364 78.3673 174.364C77.3021 174.364 76.4399 175.226 76.4399 176.291C76.4399 177.356 77.3021 178.218 78.3673 178.218Z" fill="#FFECA8"/>
<path d="M88.1579 178.464C89.357 178.464 90.3306 177.49 90.3306 176.291C90.3306 175.092 89.357 174.119 88.1579 174.119C86.9589 174.119 85.9854 175.092 85.9854 176.291C85.9854 177.49 86.9589 178.464 88.1579 178.464Z" fill="#FFECA8"/>
<path d="M97.9508 178.706C99.2861 178.706 100.369 177.624 100.369 176.288C100.369 174.953 99.2861 173.871 97.9508 173.871C96.6156 173.871 95.533 174.953 95.533 176.288C95.533 177.624 96.618 178.706 97.9508 178.706Z" fill="#FFECA8"/>
<path d="M108.165 178.924C109.616 178.688 110.6 177.32 110.364 175.87C110.128 174.42 108.76 173.435 107.31 173.672C105.86 173.908 104.876 175.275 105.112 176.725C105.348 178.176 106.715 179.16 108.165 178.924Z" fill="#FFECA8"/>
<path d="M118.001 179.14C119.571 178.886 120.637 177.408 120.384 175.839C120.13 174.269 118.652 173.203 117.082 173.457C115.513 173.71 114.446 175.188 114.7 176.758C114.954 178.327 116.432 179.394 118.001 179.14Z" fill="#FFECA8"/>
<path d="M127.329 179.413C129.054 179.413 130.451 178.015 130.451 176.289C130.451 174.564 129.054 173.167 127.329 173.167C125.605 173.167 124.206 174.564 124.206 176.289C124.206 178.015 125.605 179.413 127.329 179.413Z" fill="#FFECA8"/>
<path d="M137.122 179.658C138.983 179.658 140.489 178.152 140.489 176.291C140.489 174.431 138.98 172.924 137.122 172.924C135.262 172.924 133.755 174.431 133.755 176.291C133.755 178.152 135.262 179.658 137.122 179.658Z" fill="#FFECA8"/>
<path d="M150.233 177.627C150.984 175.795 150.108 173.701 148.276 172.95C146.444 172.2 144.35 173.076 143.599 174.908C142.848 176.74 143.725 178.833 145.556 179.584C147.388 180.335 149.482 179.459 150.233 177.627Z" fill="#FFECA8"/>
<path d="M156.706 180.094C158.806 180.094 160.508 178.391 160.508 176.291C160.508 174.191 158.806 172.489 156.706 172.489C154.605 172.489 152.903 174.191 152.903 176.291C152.903 178.391 154.605 180.094 156.706 180.094Z" fill="#FFECA8"/>
<path d="M166.498 180.2C168.659 180.2 170.408 178.449 170.408 176.291C170.408 174.131 168.656 172.382 166.498 172.382C164.338 172.382 162.589 174.133 162.589 176.291C162.589 178.451 164.338 180.2 166.498 180.2Z" fill="#FFECA8"/>
<path d="M176.291 180.094C178.391 180.094 180.094 178.391 180.094 176.291C180.094 174.191 178.391 172.489 176.291 172.489C174.191 172.489 172.488 174.191 172.488 176.291C172.488 178.391 174.191 180.094 176.291 180.094Z" fill="#FFECA8"/>
<path d="M9.82023 186.245C9.90942 186.245 9.98375 186.173 9.98375 186.081C9.98375 185.992 9.9119 185.918 9.82023 185.918C9.73105 185.918 9.65674 185.99 9.65674 186.081C9.65674 186.173 9.72857 186.245 9.82023 186.245Z" fill="#FFECA8"/>
<path d="M19.6126 186.49C19.838 186.49 20.0189 186.307 20.0189 186.084C20.0189 185.858 19.8356 185.678 19.6126 185.678C19.3872 185.678 19.2063 185.861 19.2063 186.084C19.2038 186.307 19.3872 186.49 19.6126 186.49Z" fill="#FFECA8"/>
<path d="M29.4032 186.763C29.7772 186.763 30.0819 186.458 30.0819 186.084C30.0819 185.71 29.7772 185.405 29.4032 185.405C29.0291 185.405 28.7244 185.71 28.7244 186.084C28.7244 186.458 29.0291 186.763 29.4032 186.763Z" fill="#FFECA8"/>
<path d="M39.1961 186.978C39.6916 186.978 40.0929 186.577 40.0929 186.082C40.0929 185.586 39.6916 185.185 39.1961 185.185C38.7007 185.185 38.2993 185.586 38.2993 186.082C38.2993 186.577 38.7007 186.978 39.1961 186.978Z" fill="#FFECA8"/>
<path d="M48.9887 187.224C49.6179 187.224 50.1282 186.713 50.1282 186.084C50.1282 185.455 49.6179 184.945 48.9887 184.945C48.3594 184.945 47.8491 185.455 47.8491 186.084C47.8491 186.713 48.3594 187.224 48.9887 187.224Z" fill="#FFECA8"/>
<path d="M58.7813 187.469C59.5468 187.469 60.1661 186.85 60.1661 186.084C60.1661 185.319 59.5468 184.699 58.7813 184.699C58.0158 184.699 57.3965 185.319 57.3965 186.084C57.3965 186.847 58.0158 187.469 58.7813 187.469Z" fill="#FFECA8"/>
<path d="M68.5744 187.712C69.4737 187.712 70.2045 186.983 70.2045 186.082C70.2045 185.182 69.4762 184.452 68.5744 184.452C67.6727 184.452 66.9443 185.18 66.9443 186.082C66.9443 186.983 67.6752 187.712 68.5744 187.712Z" fill="#FFECA8"/>
<path d="M80.0897 186.79C80.4837 185.833 80.0278 184.739 79.0715 184.345C78.1151 183.951 77.0204 184.407 76.6265 185.363C76.2325 186.319 76.6884 187.414 77.6447 187.808C78.6011 188.202 79.6958 187.746 80.0897 186.79Z" fill="#FFECA8"/>
<path d="M88.1576 188.202C89.3269 188.202 90.2758 187.253 90.2758 186.084C90.2758 184.915 89.3269 183.966 88.1576 183.966C86.9883 183.966 86.0396 184.915 86.0396 186.084C86.0396 187.253 86.9883 188.202 88.1576 188.202Z" fill="#FFECA8"/>
<path d="M97.9505 188.445C99.2561 188.445 100.314 187.387 100.314 186.082C100.314 184.776 99.2561 183.718 97.9505 183.718C96.645 183.718 95.5872 184.776 95.5872 186.082C95.5896 187.387 96.6475 188.445 97.9505 188.445Z" fill="#FFECA8"/>
<path d="M107.744 188.663C109.168 188.663 110.323 187.508 110.323 186.084C110.323 184.66 109.168 183.505 107.744 183.505C106.319 183.505 105.165 184.66 105.165 186.084C105.165 187.508 106.319 188.663 107.744 188.663Z" fill="#FFECA8"/>
<path d="M117.537 188.908C119.097 188.908 120.361 187.645 120.361 186.084C120.361 184.523 119.097 183.26 117.537 183.26C115.976 183.26 114.712 184.523 114.712 186.084C114.712 187.642 115.976 188.908 117.537 188.908Z" fill="#FFECA8"/>
<path d="M127.329 189.124C129.009 189.124 130.372 187.761 130.372 186.081C130.372 184.402 129.009 183.039 127.329 183.039C125.65 183.039 124.287 184.402 124.287 186.081C124.287 187.763 125.65 189.124 127.329 189.124Z" fill="#FFECA8"/>
<path d="M137.122 189.342C138.921 189.342 140.38 187.882 140.38 186.084C140.38 184.285 138.921 182.826 137.122 182.826C135.324 182.826 133.865 184.285 133.865 186.084C133.862 187.882 135.321 189.342 137.122 189.342Z" fill="#FFECA8"/>
<path d="M150.119 187.409C150.841 185.646 149.999 183.632 148.237 182.909C146.475 182.187 144.46 183.029 143.738 184.791C143.015 186.553 143.857 188.568 145.619 189.29C147.382 190.013 149.396 189.171 150.119 187.409Z" fill="#FFECA8"/>
<path d="M156.705 189.696C158.699 189.696 160.317 188.078 160.317 186.084C160.317 184.09 158.699 182.472 156.705 182.472C154.711 182.472 153.093 184.09 153.093 186.084C153.096 188.078 154.711 189.696 156.705 189.696Z" fill="#FFECA8"/>
<path d="M166.498 189.751C168.523 189.751 170.165 188.109 170.165 186.084C170.165 184.059 168.523 182.418 166.498 182.418C164.474 182.418 162.832 184.059 162.832 186.084C162.832 188.109 164.474 189.751 166.498 189.751Z" fill="#FFECA8"/>
<path d="M176.291 189.696C178.285 189.696 179.903 188.078 179.903 186.084C179.903 184.09 178.285 182.472 176.291 182.472C174.297 182.472 172.679 184.09 172.679 186.084C172.679 188.078 174.297 189.696 176.291 189.696Z" fill="#FFECA8"/>
<path d="M88.1577 197.913C89.2824 197.913 90.1941 197.002 90.1941 195.877C90.1941 194.752 89.2824 193.84 88.1577 193.84C87.033 193.84 86.1213 194.752 86.1213 195.877C86.1213 197.002 87.033 197.913 88.1577 197.913Z" fill="#FFECA8"/>
<path d="M97.951 198.156C99.2095 198.156 100.233 197.135 100.233 195.874C100.233 194.616 99.212 193.593 97.951 193.593C96.6901 193.593 95.6694 194.613 95.6694 195.874C95.6719 197.135 96.6926 198.156 97.951 198.156Z" fill="#FFECA8"/>
<path d="M107.744 198.374C109.124 198.374 110.241 197.257 110.241 195.877C110.241 194.497 109.124 193.38 107.744 193.38C106.364 193.38 105.247 194.497 105.247 195.877C105.247 197.254 106.364 198.374 107.744 198.374Z" fill="#FFECA8"/>
<path d="M117.536 198.592C119.035 198.592 120.252 197.376 120.252 195.877C120.252 194.378 119.035 193.162 117.536 193.162C116.038 193.162 114.821 194.378 114.821 195.877C114.821 197.376 116.038 198.592 117.536 198.592Z" fill="#FFECA8"/>
<path d="M127.33 198.808C128.95 198.808 130.263 197.495 130.263 195.875C130.263 194.254 128.95 192.941 127.33 192.941C125.709 192.941 124.396 194.254 124.396 195.875C124.396 197.495 125.709 198.808 127.33 198.808Z" fill="#FFECA8"/>
<path d="M137.122 198.998C138.846 198.998 140.243 197.601 140.243 195.875C140.243 194.15 138.846 192.753 137.122 192.753C135.398 192.753 133.998 194.15 133.998 195.875C133.998 197.601 135.398 198.998 137.122 198.998Z" fill="#FFECA8"/>
<path d="M146.915 199.134C148.714 199.134 150.173 197.675 150.173 195.877C150.173 194.078 148.714 192.619 146.915 192.619C145.117 192.619 143.657 194.078 143.657 195.877C143.655 197.675 145.114 199.134 146.915 199.134Z" fill="#FFECA8"/>
<path d="M156.705 199.243C158.566 199.243 160.072 197.737 160.072 195.877C160.072 194.016 158.563 192.51 156.705 192.51C154.845 192.51 153.339 194.016 153.339 195.877C153.339 197.735 154.847 199.243 156.705 199.243Z" fill="#FFECA8"/>
<path d="M166.498 199.298C168.388 199.298 169.919 197.767 169.919 195.877C169.919 193.987 168.388 192.456 166.498 192.456C164.608 192.456 163.077 193.987 163.077 195.877C163.077 197.764 164.608 199.298 166.498 199.298Z" fill="#FFECA8"/>
<path d="M176.291 199.271C178.166 199.271 179.685 197.752 179.685 195.877C179.685 194.002 178.166 192.483 176.291 192.483C174.416 192.483 172.897 194.002 172.897 195.877C172.897 197.75 174.416 199.271 176.291 199.271Z" fill="#FFECA8"/>
</svg>
