<svg xmlns="http://www.w3.org/2000/svg" width="192" height="26" viewBox="0 0 192 26" fill="none">
  <path d="M0.551538 19.9359C0.673194 18.885 1.31742 17.9665 2.26418 17.4943L13.0327 12.1234L29.9614 5.02287L37.4187 2.75781C40.4142 1.84794 43.565 1.56417 46.6749 1.92416C50.7414 2.39489 54.6064 3.95083 57.8649 6.42891L61.4204 9.13294C64.0108 11.103 67.0835 12.34 70.3164 12.7142C72.6313 12.9822 74.9762 12.8016 77.2228 12.1825L98.2578 6.38516L104.942 4.98484C107.69 4.40921 110.512 4.28032 113.301 4.60313C115.779 4.89 118.204 5.53043 120.5 6.5049L120.797 6.63105C123.708 7.86597 126.804 8.60559 129.958 8.81934L130.355 8.84621C133.88 9.08505 137.419 8.71419 140.818 7.74993L159.621 2.41489L161.561 1.9078C166.454 0.629088 171.541 0.271339 176.565 0.852805L187.537 2.12295C188.381 2.22063 189.177 2.5659 189.825 3.11525L190.874 4.00422C191.316 4.37921 191.542 4.95044 191.475 5.52645C191.399 6.17899 190.962 6.73285 190.344 6.95711L188.31 7.69598C187.546 7.97349 186.728 8.06931 185.92 7.97584L179.011 7.17609C176.497 6.88498 173.957 6.86998 171.439 7.13135L170.643 7.21404L166 8.18664L159.752 9.98013L151.403 12.537L141.563 14.9214L140.068 15.1674C136.295 15.7883 132.453 15.8801 128.653 15.4403L122.422 14.719C120.809 14.5324 119.254 14.0094 117.856 13.1838C116.458 12.3583 114.903 11.8353 113.29 11.6486L112.756 11.5868C109.789 11.2434 106.79 11.3041 103.84 11.7672L99.0579 12.5178L86.5626 16.1048L75.0606 19.8068L74.5833 19.9068C71.8537 20.4786 69.0222 20.3282 66.3685 19.4705C64.2399 18.7824 62.2789 17.6563 60.6118 16.1646L55.3865 11.4893L54.7058 11.001C52.4091 9.35318 49.7303 8.31791 46.9224 7.99288C44.5081 7.71341 42.0619 7.96644 39.7558 8.73417L35.4042 10.1829L25.889 14.1149L13.4878 21.2362L8.07083 24.7813C7.34835 25.2541 6.48297 25.4587 5.62525 25.3594L4.77134 25.2606C2.13572 24.9555 0.24645 22.5716 0.551538 19.9359Z" fill="#F5AE14"/>
</svg>
