<svg width="324" height="182" viewBox="0 0 324 182" fill="none" xmlns="http://www.w3.org/2000/svg">
<path d="M25.013 9.80662L26.3377 5.67544L44.4236 6.1052L43.0753 10.3102L25.013 9.80662ZM22.5292 17.5526L23.8539 13.4214L41.9399 13.8512L40.5915 18.0561L22.5292 17.5526ZM50.2081 84.2121C47.2572 83.2659 44.9016 82.2394 43.1413 81.1326C41.4301 80.0415 40.1991 78.8061 39.4483 77.4264C38.7467 76.0624 38.4269 74.5226 38.4889 72.8069C38.6158 71.0578 38.9849 69.0609 39.5962 66.8162L51.06 25.9903L57.1092 27.93L46.4024 66.3952C45.7281 68.8366 45.3501 70.7764 45.2686 72.2147C45.252 73.6196 45.8042 74.7729 46.9252 75.6747C48.0954 76.5923 50.0822 77.5006 52.8855 78.3994C53.9183 78.7306 54.5614 79.2622 54.8147 79.9943C55.1331 80.693 55.1661 81.4358 54.9138 82.2227C54.6615 83.0096 54.0806 83.6369 53.1713 84.1047C52.2778 84.5232 51.29 84.5591 50.2081 84.2121ZM16.4947 73.4019C15.1668 72.9761 13.8537 72.4195 12.5555 71.732C11.2907 71.1095 10.4036 70.6624 9.89415 70.3905L12.5744 64.8228C15.8259 66.3536 18.999 67.4524 22.0936 68.1193C25.1883 68.7861 28.063 68.7859 30.7176 68.1184C33.4373 67.4176 35.8938 65.846 38.0871 63.4035C40.2805 60.961 42.1104 57.4529 43.577 52.8791L44.2795 62.867C42.6958 65.7762 40.9748 68.0989 39.1163 69.8352C37.2737 71.5223 35.3525 72.7775 33.353 73.6007C31.4183 74.3906 29.4554 74.8459 27.4641 74.9667C25.4728 75.0875 23.5525 74.987 21.7031 74.6652C19.8538 74.3434 18.1176 73.9223 16.4947 73.4019ZM35.7437 68.4283C35.4457 66.6514 34.9068 64.5261 34.1271 62.0524C33.3632 59.5294 32.3594 56.7398 31.1157 53.6834C29.8721 50.6269 28.3894 47.3854 26.6678 43.9588C24.9954 40.548 23.1096 37.0416 21.0103 33.4396L26.3422 30.512C28.5947 34.6512 30.5413 38.4754 32.1822 41.9846C33.888 45.4604 35.3215 48.6862 36.4826 51.6619C37.6595 54.5884 38.6289 57.2314 39.3909 59.591C40.153 61.9507 40.7489 64.0672 41.1787 65.9406L35.7437 68.4283ZM84.0157 47.5182C81.901 46.8401 80.5076 45.6883 79.8356 44.0626C79.2129 42.4528 79.1774 40.7872 79.7294 39.0658C80.1867 37.6396 80.8672 36.4476 81.7709 35.4899C82.7396 34.4988 83.8507 33.8246 85.1042 33.4672C86.3736 33.0607 87.6476 33.0624 88.9263 33.4724C90.1067 33.8509 91.0537 34.5342 91.7673 35.5224C92.481 36.5106 92.9269 37.6569 93.1052 38.9616C93.2835 40.2662 93.1676 41.5579 92.7576 42.8366C92.1426 44.7546 91.0074 46.1804 89.3521 47.1141C87.7126 47.9985 85.9338 48.1333 84.0157 47.5182ZM85.172 43.6585C86.0081 43.9266 86.808 43.8847 87.5716 43.533C88.3844 43.197 88.9327 42.5864 89.2166 41.7011C89.5162 40.7667 89.441 39.9019 88.9909 39.1067C88.5565 38.2624 87.9705 37.7219 87.2328 37.4854C86.2984 37.1857 85.4581 37.2689 84.7121 37.7347C84.0153 38.2164 83.5329 38.8753 83.2648 39.7113C82.9809 40.5966 83.0149 41.421 83.3666 42.1847C83.7342 42.8991 84.3359 43.3904 85.172 43.6585ZM67.8139 107.105C64.7155 106.111 62.1409 104.499 60.09 102.269C58.0391 100.038 56.7411 97.2358 56.1961 93.861C55.6354 90.5355 56.0489 86.7087 57.4366 82.3808C58.714 78.3972 60.356 74.883 62.3628 71.8383C64.3696 68.7937 66.5216 66.3109 68.819 64.3899C71.1812 62.4355 73.5097 61.0939 75.8044 60.3653C78.099 59.6367 80.1562 59.5641 81.9759 60.1476C83.5988 60.668 84.8999 61.6004 85.8789 62.9449C86.858 64.2893 87.4483 65.9159 87.6498 67.8246C87.8514 69.7333 87.5816 71.8434 86.8404 74.1549C86.178 76.2205 85.196 78.1836 83.8944 80.0441C82.5927 81.9047 80.7885 83.3872 78.4818 84.4917C76.2243 85.6119 73.3307 86.0942 69.8009 85.9386L75.897 83.4188C77.3446 84.3169 78.8001 85.1904 80.2635 86.0393C81.7919 86.8547 83.3606 87.6289 84.9697 88.3618C86.6279 89.1105 88.3915 89.7845 90.2603 90.3837C91.2931 90.7149 91.9362 91.2465 92.1896 91.9786C92.508 92.6773 92.541 93.4201 92.2886 94.207C92.0363 94.9939 91.4555 95.6212 90.5462 96.0889C89.6527 96.5075 88.6649 96.5433 87.5829 96.1964C86.2551 95.7706 84.8525 95.2395 83.3752 94.6031C81.8979 93.9667 80.4285 93.3057 78.9669 92.6201C77.5212 91.8854 76.1571 91.1496 74.8747 90.413L81.3637 92.2497C82.1674 93.9718 82.5462 95.6661 82.4999 97.3326C82.4871 99.0641 82.1133 100.653 81.3786 102.098C80.6772 103.609 79.6543 104.854 78.3098 105.833C77.0146 106.828 75.4864 107.45 73.7252 107.699C71.9483 107.997 69.9779 107.799 67.8139 107.105ZM50.181 84.2034L52.8584 78.3908C53.8912 78.7219 54.924 79.0531 55.9568 79.3843C56.9896 79.7154 57.9811 80.0062 58.9313 80.2567L57.4759 85.8104C56.2817 85.6444 55.054 85.4134 53.793 85.1176C52.5653 84.8866 51.3613 84.5819 50.181 84.2034ZM69.9011 101.103C70.7864 101.387 71.7022 101.491 72.6487 101.415C73.6286 101.403 74.5152 101.091 75.3085 100.478C76.1352 99.9291 76.7536 99.0155 77.1636 97.7368C77.5578 96.5073 77.6008 95.2736 77.2927 94.0358C77.0179 92.863 76.2207 91.7124 74.9011 90.5842C73.5815 89.456 71.5201 88.4424 68.7168 87.5436C68.1266 87.3543 67.4469 87.1906 66.6776 87.0524C65.9733 86.8808 65.2287 86.7505 64.4437 86.6615C63.6744 86.5233 62.8648 86.4264 62.0148 86.3709L63.6233 81.3544C65.5711 81.7078 67.3861 81.883 69.0684 81.88C70.8156 81.8437 72.4292 81.5475 73.9092 80.9916C75.3892 80.4356 76.6933 79.4978 77.8215 78.1782C78.9497 76.8586 79.8686 75.0923 80.5783 72.8791C80.8148 72.1414 80.9845 71.2738 81.0874 70.2763C81.2395 69.2946 81.1968 68.413 80.9591 67.6318C80.7373 66.8013 80.2575 66.2678 79.5198 66.0313C78.7821 65.7947 77.7145 65.9948 76.3172 66.6315C74.969 67.2839 73.4946 68.3298 71.8941 69.7691C70.3428 71.2242 68.8286 73.0709 67.3516 75.3092C65.9395 77.514 64.7683 80.0673 63.8378 82.969C62.8128 86.1657 62.337 88.8335 62.4105 90.9723C62.5175 93.1761 62.9788 94.9511 63.7946 96.2975C64.5946 97.693 65.5541 98.76 66.6732 99.4985C67.7924 100.237 68.8683 100.772 69.9011 101.103ZM121.728 67.2131L123.052 63.0819L141.138 63.5117L139.79 67.7167L121.728 67.2131ZM87.5708 96.1925L90.2482 90.3798C91.822 90.8845 93.1323 91.1961 94.1789 91.3148C95.2414 91.3843 96.2342 91.0789 97.1575 90.3987C98.1456 89.685 99.2502 88.4392 100.471 86.6612C101.692 84.8832 103.264 82.3499 105.186 79.0612L110.222 82.3845C109.757 83.1575 109.229 84.0455 108.636 85.0486C108.059 86.0026 107.49 87.0136 106.931 88.0817C106.387 89.1006 105.966 90.0772 105.666 91.0117C105.272 92.2412 105.431 93.35 106.145 94.3382C106.859 95.3263 108.445 96.2147 110.904 97.0032C112.38 97.4763 113.624 97.7397 114.637 97.7934C115.65 97.8471 116.602 97.5014 117.492 96.7562C118.431 96.0268 119.477 94.7081 120.631 92.8002C121.786 90.8923 123.209 88.23 124.901 84.8133L130.176 87.6438C129.745 88.4818 129.226 89.5086 128.619 90.7242C128.012 91.9398 127.406 93.1554 126.799 94.371C126.257 95.5532 125.852 96.5624 125.584 97.3985C125.363 98.087 125.298 98.7982 125.388 99.5322C125.543 100.233 126.033 100.905 126.857 101.549C127.73 102.209 129.126 102.846 131.044 103.461C132.47 103.918 133.755 104.14 134.898 104.127C136.09 104.13 137.107 103.751 137.947 102.99C138.837 102.245 139.55 101.036 140.086 99.3638C140.685 97.4949 140.992 95.0169 141.006 91.9298C141.084 88.8092 141.032 85.6738 140.849 82.5235L147.534 82.2264C147.669 84.0052 147.683 85.9896 147.578 88.1794C147.521 90.3851 147.374 92.5346 147.137 94.628C146.9 96.7214 146.544 98.5058 146.071 99.9812C145.346 102.244 144.412 104.141 143.27 105.673C142.128 107.205 140.835 108.363 139.39 109.147C137.961 109.882 136.365 110.293 134.602 110.378C132.855 110.415 130.997 110.117 129.03 109.486C126.719 108.745 124.912 107.868 123.61 106.854C122.308 105.84 121.437 104.665 120.997 103.331C120.573 101.948 120.514 100.356 120.82 98.5555L123.328 99.3598C121.716 101.175 120.219 102.458 118.84 103.209C117.46 103.96 115.945 104.287 114.294 104.192C112.659 104.047 110.587 103.573 108.079 102.769C106.85 102.374 105.585 101.752 104.285 100.901C103.034 100.066 102.073 98.9173 101.403 97.455C100.749 95.9435 100.694 94.0005 101.239 91.6259L103.594 91.8929C101.953 94.1331 100.321 95.6708 98.6974 96.506C97.1386 97.3079 95.4601 97.6375 93.6618 97.4947C91.8635 97.352 89.8331 96.9179 87.5708 96.1925ZM165.169 81.1426L166.494 77.0115L184.58 77.4412L183.231 81.6462L165.169 81.1426ZM144.377 132.713L144.989 126.238C148.066 126.79 150.952 127.092 153.648 127.143C156.377 127.259 158.839 126.936 161.036 126.176C163.281 125.432 165.243 124.135 166.92 122.287C168.598 120.438 169.957 117.891 170.998 114.645C171.486 113.12 171.804 111.622 171.951 110.151C172.113 108.63 172.072 107.234 171.829 105.962C171.586 104.691 171.149 103.602 170.518 102.695C169.936 101.803 169.128 101.191 168.096 100.86C166.964 100.498 165.79 100.609 164.571 101.195C163.418 101.747 162.358 102.6 161.391 103.755C160.474 104.925 159.802 106.174 159.376 107.502C159.045 108.534 158.95 109.507 159.091 110.42C159.297 111.3 159.829 112.094 160.686 112.803C161.544 113.512 162.76 114.119 164.333 114.623C165.76 115.081 167.233 115.39 168.754 115.553C170.324 115.731 171.704 115.739 172.895 115.579L171.534 120.837C170.086 121.295 168.495 121.436 166.761 121.26C165.077 121.099 163.424 120.759 161.801 120.238C159.932 119.639 158.323 118.906 156.973 118.04C155.673 117.189 154.625 116.229 153.829 115.16C153.098 114.058 152.651 112.83 152.488 111.476C152.375 110.138 152.571 108.682 153.075 107.108C153.674 105.24 154.569 103.465 155.758 101.786C156.963 100.057 158.359 98.579 159.946 97.3521C161.533 96.1253 163.238 95.2891 165.062 94.8435C166.902 94.3488 168.757 94.401 170.625 95.0003C172.593 95.6311 174.148 96.6994 175.293 98.2053C176.453 99.662 177.249 101.409 177.68 103.445C178.112 105.482 178.227 107.661 178.025 109.983C177.823 112.305 177.351 114.621 176.61 116.933C175.143 121.507 172.947 125.141 170.022 127.837C167.13 130.598 163.524 132.371 159.205 133.155C154.934 133.955 149.992 133.808 144.377 132.713ZM218.158 71.7386L219.483 67.6074L237.568 68.0372L236.22 72.2422L218.158 71.7386ZM215.674 79.4846L216.999 75.3534L235.085 75.7832L233.736 79.9881L215.674 79.4846ZM243.353 146.144C240.402 145.198 238.047 144.171 236.286 143.065C234.575 141.974 233.344 140.738 232.593 139.358C231.892 137.994 231.572 136.455 231.634 134.739C231.761 132.99 232.13 130.993 232.741 128.748L244.205 87.9223L250.254 89.862L239.547 128.327C238.873 130.769 238.495 132.708 238.413 134.147C238.397 135.552 238.949 136.705 240.07 137.607C241.24 138.524 243.227 139.433 246.03 140.331C247.063 140.663 247.706 141.194 247.96 141.926C248.278 142.625 248.311 143.368 248.059 144.155C247.806 144.942 247.226 145.569 246.316 146.037C245.423 146.455 244.435 146.491 243.353 146.144ZM209.64 135.334C208.312 134.908 206.999 134.352 205.7 133.664C204.436 133.042 203.548 132.594 203.039 132.323L205.719 126.755C208.971 128.286 212.144 129.384 215.239 130.051C218.333 130.718 221.208 130.718 223.863 130.05C226.582 129.35 229.039 127.778 231.232 125.336C233.425 122.893 235.255 119.385 236.722 114.811L237.424 124.799C235.841 127.708 234.12 130.031 232.261 131.767C230.419 133.454 228.497 134.71 226.498 135.533C224.563 136.323 222.6 136.778 220.609 136.899C218.618 137.02 216.697 136.919 214.848 136.597C212.999 136.275 211.263 135.854 209.64 135.334ZM228.889 130.36C228.591 128.583 228.052 126.458 227.272 123.984C226.508 121.461 225.504 118.672 224.261 115.615C223.017 112.559 221.534 109.317 219.813 105.891C218.14 102.48 216.254 98.9736 214.155 95.3716L219.487 92.444C221.74 96.5832 223.686 100.407 225.327 103.917C227.033 107.392 228.466 110.618 229.627 113.594C230.804 116.52 231.774 119.163 232.536 121.523C233.298 123.883 233.894 125.999 234.324 127.873L228.889 130.36ZM274.835 105.554C272.72 104.876 271.327 103.724 270.655 102.098C270.032 100.489 269.996 98.8229 270.548 97.1016C271.006 95.6754 271.686 94.4834 272.59 93.5257C273.559 92.5346 274.67 91.8604 275.923 91.503C277.193 91.0965 278.467 91.0982 279.745 91.5082C280.926 91.8867 281.873 92.57 282.586 93.5582C283.3 94.5463 283.746 95.6927 283.924 96.9973C284.103 98.302 283.987 99.5936 283.577 100.872C282.962 102.79 281.826 104.216 280.171 105.15C278.532 106.034 276.753 106.169 274.835 105.554ZM275.991 101.694C276.827 101.962 277.627 101.92 278.391 101.569C279.203 101.233 279.752 100.622 280.036 99.7369C280.335 98.8025 280.26 97.9377 279.81 97.1425C279.376 96.2981 278.79 95.7577 278.052 95.5211C277.117 95.2215 276.277 95.3046 275.531 95.7705C274.834 96.2521 274.352 96.911 274.084 97.7471C273.8 98.6323 273.834 99.4568 274.186 100.22C274.553 100.935 275.155 101.426 275.991 101.694ZM271.657 155.464C269.64 154.817 267.662 153.884 265.72 152.665C263.795 151.397 262.014 149.931 260.378 148.268C258.791 146.62 257.447 144.806 256.346 142.826C255.311 140.812 254.625 138.721 254.29 136.553C254.004 134.4 254.208 132.242 254.902 130.078C255.612 127.865 256.709 125.966 258.193 124.381C259.727 122.811 261.511 121.729 263.546 121.134C265.646 120.506 267.827 120.554 270.089 121.28C272.302 121.989 273.999 123.211 275.178 124.945C276.373 126.63 277.082 128.566 277.303 130.752C277.589 132.905 277.4 135.014 276.738 137.08C275.823 139.932 274.192 142.229 271.844 143.971C269.56 145.68 266.822 146.863 263.628 147.52C260.434 148.177 257.088 148.379 253.59 148.125C250.091 147.871 246.67 147.208 243.326 146.135L246.003 140.323C248.659 141.174 251.075 141.759 253.251 142.077C255.492 142.362 257.477 142.429 259.207 142.278C261.753 142.119 263.862 141.629 265.535 140.809C267.273 139.957 268.626 138.953 269.592 137.798C270.559 136.644 271.216 135.526 271.563 134.444C271.894 133.411 271.988 132.357 271.845 131.28C271.767 130.17 271.429 129.194 270.832 128.352C270.299 127.476 269.492 126.864 268.41 126.518C267.328 126.171 266.242 126.175 265.151 126.53C264.126 126.852 263.21 127.426 262.402 128.252C261.595 129.078 261.018 130.032 260.671 131.114C260.009 133.18 259.934 135.19 260.446 137.144C261.024 139.064 261.967 140.859 263.277 142.526C264.635 144.209 266.179 145.653 267.908 146.858C269.686 148.079 271.46 148.974 273.23 149.541C274.903 150.077 276.219 150.201 277.179 149.913C278.155 149.575 278.856 148.742 279.282 147.414C279.361 147.168 279.429 146.702 279.487 146.015C279.609 145.295 279.515 144.234 279.205 142.833C278.944 141.448 278.303 139.642 277.281 137.416C276.275 135.141 274.732 132.341 272.652 129.017C270.588 125.643 267.814 121.608 264.331 116.911L269.264 113.449C272.882 118.406 275.789 122.701 277.987 126.334C280.25 129.934 281.951 133.002 283.09 135.537C284.295 138.038 285.079 140.161 285.442 141.904C285.87 143.614 286.025 145.075 285.909 146.285C285.808 147.445 285.599 148.518 285.284 149.501C284.764 151.124 283.906 152.53 282.711 153.72C281.565 154.926 280.063 155.719 278.206 156.099C276.397 156.496 274.214 156.284 271.657 155.464ZM292.371 161.455L306.35 113.544L312.326 115.46L298.346 163.371L292.371 161.455ZM304.155 107.959L304.547 103.691C305.92 103.806 307.032 103.891 307.882 103.947C308.732 104.003 309.688 104.065 310.75 104.135L309.885 105.566C308.732 104.762 307.771 103.532 307 101.875C306.279 100.233 306.179 98.6011 306.699 96.9781C307.172 95.5027 307.911 94.3836 308.915 93.6207C309.984 92.8245 311.163 92.3618 312.451 92.2327C313.789 92.1194 315.122 92.2756 316.45 92.7014C316.991 92.8749 317.541 93.1054 318.1 93.393C318.708 93.6964 319.25 94.0331 319.728 94.4033L317.955 97.9026C317.495 97.6466 317.059 97.3984 316.648 97.1581C316.237 96.9178 315.761 96.7109 315.22 96.5375C314.089 96.1748 313.125 96.1368 312.328 96.4236C311.547 96.6612 311.022 97.1981 310.754 98.0342C310.423 99.067 310.459 100.055 310.861 100.997C311.313 101.956 311.886 102.791 312.581 103.501C313.34 104.179 313.99 104.604 314.531 104.777L311.411 104.103C312.85 104.184 314.19 104.234 315.431 104.253C316.738 104.238 317.913 104.208 318.958 104.163L318.932 108.304C317.61 108.368 316.058 108.386 314.278 108.357C312.546 108.344 310.798 108.299 309.033 108.221C307.268 108.144 305.642 108.056 304.155 107.959Z" fill="url(#paint0_linear_146_369)"/>
<defs>
<linearGradient id="paint0_linear_146_369" x1="100.5" y1="91" x2="326" y2="175" gradientUnits="userSpaceOnUse">
<stop stop-color="#F5AE14"/>
<stop offset="1" stop-color="#F5AE14" stop-opacity="0"/>
</linearGradient>
</defs>
</svg>
